<?xml version="1.0" encoding="UTF-8"?>
<!DOCTYPE svg PUBLIC "-//W3C//DTD SVG 1.1//EN" "http://www.w3.org/Graphics/SVG/1.1/DTD/svg11.dtd">
<svg xmlns="http://www.w3.org/2000/svg" version="1.1" width="512px" height="512px" style="shape-rendering:geometricPrecision; text-rendering:geometricPrecision; image-rendering:optimizeQuality; fill-rule:evenodd; clip-rule:evenodd" xmlns:xlink="http://www.w3.org/1999/xlink">
<g><path style="opacity:0.96" fill="#fefffe" d="M 125.5,-0.5 C 136.833,-0.5 148.167,-0.5 159.5,-0.5C 199.443,6.77325 231.443,26.7732 255.5,59.5C 279.559,26.7709 311.559,6.77086 351.5,-0.5C 362.833,-0.5 374.167,-0.5 385.5,-0.5C 446.132,9.948 485.966,44.6147 505,103.5C 507.769,113.85 509.935,124.184 511.5,134.5C 511.5,146.833 511.5,159.167 511.5,171.5C 506.759,204.987 494.259,235.321 474,262.5C 453.68,289.16 430.847,313.66 405.5,336C 363.353,372.903 321.02,409.57 278.5,446C 263.167,458.667 247.833,458.667 232.5,446C 189.98,409.57 147.647,372.903 105.5,336C 80.1534,313.66 57.32,289.16 37,262.5C 16.7405,235.321 4.24052,204.987 -0.5,171.5C -0.5,159.167 -0.5,146.833 -0.5,134.5C 5.43124,82.7781 30.4312,43.2781 74.5,16C 90.6712,7.54877 107.671,2.04877 125.5,-0.5 Z M 141.5,29.5 C 170.588,30.4652 195.421,41.1319 216,61.5C 220.333,66.5 224.667,71.5 229,76.5C 233.219,83.7721 238.052,90.6054 243.5,97C 251.5,101.667 259.5,101.667 267.5,97C 274.034,88.7655 280.2,80.2655 286,71.5C 316.707,34.8206 355.207,22.6539 401.5,35C 440.132,48.9682 464.965,75.8016 476,115.5C 487.288,162.359 478.288,205.025 449,243.5C 430.282,267.221 409.782,289.388 387.5,310C 344.059,348.543 300.059,386.376 255.5,423.5C 201.261,378.933 148.428,332.6 97,284.5C 78.3741,265.217 62.0408,244.217 48,221.5C 23.7021,175.145 24.0354,128.812 49,82.5C 70.7153,48.9575 101.549,31.2909 141.5,29.5 Z"/></g>
</svg>
