<?xml version="1.0" encoding="UTF-8"?>
<svg version="1.1" xmlns="http://www.w3.org/2000/svg" width="512" height="512">
<path d="M0 0 C0.73976074 0.17692383 1.47952148 0.35384766 2.24169922 0.53613281 C49.39068135 12.0426705 90.48005084 40.75877585 116.28662109 82.05908203 C126.99891317 99.79915768 134.10569457 118.90675258 139 139 C139.17934082 139.7125293 139.35868164 140.42505859 139.54345703 141.15917969 C156.76122401 213.00531358 117.77912598 289.04923867 81.5625 348.375 C66.64427274 372.58923863 50.55794232 396.16631656 34.125 419.375 C33.63435059 420.06940186 33.14370117 420.76380371 32.63818359 421.47924805 C29.00113685 426.6151536 25.31877701 431.71730812 21.625 436.8125 C15.79538621 444.85458394 10.08830638 452.9782184 4.40625 461.125 C0.79197406 466.30573414 -2.86004538 471.45931025 -6.51611328 476.6105957 C-9.20634308 480.41478391 -11.85303591 484.24429741 -14.4609375 488.10546875 C-15.04093506 488.96261475 -15.62093262 489.81976074 -16.21850586 490.70288086 C-17.3336796 492.35528927 -18.4441627 494.01087674 -19.54907227 495.67016602 C-23.11294759 500.95075517 -26.63297341 505.42198228 -32 509 C-34.70703125 509.3359375 -34.70703125 509.3359375 -37.8125 509.375 C-38.82957031 509.40335938 -39.84664062 509.43171875 -40.89453125 509.4609375 C-45.90848208 508.71672845 -48.60719974 506.75124893 -51.68383789 502.8828125 C-53.56131933 500.23065854 -55.35159906 497.5353184 -57.125 494.8125 C-58.45586212 492.81432499 -59.78790628 490.81693679 -61.12109375 488.8203125 C-61.77706543 487.83192383 -62.43303711 486.84353516 -63.10888672 485.82519531 C-65.7368826 481.89914725 -68.44920352 478.03710179 -71.1875 474.1875 C-71.91296021 473.1651123 -71.91296021 473.1651123 -72.65307617 472.12207031 C-73.61911699 470.76102974 -74.58566472 469.40034881 -75.55273438 468.04003906 C-77.02469909 465.96518462 -78.48993281 463.88573621 -79.953125 461.8046875 C-85.04585204 454.56347928 -90.17779318 447.35414165 -95.375 440.1875 C-102.36653437 430.53932969 -109.20131936 420.78472731 -116 411 C-116.46051758 410.33887207 -116.92103516 409.67774414 -117.39550781 408.99658203 C-217.73721842 264.81662596 -217.73721842 264.81662596 -218.203125 187.57421875 C-218.21018463 186.79326843 -218.21724426 186.01231812 -218.22451782 185.20770264 C-218.45165629 152.71358859 -218.45165629 152.71358859 -215 139 C-214.80132324 138.1843457 -214.60264648 137.36869141 -214.39794922 136.52832031 C-202.38781761 88.36184493 -173.55475051 47.23792125 -130.80859375 21.42578125 C-113.65822841 11.39973731 -95.26479445 4.69251117 -76 0 C-74.93120605 -0.26901123 -74.93120605 -0.26901123 -73.84082031 -0.54345703 C-51.26648642 -5.95334619 -22.49127626 -5.58098864 0 0 Z M-146 73 C-175.21783206 102.71410097 -187.53959297 142.13147225 -187.30352783 182.9941864 C-187.17473907 194.32016713 -185.8088218 205.01481337 -183 216 C-182.78569336 216.85770996 -182.57138672 217.71541992 -182.35058594 218.59912109 C-167.63917791 276.29910496 -135.1190048 328.41404672 -101.48632812 376.85498047 C-100.04069835 378.94126549 -98.6044498 381.03364039 -97.171875 383.12890625 C-88.4543771 395.87629311 -79.556385 408.49118838 -70.5 421 C-66.30632626 426.79354719 -62.13012321 432.59843087 -58 438.4375 C-57.51869629 439.1173999 -57.03739258 439.7972998 -56.54150391 440.49780273 C-53.79290467 444.39902564 -51.09371853 448.32955861 -48.4296875 452.2890625 C-47.83671875 453.16763916 -47.24375 454.04621582 -46.6328125 454.95141602 C-45.47819226 456.66650816 -44.32955168 458.38564401 -43.1875 460.10913086 C-42.66929687 460.87878174 -42.15109375 461.64843262 -41.6171875 462.44140625 C-41.15940918 463.12920166 -40.70163086 463.81699707 -40.22998047 464.52563477 C-39.82408691 465.01217529 -39.41819336 465.49871582 -39 466 C-38.34 466 -37.68 466 -37 466 C-35.69644595 464.48790224 -35.69644595 464.48790224 -34.41796875 462.4765625 C-33.64827759 461.32969971 -33.64827759 461.32969971 -32.86303711 460.15966797 C-32.03364624 458.90500732 -32.03364624 458.90500732 -31.1875 457.625 C-30.00718624 455.86846099 -28.82484312 454.11328415 -27.640625 452.359375 C-27.03541016 451.46283203 -26.43019531 450.56628906 -25.80664062 449.64257812 C-23.08887938 445.66730141 -20.27201219 441.76751833 -17.4375 437.875 C-11.71591664 430.00396159 -6.08534178 422.07321694 -0.48828125 414.11328125 C1.01464118 411.97921029 2.52219873 409.84849074 4.03125 407.71875 C73.13676931 311.78008253 73.13676931 311.78008253 110 201 C110.17289551 199.91976562 110.34579102 198.83953125 110.52392578 197.7265625 C111.37585863 191.05789426 111.24471447 184.33879393 111.25 177.625 C111.25067474 176.85922638 111.25134949 176.09345276 111.25204468 175.30447388 C111.23651796 164.23653708 110.85519977 153.75305074 108 143 C107.83371094 142.3287207 107.66742188 141.65744141 107.49609375 140.96582031 C100.06817631 111.18537352 82.98999392 82.40670765 59 63 C57.58267578 61.84371094 57.58267578 61.84371094 56.13671875 60.6640625 C34.14640241 43.05124171 7.25416939 30.67314896 -21 28 C-21.63341309 27.93441895 -22.26682617 27.86883789 -22.91943359 27.80126953 C-69.09364839 23.23963779 -113.25262291 40.69590382 -146 73 Z " fill="#FFFFFF" transform="translate(294,3)"/>
<path d="M0 0 C2.4326433 1.91056917 4.75364666 3.90013189 7.06640625 5.953125 C8.071875 6.74589844 8.071875 6.74589844 9.09765625 7.5546875 C24.92395041 20.30364668 35.37692769 40.98391777 38.06640625 60.953125 C40.19360372 85.61095037 36.61650695 109.57429039 21.00390625 129.453125 C19.70140416 130.96181468 18.38957864 132.4625308 17.06640625 133.953125 C16.53789062 134.6234375 16.009375 135.29375 15.46484375 135.984375 C2.71588457 151.81066916 -17.96438652 162.26364644 -37.93359375 164.953125 C-62.59141912 167.08032247 -86.55475914 163.5032257 -106.43359375 147.890625 C-107.94228343 146.58812291 -109.44299955 145.27629739 -110.93359375 143.953125 C-111.60390625 143.42460937 -112.27421875 142.89609375 -112.96484375 142.3515625 C-128.79113791 129.60260332 -139.24411519 108.92233223 -141.93359375 88.953125 C-144.06079122 64.29529963 -140.48369445 40.33195961 -124.87109375 20.453125 C-123.56859166 18.94443532 -122.25676614 17.4437192 -120.93359375 15.953125 C-120.40507812 15.2828125 -119.8765625 14.6125 -119.33203125 13.921875 C-91.27616577 -20.90609594 -35.55651168 -24.80907073 0 0 Z M-95.12109375 33.640625 C-107.01279288 45.99903132 -111.59487725 60.28894583 -111.40209961 77.14428711 C-110.79979503 94.60797483 -103.53641192 108.50459045 -90.84765625 120.51171875 C-78.57215034 130.79615735 -63.49533331 135.75984222 -47.52734375 134.734375 C-29.59240804 132.67106381 -15.59662984 124.6155387 -3.93359375 110.953125 C6.92846083 95.97885856 9.29260142 78.96424087 6.44140625 61.01953125 C2.45902033 45.07220905 -7.90398522 31.65555985 -21.80859375 23.015625 C-47.04176302 9.42101055 -74.55639556 14.31476405 -95.12109375 33.640625 Z " fill="#FFFFFF" transform="translate(307.93359375,105.046875)"/>
</svg>
