<?xml version="1.0" encoding="UTF-8"?>
<!DOCTYPE svg PUBLIC "-//W3C//DTD SVG 1.1//EN" "http://www.w3.org/Graphics/SVG/1.1/DTD/svg11.dtd">
<svg xmlns="http://www.w3.org/2000/svg" version="1.1" width="256px" height="256px" style="shape-rendering:geometricPrecision; text-rendering:geometricPrecision; image-rendering:optimizeQuality; fill-rule:evenodd; clip-rule:evenodd" xmlns:xlink="http://www.w3.org/1999/xlink">
<g><path style="opacity:0.989" fill="#000000" d="M 116.5,4.5 C 166.545,2.60436 205.378,22.271 233,63.5C 258.853,112.427 255.853,159.427 224,204.5C 187.969,245.307 143.469,258.807 90.5,245C 40.6959,227.187 12.1959,192.021 5,139.5C 2.31454,89.0381 21.8145,49.8714 63.5,22C 80.0685,12.4212 97.7352,6.58784 116.5,4.5 Z"/></g>
<g><path style="opacity:1" fill="#fcfcfc" d="M 74.5,67.5 C 105.167,67.5 135.833,67.5 166.5,67.5C 166.5,77.8333 166.5,88.1667 166.5,98.5C 161.5,98.5 156.5,98.5 151.5,98.5C 151.5,93.1667 151.5,87.8333 151.5,82.5C 130.833,82.5 110.167,82.5 89.5,82.5C 89.5,112.5 89.5,142.5 89.5,172.5C 110.167,172.5 130.833,172.5 151.5,172.5C 151.5,167.167 151.5,161.833 151.5,156.5C 156.5,156.5 161.5,156.5 166.5,156.5C 166.5,166.833 166.5,177.167 166.5,187.5C 135.833,187.5 105.167,187.5 74.5,187.5C 74.5,147.5 74.5,107.5 74.5,67.5 Z"/></g>
<g><path style="opacity:1" fill="#fcfcfc" d="M 175.5,136.5 C 176.043,136.44 176.376,136.107 176.5,135.5C 158.179,134.5 139.845,134.167 121.5,134.5C 121.5,129.833 121.5,125.167 121.5,120.5C 139.836,120.667 158.17,120.5 176.5,120C 173.5,117 170.5,114 167.5,111C 171,107.5 174.5,104 178,100.5C 187.167,109.667 196.333,118.833 205.5,128C 196.333,137.167 187.167,146.333 178,155.5C 174.318,151.985 170.818,148.318 167.5,144.5C 170.521,142.146 173.188,139.479 175.5,136.5 Z"/></g>
<g><path style="opacity:1" fill="#b9b9b9" d="M 121.5,134.5 C 139.845,134.167 158.179,134.5 176.5,135.5C 176.376,136.107 176.043,136.44 175.5,136.5C 157.5,135.833 139.5,135.167 121.5,134.5 Z"/></g>
</svg>
