<?xml version="1.0" encoding="UTF-8"?>
<!DOCTYPE svg PUBLIC "-//W3C//DTD SVG 1.1//EN" "http://www.w3.org/Graphics/SVG/1.1/DTD/svg11.dtd">
<svg xmlns="http://www.w3.org/2000/svg" version="1.1" width="310px" height="310px" style="shape-rendering:geometricPrecision; text-rendering:geometricPrecision; image-rendering:optimizeQuality; fill-rule:evenodd; clip-rule:evenodd" xmlns:xlink="http://www.w3.org/1999/xlink">
<g><path style="opacity:1" fill="#1a1b1f" d="M 185.5,48.5 C 186.509,51.7198 188.509,52.3865 191.5,50.5C 199.864,52.8499 207.531,56.5166 214.5,61.5C 215.818,65.0865 218.485,67.0865 222.5,67.5C 222.973,68.9063 223.973,69.573 225.5,69.5C 227.5,71.1667 229.5,72.8333 231.5,74.5C 232.08,76.7488 233.413,78.4154 235.5,79.5C 237.167,80.5 238.5,81.8333 239.5,83.5C 240.08,85.7488 241.413,87.4154 243.5,88.5C 243.427,90.0269 244.094,91.0269 245.5,91.5C 245.738,93.4044 246.738,94.7377 248.5,95.5C 248.427,97.0269 249.094,98.0269 250.5,98.5C 250.357,100.262 250.691,101.929 251.5,103.5C 252.72,105.981 254.386,107.981 256.5,109.5C 257.931,110.78 258.598,112.447 258.5,114.5C 257.29,117.52 258.29,119.853 261.5,121.5C 261.5,121.833 261.5,122.167 261.5,122.5C 262.259,127.43 263.592,132.097 265.5,136.5C 269.831,153.909 269.165,171.242 263.5,188.5C 261.399,191.797 260.065,195.463 259.5,199.5C 258.069,200.78 257.402,202.447 257.5,204.5C 256.59,207.992 254.924,210.992 252.5,213.5C 251.5,213.5 250.5,213.5 249.5,213.5C 249.5,215.167 249.5,216.833 249.5,218.5C 249.573,220.027 248.906,221.027 247.5,221.5C 246.094,221.973 245.427,222.973 245.5,224.5C 245.167,225.5 244.5,226.167 243.5,226.5C 242.094,226.973 241.427,227.973 241.5,229.5C 236.5,235.167 231.167,240.5 225.5,245.5C 223.973,245.427 222.973,246.094 222.5,247.5C 222.167,248.5 221.5,249.167 220.5,249.5C 218.973,249.427 217.973,250.094 217.5,251.5C 215.973,251.427 214.973,252.094 214.5,253.5C 213.341,255.25 211.674,256.25 209.5,256.5C 199.908,260.913 190.241,264.913 180.5,268.5C 175.849,268.627 171.515,269.627 167.5,271.5C 151.504,273.638 135.837,272.305 120.5,267.5C 119.01,265.72 117.01,265.054 114.5,265.5C 112.38,262.531 109.38,261.198 105.5,261.5C 101.849,260.341 98.5154,258.674 95.5,256.5C 95.0269,255.094 94.0269,254.427 92.5,254.5C 92.0269,253.094 91.0269,252.427 89.5,252.5C 89.0269,251.094 88.0269,250.427 86.5,250.5C 85.4154,248.413 83.7488,247.08 81.5,246.5C 80.4154,244.413 78.7488,243.08 76.5,242.5C 72.8333,239.5 69.5,236.167 66.5,232.5C 66.5,230.5 65.5,229.5 63.5,229.5C 40.1792,199.57 33.1792,166.236 42.5,129.5C 43.9238,127.485 44.5905,125.152 44.5,122.5C 44.5,122.167 44.5,121.833 44.5,121.5C 46.2132,120.365 46.8799,118.698 46.5,116.5C 48.0502,111.07 50.3836,106.07 53.5,101.5C 54.8816,100.199 56.5483,99.3661 58.5,99C 58.1667,98.6667 57.8333,98.3333 57.5,98C 58.464,96.2745 59.1307,94.4412 59.5,92.5C 60.9063,92.0269 61.573,91.0269 61.5,89.5C 63.914,88.0892 65.5806,86.0892 66.5,83.5C 70.8333,79.8333 74.8333,75.8333 78.5,71.5C 81.0892,70.5806 83.0892,68.914 84.5,66.5C 86.9505,63.7232 89.9505,61.7232 93.5,60.5C 95.0269,60.573 96.0269,59.9063 96.5,58.5C 97.871,60.1696 99.371,60.8363 101,60.5C 103.109,59.9647 103.609,58.9647 102.5,57.5C 104.423,56.6922 106.423,56.1922 108.5,56C 109.833,55.3333 109.833,54.6667 108.5,54C 109.942,53.6232 110.942,52.7899 111.5,51.5C 113.698,51.8799 115.365,51.2132 116.5,49.5C 116.833,49.5 117.167,49.5 117.5,49.5C 120.152,49.5905 122.485,48.9238 124.5,47.5C 133.638,44.552 143.138,43.2187 153,43.5C 164.255,43.2731 175.089,44.9398 185.5,48.5 Z"/></g>
<g><path style="opacity:0.886" fill="#707174" d="M 124.5,47.5 C 122.485,48.9238 120.152,49.5905 117.5,49.5C 119.515,48.0762 121.848,47.4095 124.5,47.5 Z"/></g>
<g><path style="opacity:0.99" fill="#656667" d="M 185.5,48.5 C 187.786,48.595 189.786,49.2616 191.5,50.5C 188.509,52.3865 186.509,51.7198 185.5,48.5 Z"/></g>
<g><path style="opacity:0.894" fill="#838285" d="M 116.5,49.5 C 115.365,51.2132 113.698,51.8799 111.5,51.5C 112.93,50.4625 114.597,49.7959 116.5,49.5 Z"/></g>
<g><path style="opacity:1" fill="#3c3c3f" d="M 111.5,51.5 C 110.942,52.7899 109.942,53.6232 108.5,54C 109.833,54.6667 109.833,55.3333 108.5,56C 106.423,56.1922 104.423,56.6922 102.5,57.5C 103.609,58.9647 103.109,59.9647 101,60.5C 99.371,60.8363 97.871,60.1696 96.5,58.5C 101.07,55.3836 106.07,53.0502 111.5,51.5 Z"/></g>
<g><path style="opacity:0.749" fill="#949596" d="M 96.5,58.5 C 96.0269,59.9063 95.0269,60.573 93.5,60.5C 93.9731,59.0937 94.9731,58.427 96.5,58.5 Z"/></g>
<g><path style="opacity:1" fill="#5c5c60" d="M 214.5,61.5 C 217.473,63.1468 220.14,65.1468 222.5,67.5C 218.485,67.0865 215.818,65.0865 214.5,61.5 Z"/></g>
<g><path style="opacity:0.016" fill="#cdcdcd" d="M 222.5,67.5 C 224.027,67.427 225.027,68.0937 225.5,69.5C 223.973,69.573 222.973,68.9063 222.5,67.5 Z"/></g>
<g><path style="opacity:0.855" fill="#757577" d="M 84.5,66.5 C 83.0892,68.914 81.0892,70.5806 78.5,71.5C 79.9108,69.086 81.9108,67.4194 84.5,66.5 Z"/></g>
<g><path style="opacity:0.749" fill="#919193" d="M 78.5,71.5 C 74.8333,75.8333 70.8333,79.8333 66.5,83.5C 69.5,78.5 73.5,74.5 78.5,71.5 Z"/></g>
<g><path style="opacity:0.51" fill="#bcbcbd" d="M 231.5,74.5 C 233.587,75.5846 234.92,77.2512 235.5,79.5C 233.413,78.4154 232.08,76.7488 231.5,74.5 Z"/></g>
<g><path style="opacity:0.725" fill="#a2a3a3" d="M 239.5,83.5 C 241.587,84.5846 242.92,86.2512 243.5,88.5C 241.413,87.4154 240.08,85.7488 239.5,83.5 Z"/></g>
<g><path style="opacity:0.753" fill="#8e8d8f" d="M 66.5,83.5 C 65.5806,86.0892 63.914,88.0892 61.5,89.5C 62.4194,86.9108 64.086,84.9108 66.5,83.5 Z"/></g>
<g><path style="opacity:0.78" fill="#8c8d8d" d="M 61.5,89.5 C 61.573,91.0269 60.9063,92.0269 59.5,92.5C 59.427,90.9731 60.0937,89.9731 61.5,89.5 Z"/></g>
<g><path style="opacity:0.553" fill="#949495" d="M 243.5,88.5 C 244.906,88.9731 245.573,89.9731 245.5,91.5C 244.094,91.0269 243.427,90.0269 243.5,88.5 Z"/></g>
<g><path style="opacity:0.667" fill="#8b8b8c" d="M 245.5,91.5 C 247.262,92.2623 248.262,93.5956 248.5,95.5C 246.738,94.7377 245.738,93.4044 245.5,91.5 Z"/></g>
<g><path style="opacity:0.455" fill="#a7a7a7" d="M 248.5,95.5 C 249.906,95.9731 250.573,96.9731 250.5,98.5C 249.094,98.0269 248.427,97.0269 248.5,95.5 Z"/></g>
<g><path style="opacity:1" fill="#616164" d="M 59.5,92.5 C 59.1307,94.4412 58.464,96.2745 57.5,98C 57.8333,98.3333 58.1667,98.6667 58.5,99C 56.5483,99.3661 54.8816,100.199 53.5,101.5C 54.7589,97.9754 56.7589,94.9754 59.5,92.5 Z"/></g>
<g><path style="opacity:0.99" fill="#f4f4f5" d="M 134.5,102.5 C 156.254,100.459 173.087,108.459 185,126.5C 193.413,144.549 191.913,161.716 180.5,178C 189.624,188.125 199.124,197.958 209,207.5C 209.263,213.245 206.763,215.078 201.5,213C 192.5,204 183.5,195 174.5,186C 173.5,185.333 172.5,185.333 171.5,186C 152.872,198.661 134.205,198.661 115.5,186C 95.1957,167.031 92.029,145.531 106,121.5C 113.69,112.253 123.19,105.92 134.5,102.5 Z"/></g>
<g><path style="opacity:1" fill="#595a5b" d="M 250.5,98.5 C 253.258,101.678 255.258,105.345 256.5,109.5C 254.386,107.981 252.72,105.981 251.5,103.5C 250.691,101.929 250.357,100.262 250.5,98.5 Z"/></g>
<g><path style="opacity:1" fill="#191a1e" d="M 134.5,111.5 C 158.006,108.656 173.506,118.322 181,140.5C 182.47,172.364 167.303,187.53 135.5,186C 116.42,180.504 106.754,167.837 106.5,148C 107.722,129.611 117.055,117.445 134.5,111.5 Z"/></g>
<g><path style="opacity:0.986" fill="#6c6c6f" d="M 258.5,114.5 C 260.065,116.509 261.065,118.843 261.5,121.5C 258.29,119.853 257.29,117.52 258.5,114.5 Z"/></g>
<g><path style="opacity:0.863" fill="#89898c" d="M 46.5,116.5 C 46.8799,118.698 46.2132,120.365 44.5,121.5C 44.7959,119.597 45.4625,117.93 46.5,116.5 Z"/></g>
<g><path style="opacity:0.847" fill="#868687" d="M 44.5,122.5 C 44.5905,125.152 43.9238,127.485 42.5,129.5C 42.4095,126.848 43.0762,124.515 44.5,122.5 Z"/></g>
<g><path style="opacity:0.902" fill="#8f8f91" d="M 261.5,122.5 C 263.816,126.794 265.15,131.46 265.5,136.5C 263.592,132.097 262.259,127.43 261.5,122.5 Z"/></g>
<g><path style="opacity:0.443" fill="#b2b2b4" d="M 263.5,188.5 C 262.935,192.537 261.601,196.203 259.5,199.5C 260.065,195.463 261.399,191.797 263.5,188.5 Z"/></g>
<g><path style="opacity:0.325" fill="#b7b7b8" d="M 259.5,199.5 C 259.598,201.553 258.931,203.22 257.5,204.5C 257.402,202.447 258.069,200.78 259.5,199.5 Z"/></g>
<g><path style="opacity:1" fill="#67666a" d="M 252.5,213.5 C 252.25,215.674 251.25,217.341 249.5,218.5C 249.5,216.833 249.5,215.167 249.5,213.5C 250.5,213.5 251.5,213.5 252.5,213.5 Z"/></g>
<g><path style="opacity:0.012" fill="#d1d1d2" d="M 247.5,221.5 C 247.573,223.027 246.906,224.027 245.5,224.5C 245.427,222.973 246.094,221.973 247.5,221.5 Z"/></g>
<g><path style="opacity:0.035" fill="#c8c8c9" d="M 243.5,226.5 C 243.573,228.027 242.906,229.027 241.5,229.5C 241.427,227.973 242.094,226.973 243.5,226.5 Z"/></g>
<g><path style="opacity:0.576" fill="#b1b1b2" d="M 63.5,229.5 C 65.5,229.5 66.5,230.5 66.5,232.5C 65.1667,231.833 64.1667,230.833 63.5,229.5 Z"/></g>
<g><path style="opacity:0.78" fill="#9d9d9e" d="M 76.5,242.5 C 78.7488,243.08 80.4154,244.413 81.5,246.5C 79.2512,245.92 77.5846,244.587 76.5,242.5 Z"/></g>
<g><path style="opacity:0.047" fill="#cecece" d="M 225.5,245.5 C 225.027,246.906 224.027,247.573 222.5,247.5C 222.973,246.094 223.973,245.427 225.5,245.5 Z"/></g>
<g><path style="opacity:0.435" fill="#969698" d="M 81.5,246.5 C 83.7488,247.08 85.4154,248.413 86.5,250.5C 84.2512,249.92 82.5846,248.587 81.5,246.5 Z"/></g>
<g><path style="opacity:0.027" fill="#d3d3d4" d="M 220.5,249.5 C 220.027,250.906 219.027,251.573 217.5,251.5C 217.973,250.094 218.973,249.427 220.5,249.5 Z"/></g>
<g><path style="opacity:0.478" fill="#a0a1a2" d="M 86.5,250.5 C 88.0269,250.427 89.0269,251.094 89.5,252.5C 87.9731,252.573 86.9731,251.906 86.5,250.5 Z"/></g>
<g><path style="opacity:0.059" fill="#c7c7c8" d="M 217.5,251.5 C 217.027,252.906 216.027,253.573 214.5,253.5C 214.973,252.094 215.973,251.427 217.5,251.5 Z"/></g>
<g><path style="opacity:0.459" fill="#9c9c9d" d="M 89.5,252.5 C 91.0269,252.427 92.0269,253.094 92.5,254.5C 90.9731,254.573 89.9731,253.906 89.5,252.5 Z"/></g>
<g><path style="opacity:0.302" fill="#b7b8b9" d="M 92.5,254.5 C 94.0269,254.427 95.0269,255.094 95.5,256.5C 93.9731,256.573 92.9731,255.906 92.5,254.5 Z"/></g>
<g><path style="opacity:0.329" fill="#b7b7b8" d="M 209.5,256.5 C 200.73,262.43 191.063,266.43 180.5,268.5C 190.241,264.913 199.908,260.913 209.5,256.5 Z"/></g>
<g><path style="opacity:1" fill="#565659" d="M 105.5,261.5 C 109.38,261.198 112.38,262.531 114.5,265.5C 111.088,264.925 108.088,263.592 105.5,261.5 Z"/></g>
<g><path style="opacity:0.878" fill="#939393" d="M 114.5,265.5 C 117.01,265.054 119.01,265.72 120.5,267.5C 118.214,267.405 116.214,266.738 114.5,265.5 Z"/></g>
<g><path style="opacity:0.22" fill="#bfbfbf" d="M 180.5,268.5 C 176.425,270.118 172.092,271.118 167.5,271.5C 171.515,269.627 175.849,268.627 180.5,268.5 Z"/></g>
</svg>
