<?xml version="1.0" encoding="UTF-8"?>
<svg version="1.1" xmlns="http://www.w3.org/2000/svg" width="500" height="500">
<path d="M0 0 C0.84385254 0.18191895 1.68770508 0.36383789 2.55712891 0.55126953 C34.12268866 7.55540623 63.74069438 21.8741468 89 42 C89.98871094 42.78375 90.97742188 43.5675 91.99609375 44.375 C106.57757802 56.19558838 120.10150993 69.69547621 131 85 C131.46535156 85.64275879 131.93070312 86.28551758 132.41015625 86.94775391 C167.18101654 135.38356229 180.03312145 194.62285512 170.78540039 253.21459961 C164.23746508 291.85167909 147.67628904 328.32341955 122 358 C121.3296875 358.78117187 120.659375 359.56234375 119.96875 360.3671875 C117.69189459 362.95838489 115.36218889 365.48620794 113 368 C112.21544434 368.8355542 112.21544434 368.8355542 111.41503906 369.68798828 C102.0428636 379.58438821 92.08846815 388.08609567 81 396 C80.38189453 396.44682129 79.76378906 396.89364258 79.12695312 397.35400391 C49.27586789 418.76996978 8.26711376 436 -29 436 C-29 378.25 -29 320.5 -29 261 C-10.52 261 7.96 261 27 261 C27.33 257.37 27.66 253.74 28 250 C29.32 242.41 30.64 234.82 32 227 C11.87 227 -8.26 227 -29 227 C-29.061875 218.729375 -29.12375 210.45875 -29.1875 201.9375 C-29.21481201 199.35929443 -29.24212402 196.78108887 -29.27026367 194.12475586 C-29.38943386 175.03864723 -28.79796202 156.44996069 -14.921875 141.68359375 C-7.85878523 135.49621227 0.27627727 132.73021022 9.5859375 132.8046875 C10.28772125 132.8075174 10.989505 132.81034729 11.71255493 132.81326294 C13.93355028 132.82437488 16.15412845 132.84946166 18.375 132.875 C19.88931705 132.88504146 21.40364049 132.89416527 22.91796875 132.90234375 C26.61226556 132.92257539 30.30567095 132.96173882 34 133 C33.67 123.76 33.34 114.52 33 105 C27.14757365 104.34973041 21.58373769 103.83251262 15.73828125 103.796875 C14.98516159 103.79117493 14.23204193 103.78547485 13.45610046 103.77960205 C11.87382374 103.77023263 10.29152821 103.76365056 8.70922852 103.75976562 C6.33508827 103.75009204 3.96182761 103.71900481 1.58789062 103.6875 C-15.54512193 103.56812058 -32.69503855 106.31477299 -46 118 C-46.59296875 118.50015625 -47.1859375 119.0003125 -47.796875 119.515625 C-55.47214347 126.51166617 -59.85084264 135.5038316 -62.8125 145.3125 C-63.00730957 145.9504248 -63.20211914 146.58834961 -63.40283203 147.24560547 C-67.90227047 163.42376253 -67.4119256 180.27696074 -67.60089111 196.91656494 C-67.64144747 200.31621454 -67.69220271 203.71571249 -67.7421875 207.11523438 C-67.83892 213.74342622 -67.91908699 220.37152139 -68 227 C-85.16 227 -102.32 227 -120 227 C-120 238.22 -120 249.44 -120 261 C-102.84 261 -85.68 261 -68 261 C-68 318.75 -68 376.5 -68 436 C-119.39236513 427.77722158 -163.35193933 410.53496741 -201 374 C-201.54253418 373.48324707 -202.08506836 372.96649414 -202.64404297 372.43408203 C-210.92430493 364.54245073 -218.28906112 356.2657926 -225 347 C-225.47260254 346.34999023 -225.94520508 345.69998047 -226.43212891 345.03027344 C-245.19147615 318.88619484 -257.76876917 289.53040223 -264 258 C-264.24339111 256.87682373 -264.24339111 256.87682373 -264.49169922 255.73095703 C-270.33101161 228.24581375 -269.0590018 196.30782654 -263 169 C-262.81808105 168.15614746 -262.63616211 167.31229492 -262.44873047 166.44287109 C-255.44459377 134.87731134 -241.1258532 105.25930562 -221 80 C-220.21625 79.01128906 -219.4325 78.02257812 -218.625 77.00390625 C-206.80441162 62.42242198 -193.30452379 48.89849007 -178 38 C-177.35724121 37.53464844 -176.71448242 37.06929687 -176.05224609 36.58984375 C-149.90250553 17.8175964 -120.54287592 5.23369595 -89 -1 C-87.87682373 -1.24339111 -87.87682373 -1.24339111 -86.73095703 -1.49169922 C-59.24581375 -7.33101161 -27.30782654 -6.0590018 0 0 Z M-187.22924805 73.82421875 C-216.95881004 103.16108716 -236.8960034 140.72996856 -244 182 C-244.17587646 182.97791504 -244.35175293 183.95583008 -244.53295898 184.96337891 C-246.17646881 195.03490066 -246.35818197 204.94109721 -246.3125 215.125 C-246.31034485 215.98883301 -246.3081897 216.85266602 -246.30596924 217.74267578 C-246.2553169 230.38877831 -245.87655562 242.6357214 -243 255 C-242.80132324 255.89460937 -242.60264648 256.78921875 -242.39794922 257.7109375 C-236.49161176 283.83154902 -225.97161791 309.35226836 -210 331 C-209.42161377 331.78818115 -209.42161377 331.78818115 -208.83154297 332.59228516 C-198.50973075 346.53464653 -186.831401 359.48174844 -173 370 C-172.05511719 370.77214844 -171.11023438 371.54429687 -170.13671875 372.33984375 C-146.57653206 391.2897779 -118.58913533 404.08217293 -89 410 C-89 367.76 -89 325.52 -89 282 C-106.16 282 -123.32 282 -141 282 C-141 256.92 -141 231.84 -141 206 C-123.84 206 -106.68 206 -89 206 C-88.8453125 197.275625 -88.8453125 197.275625 -88.6875 188.375 C-87.93609966 157.34084783 -85.24653262 126.21401999 -62 103 C-45.6842464 89.52447288 -25.56884553 82.86564244 -4.5234375 82.83203125 C-3.72366486 82.82793243 -2.92389221 82.82383362 -2.09988403 82.8196106 C0.47512162 82.81009883 3.04997941 82.81007537 5.625 82.8125 C6.49938721 82.81210724 7.37377441 82.81171448 8.2746582 82.81130981 C23.725157 82.8196505 38.69633554 83.81376222 54 86 C54.33 108.11 54.66 130.22 55 153 C33.5625 152.875 33.5625 152.875 26.84985352 152.81982422 C25.06787355 152.8139757 23.28589088 152.808881 21.50390625 152.8046875 C20.14791321 152.7893396 20.14791321 152.7893396 18.76452637 152.77368164 C8.1870294 152.73070005 8.1870294 152.73070005 -0.8125 157.5 C-10.9170414 171.76523491 -8 189.32184148 -8 206 C13.12 206 34.24 206 56 206 C55.2059375 211.15109375 54.411875 216.3021875 53.59375 221.609375 C53.09211817 224.87234592 52.59066301 228.13534202 52.08984375 231.3984375 C51.294858 236.57806705 50.49921918 241.75759037 49.69970703 246.93652344 C49.05518739 251.11174522 48.41358385 255.2874056 47.77400208 259.46338654 C47.52944299 261.05674466 47.28383251 262.64994177 47.03715515 264.24297333 C46.69190954 266.47373993 46.350402 268.70504903 46.00976562 270.93652344 C45.7166449 272.84180817 45.7166449 272.84180817 45.41760254 274.7855835 C44.91411145 278.12087263 44.91411145 278.12087263 45 282 C27.51 282 10.02 282 -8 282 C-8 324.57 -8 367.14 -8 411 C38.4674518 399.38313705 78.91629512 377.9123613 109 340 C109.81855469 338.98679687 110.63710938 337.97359375 111.48046875 336.9296875 C142.5847449 297.96023995 157.33867287 245.48611381 152 196 C147.17042022 156.75966431 132.84333365 119.25310883 107 89 C106.3503125 88.23945312 105.700625 87.47890625 105.03125 86.6953125 C102.73491687 84.0819483 100.38341127 81.53434895 98 79 C97.4755127 78.44151367 96.95102539 77.88302734 96.41064453 77.30761719 C67.09605282 46.35287365 28.88438583 26.60104624 -13 19 C-14.72283203 18.68095703 -14.72283203 18.68095703 -16.48046875 18.35546875 C-78.89528747 8.18470697 -142.18817684 30.33938091 -187.22924805 73.82421875 Z " fill="#FFFFFF" transform="translate(297,34)"/>
</svg>
