<?xml version="1.0" encoding="UTF-8"?>
<svg version="1.1" xmlns="http://www.w3.org/2000/svg" width="500" height="500">
<path d="M0 0 C2.0585568 -0.00571592 4.11711043 -0.01268485 6.17565918 -0.02079773 C11.72137868 -0.03861157 17.26693892 -0.03758279 22.81267834 -0.03185534 C27.46414184 -0.02874563 32.11557553 -0.0348758 36.76703477 -0.04089409 C47.75291863 -0.05489977 58.73872467 -0.05341175 69.72460938 -0.04199219 C81.00812663 -0.03052146 92.2914059 -0.0445783 103.57489181 -0.07138866 C113.30794742 -0.0936379 123.04092883 -0.10016216 132.77400804 -0.09431225 C138.56704554 -0.09096267 144.35993067 -0.09322313 150.15294647 -0.11056328 C155.6065761 -0.12617764 161.05985694 -0.12191829 166.51347351 -0.10325813 C168.49820648 -0.09961164 170.48296614 -0.10256331 172.46767426 -0.11314392 C188.97635808 -0.19433336 205.37234867 1.517728 220.85253906 7.65405273 C222.01088257 8.099021 222.01088257 8.099021 223.19262695 8.55297852 C240.04782649 15.21452273 253.84895518 24.977018 267.04003906 37.40405273 C267.70390625 38.0034668 268.36777344 38.60288086 269.05175781 39.22045898 C293.76723054 62.43194757 304.56086306 96.36491039 306.04003906 129.40405273 C306.20897802 135.42287119 306.18738102 141.44417772 306.18530273 147.46484375 C306.18830315 149.22444224 306.19170767 150.98404008 306.19548035 152.74363708 C306.20423586 157.47961571 306.20665489 162.21557622 306.20729613 166.95156217 C306.20801158 169.92360635 306.21015519 172.89564607 306.21279335 175.86768913 C306.22201958 186.27377485 306.22613175 196.67984783 306.2253418 207.0859375 C306.22474209 216.72485998 306.23527999 226.3637263 306.25108546 236.00263458 C306.26424225 244.32848003 306.26952229 252.6543073 306.26888639 260.98016304 C306.26863374 265.93039968 306.2713541 270.88058634 306.28206444 275.83081245 C306.37985744 324.53747352 302.49576857 367.56792803 266.79003906 404.09155273 C252.87716894 417.83672308 236.3848198 427.64579091 218.04003906 434.27905273 C217.29471924 434.55330078 216.54939941 434.82754883 215.78149414 435.11010742 C200.78952156 440.22552034 185.64433447 440.8479204 169.96655273 440.80810547 C167.90784844 440.81382258 165.8491473 440.82079197 163.79045105 440.8289032 C158.24892278 440.84670266 152.70755401 440.84569118 147.16600585 440.83996081 C142.51697751 440.83684937 137.86797894 440.84298308 133.21895486 440.84899956 C122.23928733 440.86300015 111.25969767 440.86152115 100.2800293 440.85009766 C89.00387563 440.83862397 77.72796003 440.85268992 66.45183772 440.87949413 C56.72300819 440.90174288 46.99425288 440.90826784 37.26539975 440.90241772 C31.47573057 440.89906845 25.68621385 440.90132669 19.89656639 440.91866875 C14.44702729 440.93428267 8.99783726 440.93002425 3.54831123 440.9113636 C1.56518998 440.90771717 -0.417958 440.91066859 -2.40105438 440.92124939 C-18.90477905 441.00248242 -35.29708306 439.28846979 -50.77246094 433.15405273 C-51.93080444 432.70908447 -51.93080444 432.70908447 -53.11254883 432.25512695 C-69.96774837 425.59358274 -83.76887706 415.83108747 -96.95996094 403.40405273 C-97.62382813 402.80463867 -98.28769531 402.20522461 -98.97167969 401.58764648 C-113.01772054 388.39633428 -122.67945658 370.92128061 -128.83496094 352.84155273 C-129.10920898 352.04023926 -129.38345703 351.23892578 -129.66601562 350.41333008 C-134.47130125 335.43337446 -135.40353231 321.03554855 -135.36401367 305.4440918 C-135.36972959 303.385535 -135.37669853 301.32698136 -135.3848114 299.26843262 C-135.40262524 293.72271312 -135.40159647 288.17715287 -135.39586902 282.63141346 C-135.3927593 277.97994996 -135.39888947 273.32851626 -135.40490776 268.67705703 C-135.41891344 257.69117317 -135.41742542 246.70536713 -135.40600586 235.71948242 C-135.39453513 224.43596517 -135.40859197 213.1526859 -135.43540233 201.86919999 C-135.45765158 192.13614438 -135.46417583 182.40316296 -135.45832592 172.67008376 C-135.45497635 166.87704626 -135.4572368 161.08416112 -135.47457695 155.29114532 C-135.49019132 149.83751569 -135.48593196 144.38423486 -135.4672718 138.93061829 C-135.46362532 136.94588532 -135.46657699 134.96112566 -135.47715759 132.97641754 C-135.55834703 116.46773372 -133.84628567 100.07174313 -127.70996094 84.59155273 C-127.41331543 83.81932373 -127.11666992 83.04709473 -126.81103516 82.25146484 C-120.14949095 65.3962653 -110.38699567 51.59513662 -97.95996094 38.40405273 C-97.36054687 37.74018555 -96.76113281 37.07631836 -96.14355469 36.39233398 C-82.95224248 22.34629313 -65.47718882 12.68455709 -47.39746094 6.52905273 C-46.59614746 6.25480469 -45.79483398 5.98055664 -44.96923828 5.69799805 C-29.98928266 0.89271242 -15.59145676 -0.03951863 0 0 Z M-16.64779663 21.31376648 C-17.46443869 21.39391615 -18.28108075 21.47406582 -19.12246954 21.55664426 C-44.53141518 24.28180616 -66.10669383 36.60245934 -83.95996094 54.40405273 C-84.73726562 55.1581543 -85.51457031 55.91225586 -86.31542969 56.68920898 C-103.66436862 74.59085747 -114.12803839 100.205686 -114.10040283 125.04138184 C-114.10337395 125.88615821 -114.10634508 126.73093459 -114.10940623 127.60131025 C-114.11804576 130.41903147 -114.11959746 133.23670997 -114.12109375 136.05444336 C-114.12572538 138.08037404 -114.13075051 140.10630386 -114.13613892 142.13223267 C-114.14923393 147.62851747 -114.15570252 153.12479007 -114.16014957 158.62108803 C-114.16308572 162.06005135 -114.16719161 165.49901137 -114.17165375 168.93797302 C-114.18532268 179.71227391 -114.1949916 190.48656722 -114.19885564 201.26087618 C-114.20333135 213.67051521 -114.22085922 226.08004382 -114.24985623 238.4896493 C-114.27152586 248.09928945 -114.28156278 257.70889867 -114.28289676 267.31856298 C-114.28394124 273.04952083 -114.28977263 278.78037479 -114.30771637 284.51130676 C-114.32428795 289.90892297 -114.32630872 295.30635823 -114.31757736 300.70399094 C-114.31681176 302.67469648 -114.32108602 304.64541211 -114.33103561 306.61609268 C-114.48258456 338.52890862 -103.95434169 364.99718881 -81.95996094 388.40405273 C-81.43273437 389.00733398 -80.90550781 389.61061523 -80.36230469 390.23217773 C-62.22269143 410.08832729 -32.96232826 419.00870228 -6.95996094 420.40405273 C-0.94003038 420.57847209 5.08310251 420.55135619 11.10498047 420.54931641 C12.88885569 420.55231515 14.67273026 420.55571931 16.456604 420.55949402 C21.26687737 420.56826619 26.07713291 420.57066927 30.8874135 420.5713098 C33.90331103 420.57202426 36.91920413 420.57416603 39.93510056 420.57680702 C50.48684727 420.58603855 61.03858141 420.59014473 71.59033203 420.58935547 C81.37696178 420.58875552 91.16353626 420.59929677 100.95015204 420.61509913 C109.39310671 420.62823892 117.83604347 420.63353667 126.27900827 420.63290006 C131.30351421 420.63264693 136.32797097 420.63539478 141.35246658 420.64607811 C146.08532202 420.65586805 150.81808237 420.65576491 155.55094147 420.64856148 C157.27163459 420.64752897 158.99233398 420.64979739 160.71301651 420.65592194 C196.92998542 420.77631189 227.40709281 412.60649358 254.04003906 386.84155273 C277.89131544 363.00933299 285.13150708 331.09844183 285.18667603 298.45880127 C285.18632666 296.81872556 285.18586521 295.17864987 285.18530273 293.53857422 C285.18830162 291.77602569 285.19170581 290.01347782 285.19548035 288.25093079 C285.20425175 283.49843963 285.20665559 278.74596652 285.20729613 273.99346805 C285.20801071 271.01307476 285.21015271 268.03268595 285.21279335 265.05229378 C285.2220251 254.62258746 285.22613109 244.19289386 285.2253418 233.76318359 C285.22474206 224.09358912 285.23527912 214.42405062 285.25108546 204.75447029 C285.26423185 196.41001294 285.26952271 188.06557372 285.26888639 179.72110611 C285.26863342 174.7563718 285.27137191 169.79168727 285.28206444 164.82696342 C285.29186547 160.14909651 285.29174395 155.47132576 285.28454781 150.79345512 C285.28351659 149.09414527 285.28577562 147.39482904 285.29190826 145.69552994 C285.32239445 136.64903496 285.01508885 127.72258453 284.13032532 118.71522522 C284.01010082 117.49035185 284.01010082 117.49035185 283.88744754 116.24073356 C281.28811208 92.00756137 269.89246504 70.71692751 253.04003906 53.40405273 C252.38390625 52.69764648 251.72777344 51.99124023 251.05175781 51.26342773 C246.20314912 46.17190278 240.96644089 42.17090341 235.04003906 38.40405273 C233.47962891 37.41211914 233.47962891 37.41211914 231.88769531 36.40014648 C208.95899587 22.55888118 184.33742303 20.24975682 158.06103516 20.25878906 C156.29833913 20.25578944 154.53564376 20.2523851 152.77294922 20.24861145 C148.02464937 20.23984831 143.27636759 20.23743659 138.52806044 20.23679566 C135.54983938 20.23608071 132.5716228 20.23393802 129.59340286 20.23129845 C119.17017581 20.22207002 108.74696147 20.21796036 98.32373047 20.21875 C88.66149961 20.21934992 78.99932473 20.20880845 69.33710802 20.19300634 C60.99687675 20.17986028 52.65666363 20.17456906 44.3164221 20.17520541 C39.35505613 20.17545835 34.39373999 20.17272128 29.43238449 20.16202736 C24.75860818 20.15222663 20.08492811 20.15234765 15.41114807 20.15954399 C13.71344993 20.16057519 12.0157454 20.15831632 10.31805801 20.15218353 C1.27637647 20.12168367 -7.64523317 20.42950132 -16.64779663 21.31376648 Z " fill="#FFFFFF" transform="translate(164.9599609375,29.595947265625)"/>
<path d="M0 0 C0.65880157 0.00054382 1.31760315 0.00108765 1.99636841 0.00164795 C12.95238411 0.04311848 23.02808484 0.92633618 33.4375 4.375 C34.07606934 4.58398926 34.71463867 4.79297852 35.37255859 5.00830078 C64.02610362 14.73433246 86.96381086 34.91929528 100.35009766 62.04101562 C113.55331228 89.86591287 114.45833301 120.48186822 104.3828125 149.40234375 C93.36212763 177.71410315 72.5746977 199.44493947 44.98242188 212.05224609 C30.5923575 218.36006568 16.50692454 220.77185311 0.875 220.75 C0.21619843 220.74945618 -0.44260315 220.74891235 -1.12136841 220.74835205 C-12.07738411 220.70688152 -22.15308484 219.82366382 -32.5625 216.375 C-33.520354 216.06151611 -33.520354 216.06151611 -34.49755859 215.74169922 C-63.15110362 206.01566754 -86.08881086 185.83070472 -99.47509766 158.70898438 C-106.84674945 143.1737182 -109.96144652 127.94187782 -109.9375 110.8125 C-109.93695618 110.15369843 -109.93641235 109.49489685 -109.93585205 108.81613159 C-109.89438152 97.86011589 -109.01116382 87.78441516 -105.5625 77.375 C-105.35351074 76.73643066 -105.14452148 76.09786133 -104.92919922 75.43994141 C-95.20316754 46.78639638 -75.01820472 23.84868914 -47.89648438 10.46240234 C-32.3612182 3.09075055 -17.12937782 -0.02394652 0 0 Z M-64.25 47.625 C-83.6051498 68.13568113 -89.5279864 92.72349826 -88.74609375 120.21484375 C-88.35459144 126.95368133 -86.79220767 133.00859785 -84.5625 139.375 C-84.211875 140.41140625 -83.86125 141.4478125 -83.5 142.515625 C-74.92101361 165.27376944 -57.31137433 182.50291045 -35.48828125 192.65234375 C-13.3008375 202.55333641 10.8058847 202.37639629 33.3828125 194 C54.52332031 185.71956091 72.0160026 169.27353887 81.8125 148.8125 C92.1557083 124.53225679 92.95466794 99.89234529 83.234375 75.29931641 C74.41310932 53.99747324 56.7658585 36.61221624 35.625 27.6171875 C34.573125 27.20726562 33.52125 26.79734375 32.4375 26.375 C31.4475 25.98570312 30.4575 25.59640625 29.4375 25.1953125 C-4.0833206 13.48012775 -38.89728309 24.06188664 -64.25 47.625 Z " fill="#FFFFFF" transform="translate(249.5625,139.625)"/>
<path d="M0 0 C5.5892398 3.45163319 9.02364638 7.40399301 10.7578125 13.8359375 C11.90637624 20.3572272 10.63023659 26.09800787 7.046875 31.64453125 C3.30853871 36.3389363 -0.09515972 38.52497228 -6.01171875 39.34375 C-13.1305143 39.68857863 -18.34447486 39.19140371 -23.98828125 34.640625 C-29.08369757 29.63479842 -30.03494232 26.05750776 -30.390625 19.01953125 C-30.17838344 12.13997715 -28.58962241 7.80486419 -23.765625 2.89453125 C-17.29271618 -2.6344117 -7.84970384 -3.13766411 0 0 Z " fill="#FFFFFF" transform="translate(379.765625,111.10546875)"/>
</svg>
