<?xml version="1.0" encoding="UTF-8"?>
<svg version="1.1" xmlns="http://www.w3.org/2000/svg" width="512" height="512">
<path d="M0 0 C0.74698179 -0.00265183 1.49396358 -0.00530365 2.26358119 -0.00803584 C4.78067094 -0.0157295 7.29771192 -0.01628804 9.81481266 -0.01688576 C11.63216259 -0.02090035 13.44951163 -0.02533857 15.26685959 -0.03016531 C20.27221919 -0.04213726 25.27756915 -0.04778072 30.28294027 -0.05234647 C35.6771768 -0.05830028 41.07140178 -0.06991075 46.46563053 -0.08063698 C59.4993609 -0.10516713 72.5330951 -0.11978959 85.56684145 -0.13269705 C89.24805315 -0.13640871 92.92926446 -0.14038197 96.61047578 -0.14444971 C119.46869421 -0.16968734 142.32691323 -0.19174121 165.18514252 -0.20417786 C170.48064965 -0.20710757 175.77615677 -0.21006923 181.07166386 -0.21308327 C182.38784354 -0.21382932 183.70402323 -0.21457537 185.06008715 -0.21534403 C206.37770006 -0.22799552 227.69521259 -0.26121535 249.01278996 -0.3028851 C270.89793009 -0.34531362 292.78302751 -0.36887401 314.66820866 -0.37409842 C326.95633484 -0.37751162 339.24433065 -0.38925614 351.53241634 -0.42220116 C361.99859391 -0.45021543 372.46461439 -0.4611949 382.93082654 -0.4500057 C388.26916785 -0.44482253 393.60718024 -0.44768392 398.94547367 -0.47247124 C403.83808051 -0.494999 408.73012283 -0.49419628 413.6227398 -0.47526737 C415.387316 -0.47247231 417.15193077 -0.47803823 418.91644507 -0.4930803 C434.69485853 -0.61930104 446.57050812 2.60746298 458.31311893 13.71904564 C464.95742457 20.75721476 469.75226384 30.39190821 469.77825832 40.12193012 C469.78333287 41.13206195 469.78840741 42.14219377 469.79363573 43.18293566 C469.79438236 44.84471978 469.79438236 44.84471978 469.79514408 46.5400753 C469.79952634 47.71855083 469.80390859 48.89702636 469.80842364 50.11121327 C469.819481 53.38353847 469.82603385 56.6558367 469.83060479 59.92817628 C469.8365672 63.45736808 469.84817562 66.98654233 469.8588953 70.51572227 C469.88340735 79.04069636 469.89804607 87.56567625 469.91095537 96.09067473 C469.91466862 98.49979119 469.91864175 100.90890708 469.92270803 103.31802297 C469.94794933 118.2873081 469.96999639 133.25659417 469.98243618 148.22589588 C469.98536575 151.69260664 469.98832743 155.15931737 469.99134159 158.62602806 C469.99208764 159.4876343 469.99283369 160.34924055 469.99360235 161.23695607 C470.00624579 175.182746 470.03945564 189.12840815 470.08114342 203.0741384 C470.12362048 217.40175587 470.14713799 231.72930804 470.15235674 246.0569883 C470.15576466 254.09740179 470.16744624 262.1376157 470.20045948 270.17796707 C470.22854083 277.02830343 470.23942414 283.87839929 470.22826402 290.72878873 C470.22309758 294.22015371 470.2258309 297.71101572 470.25072956 301.20230675 C470.2734868 304.99898627 470.26509343 308.79441325 470.24924564 312.59110069 C470.26312773 313.67888028 470.27700982 314.76665987 470.29131258 315.88740247 C470.15668681 329.04954555 464.9679346 339.39424005 456.05921268 348.80888939 C448.05664871 356.36362132 438.12901678 360.29272467 427.28248787 360.27402878 C426.53550608 360.2766806 425.78852429 360.27933243 425.01890668 360.28206462 C422.50181692 360.28975827 419.98477595 360.29031682 417.46767521 360.29091454 C415.65032528 360.29492913 413.83297624 360.29936734 412.01562828 360.30419409 C407.01026868 360.31616603 402.00491872 360.3218095 396.9995476 360.32637525 C391.60531107 360.33232905 386.21108609 360.34393953 380.81685734 360.35466576 C367.78312697 360.37919591 354.74939277 360.39381837 341.71564642 360.40672582 C338.03443472 360.41043749 334.35322341 360.41441075 330.67201209 360.41847849 C307.81379366 360.44371612 284.95557464 360.46576999 262.09734535 360.47820663 C256.80183822 360.48113635 251.5063311 360.48409801 246.21082401 360.48711205 C244.23655448 360.48823112 244.23655448 360.48823112 242.22240072 360.4893728 C220.90478781 360.5020243 199.58727528 360.53524413 178.26969791 360.57691388 C156.38455778 360.61934239 134.49946036 360.64290279 112.61427921 360.6481272 C100.32615303 360.6515404 88.03815722 360.66328492 75.75007153 360.69622993 C65.28389396 360.72424421 54.81787348 360.73522368 44.35166133 360.72403447 C39.01332002 360.71885131 33.67530763 360.7217127 28.3370142 360.74650002 C23.44440736 360.76902778 18.55236504 360.76822506 13.65974807 360.74929614 C11.89517187 360.74650109 10.1305571 360.75206701 8.3660428 360.76710908 C-7.41237067 360.89332982 -19.28802025 357.6665658 -31.03063107 346.55498314 C-37.6749367 339.51681402 -42.46977597 329.88212057 -42.49577045 320.15209866 C-42.500845 319.14196683 -42.50591954 318.131835 -42.51114786 317.09109312 C-42.51164561 315.98323704 -42.51214337 314.87538096 -42.51265621 313.73395348 C-42.51703847 312.55547795 -42.52142072 311.37700242 -42.52593577 310.16281551 C-42.53699313 306.89049031 -42.54354598 303.61819208 -42.54811692 300.34585249 C-42.55407933 296.8166607 -42.56568775 293.28748645 -42.57640743 289.7583065 C-42.60091948 281.23333242 -42.61555821 272.70835253 -42.6284675 264.18335405 C-42.63218075 261.77423759 -42.63615388 259.3651217 -42.64022017 256.95600581 C-42.66546146 241.98672068 -42.68750852 227.01743461 -42.69994831 212.0481329 C-42.70287788 208.58142214 -42.70583956 205.11471141 -42.70885372 201.64800072 C-42.70959977 200.78639448 -42.71034582 199.92478823 -42.71111448 199.03707271 C-42.72375792 185.09128278 -42.75696777 171.14562063 -42.79865555 157.19989038 C-42.84113262 142.87227291 -42.86465012 128.54472074 -42.86986887 114.21704048 C-42.87327679 106.17662699 -42.88495837 98.13641307 -42.91797161 90.09606171 C-42.94605296 83.24572535 -42.95693628 76.39562949 -42.94577615 69.54524005 C-42.94060971 66.05387506 -42.94334303 62.56301306 -42.96824169 59.07172203 C-42.99099893 55.27504251 -42.98260556 51.47961553 -42.96675777 47.68292809 C-42.98063986 46.5951485 -42.99452195 45.50736891 -43.00882471 44.3866263 C-42.87419894 31.22448323 -37.68544673 20.87978872 -28.77672482 11.46513939 C-20.77416084 3.91040746 -10.84652891 -0.0186959 0 0 Z M10.64124393 30.13701439 C14.48486828 34.6212428 18.26812535 38.9093788 22.4340601 43.05681419 C22.98482169 43.60913578 23.53558328 44.16145736 24.10303462 44.73051596 C25.9290076 46.56044267 27.75849197 48.38681565 29.58802128 50.21318626 C30.90616535 51.53268689 32.22409692 52.85239982 33.54183292 54.17230797 C37.10774973 57.74276928 40.67680532 61.31007729 44.24658251 64.87667847 C47.9906094 68.6181658 51.73218692 72.36210131 55.47416019 76.10564232 C61.75852593 82.39182531 68.04499236 88.67590172 74.33265018 94.95879173 C81.58947815 102.2101803 88.84269994 109.46516098 96.09405458 116.72202253 C102.33189361 122.96440814 108.57169008 129.20483208 114.81310904 135.44363832 C118.53555572 139.16453043 122.25733408 142.88608427 125.97734547 146.60941124 C129.47661669 150.11158354 132.97834895 153.61127678 136.4819479 157.10911942 C137.76305643 158.38891222 139.04332689 159.66954463 140.32266903 160.95110321 C148.94646822 169.60738258 148.94646822 169.60738258 158.04646397 177.75667381 C160.82002288 180.15729082 163.31360045 182.82241753 165.83655643 185.48076439 C166.97623899 186.65745917 168.1168955 187.83321128 169.25843143 189.00810814 C171.01131996 190.81617115 172.75818645 192.62849785 174.48890018 194.45781517 C184.4046679 204.91285158 195.51970407 214.23389026 210.64124393 215.13701439 C224.14926245 215.39382082 235.34386331 210.94156475 245.14359379 201.72389793 C249.3768441 197.61637754 253.50768129 193.40689065 257.64124393 189.19951439 C259.50033746 187.31255385 261.360981 185.42718898 263.22474003 183.54483604 C264.37640904 182.38117048 265.52540363 181.21484867 266.67102909 180.04523277 C269.35774972 177.32566262 272.08638912 174.73356694 275.00794315 172.26733971 C281.3407165 166.74650701 287.1930971 160.7246032 293.12561893 154.78203392 C294.476329 153.43268068 295.82725132 152.08353988 297.17836857 150.73459435 C300.82680714 147.09069353 304.47210118 143.44366242 308.1166811 139.79590273 C311.9335084 135.97653653 315.75278293 132.15961876 319.57166386 128.34230614 C325.97539975 121.94038592 332.37703185 115.53636769 338.7774744 109.13115501 C346.18636021 101.71681147 353.59886358 94.30609922 361.0132246 86.89723122 C367.38035181 80.5346329 373.7455397 74.1700994 380.10909176 67.8039254 C383.90966681 64.00178842 387.7109213 60.20033735 391.5139246 56.40062904 C395.08173781 52.83569182 398.64712016 49.26834158 402.21059322 45.69906616 C403.52234687 44.38598414 404.83496354 43.07376366 406.14847851 41.76244354 C407.93263911 39.98099103 409.7137299 38.19652694 411.49402714 36.41121483 C412.28543158 35.62315647 412.28543158 35.62315647 413.09282398 34.81917775 C415.55432308 32.82002802 415.55432308 32.82002802 416.64124393 30.13701439 C282.66124393 30.13701439 148.68124393 30.13701439 10.64124393 30.13701439 Z M-12.35875607 53.13701439 C-12.35875607 136.95701439 -12.35875607 220.77701439 -12.35875607 307.13701439 C-7.32106537 303.35874637 -3.17103926 300.19890322 1.15894413 295.85982323 C1.90423665 295.11709398 1.90423665 295.11709398 2.66458559 294.3593601 C4.30285278 292.72434695 5.93393964 291.08236558 7.56507206 289.44023705 C8.74807302 288.25667108 9.93151625 287.07354703 11.11536503 285.89082909 C14.30936462 282.69740054 17.49718371 279.49786744 20.68388653 276.29715967 C24.02215015 272.94634718 27.36612305 269.60124202 30.70948124 266.25551414 C37.03144693 259.92734587 43.3482994 253.59409916 49.66330767 247.25898874 C56.85648504 240.04341427 64.05537936 232.83355504 71.25474739 225.62415814 C86.0565933 210.80143791 100.85128467 195.9715944 115.64124393 181.13701439 C114.09844929 177.47119545 111.88839339 175.13510091 109.08872318 172.33725548 C108.62305034 171.86916822 108.15737749 171.40108096 107.67759335 170.91880924 C106.11794906 169.35353518 104.55126701 167.79550395 102.98450565 166.23735619 C101.8637778 165.1155552 100.74348308 163.99332135 99.62358952 162.87068748 C96.58031703 159.82256592 93.53082695 156.78073519 90.48006296 153.74011397 C87.28409288 150.55293378 84.09340241 147.36047622 80.90201664 144.16870689 C75.5369205 138.80454764 70.16796509 133.44427591 64.79651737 128.08647728 C58.59942184 121.90507146 52.40753187 115.7184911 46.21864402 109.52886838 C39.61882957 102.92837625 33.01520334 96.33170776 26.41046858 89.73613954 C24.51428488 87.84208002 22.61880621 85.9473174 20.72348499 84.05239487 C17.73323473 81.06315555 14.74042397 78.07650238 11.74568462 75.09176064 C10.65165033 74.00062667 9.55843718 72.90866862 8.46614361 71.81579208 C-1.34902137 61.77647072 -1.34902137 61.77647072 -12.35875607 53.13701439 Z M436.85608768 54.85967064 C435.35583761 56.40109395 433.85583151 57.94275476 432.35608768 59.48467064 C430.33100234 61.46313532 428.30969899 63.29185963 426.15943241 65.122015 C420.74406604 69.84618595 415.70448806 74.94155933 410.63538456 80.02934837 C409.55068955 81.114326 408.46577322 82.19908239 407.38065434 83.28363609 C404.45749119 86.20651419 401.5374056 89.13244902 398.61789227 92.05897212 C395.55810372 95.1250431 392.49545306 98.18825251 389.43311405 101.25177574 C383.64440037 107.04358839 377.85823893 112.83794376 372.07300615 118.63323313 C365.48243069 125.23501444 358.88899057 131.83393155 352.2953167 138.43261802 C338.74078509 151.9975815 325.1898277 165.56611037 311.64124393 179.13701439 C313.19723273 182.85477677 315.47403774 185.22128498 318.30765629 188.05739403 C319.02454154 188.77895925 319.02454154 188.77895925 319.75590932 189.51510155 C321.35700441 191.12416729 322.96514552 192.72599748 324.57337284 194.32793236 C325.72364987 195.4809198 326.87350106 196.63433221 328.0229578 197.78813744 C331.1466982 200.92100215 334.27674074 204.04749882 337.40821218 207.17263365 C340.6879712 210.44732806 343.9628462 213.72690086 347.23850346 217.00569725 C352.74464334 222.51547748 358.25498974 228.02102441 363.76770878 233.52422142 C370.12997926 239.87562884 376.48504198 246.23417975 382.8363663 252.59653175 C388.29521504 258.06447722 393.75797795 263.52848925 399.22398794 268.98927605 C402.48586919 272.24804793 405.74640498 275.50813516 409.00341511 278.7717762 C412.07029007 281.84445792 415.14207278 284.91214976 418.21759892 287.97617149 C419.34154037 289.09748318 420.4638108 290.22047287 421.58421803 291.34531593 C423.12251197 292.8891343 424.66693225 294.42656871 426.21292973 295.96266747 C427.07313032 296.82211401 427.93333092 297.68156055 428.8195982 298.56705093 C432.2214254 301.66544542 435.96015917 304.37620081 439.64124393 307.13701439 C439.64124393 223.31701439 439.64124393 139.49701439 439.64124393 53.13701439 C438.34771055 53.02128143 438.34771055 53.02128143 436.85608768 54.85967064 Z M135.53968143 205.07842064 C134.29057987 206.37586205 134.29057987 206.37586205 133.01624393 207.69951439 C130.15288351 210.66675066 127.2831233 213.47145996 124.1422205 216.142416 C118.76650258 220.82791699 113.76184619 225.87623522 108.72718143 230.92168236 C107.65232948 231.99517665 106.57726548 233.06845867 105.50200748 234.14154625 C102.60561578 237.03341089 99.71235743 239.92839091 96.81982136 242.82411146 C93.78775841 245.85871797 90.75324311 248.89087065 87.71912479 251.92342186 C82.6335861 257.00714662 77.5501481 262.0929648 72.46790409 267.17998314 C66.58590371 273.06744516 60.70028189 278.95126846 54.81280613 284.83325469 C49.75352357 289.88800838 44.69618079 294.94469662 39.64047337 300.00302613 C36.62237672 303.02268416 33.60360269 306.04165667 30.58307743 309.05888557 C27.75067845 311.88840845 24.92071286 314.72034225 22.09265423 317.55420303 C21.05181013 318.59637526 20.01010326 319.6376866 18.96749783 320.67809677 C17.55118857 322.09169713 16.13822666 323.50864895 14.72547245 324.92580223 C13.93205952 325.71959219 13.13864658 326.51338215 12.32119083 327.33122635 C10.52772139 328.84797524 10.52772139 328.84797524 10.64124393 330.13701439 C144.62124393 330.13701439 278.60124393 330.13701439 416.64124393 330.13701439 C413.07034112 325.9709611 409.68023831 322.05086495 405.83548832 318.20427513 C404.46474407 316.82930115 404.46474407 316.82930115 403.06630802 315.42654991 C402.07131758 314.43350314 401.07627496 313.44050865 400.08118534 312.44756126 C399.01919598 311.38421463 397.95741898 310.32065587 396.89583683 309.25690269 C394.02824007 306.38476984 391.15751647 303.51578192 388.28606176 300.64750671 C385.27074019 297.63472923 382.25787329 294.61949855 379.24460697 291.60466576 C374.18428005 286.54252283 369.12185608 281.48248426 364.05823612 276.42363548 C358.21922892 270.59006685 352.38382872 264.75290868 346.55029452 258.91386747 C341.52688479 253.88590689 336.50151281 248.85991381 331.47452199 243.83553362 C328.47866377 240.84122771 325.48346925 237.84626629 322.49004841 234.84952354 C319.67366501 232.03023281 316.85481086 229.21343516 314.03410244 226.39847183 C313.00455452 225.37023637 311.97583834 224.34116725 310.94805813 223.31116486 C305.85685429 218.20997659 300.74173463 213.20721239 295.25503445 208.53050041 C293.28327148 206.82791008 291.4449135 205.01583685 289.64124393 203.13701439 C286.12058056 204.63230178 283.93713707 206.64588705 281.29749393 209.39092064 C280.46951298 210.24146019 279.64153202 211.09199974 278.78846073 211.96831322 C277.91487919 212.8696096 277.04129765 213.77090599 276.14124393 214.69951439 C259.45765415 231.58592604 242.09087829 243.64563189 217.64124393 245.13701439 C216.99542362 245.18986595 216.34960331 245.24271751 215.68421268 245.29717064 C203.36529844 245.83892021 190.56691798 242.64537505 179.64124393 237.13701439 C178.69249393 236.6793972 177.74374393 236.22178001 176.76624393 235.75029564 C165.83539825 229.97962312 157.48418145 221.03292461 148.86780643 212.34013939 C148.27153446 211.73895287 147.67526249 211.13776634 147.06092167 210.51836205 C145.92644131 209.36805173 144.79807974 208.21166692 143.67664433 207.04863548 C142.3676974 205.70843826 141.0087903 204.41736106 139.64124393 203.13701439 C137.40924902 202.91082653 137.40924902 202.91082653 135.53968143 205.07842064 Z " fill="#FFFFFF" transform="translate(42.35875606536865,75.86298561096191)"/>
</svg>
