<?xml version="1.0" encoding="UTF-8"?>
<svg version="1.1" xmlns="http://www.w3.org/2000/svg" width="500" height="500">
<path d="M0 0 C1.99706314 -0.00240901 3.99412628 -0.00482113 5.99118912 -0.00746042 C12.25438322 -0.01550396 18.51756304 -0.01805444 24.78076172 -0.01733398 C30.39993163 -0.01680404 36.01903148 -0.02381178 41.63818359 -0.0378418 C68.7323527 -0.10387935 95.81672065 -0.15132106 122.890625 1.0546875 C124.24054346 1.1131079 124.24054346 1.1131079 125.617733 1.17270851 C166.86525069 3.02074525 166.86525069 3.02074525 180.09765625 16.9765625 C203.6022589 45.74428229 197.33482958 104.77174975 194.12158203 138.94628906 C192.2173016 156.62576614 189.24086459 176.79796573 174.58203125 188.63671875 C163.6322167 196.26074593 152.6067208 197.44431932 139.5703125 198.23046875 C138.41466797 198.30845703 137.25902344 198.38644531 136.06835938 198.46679688 C113.58787325 199.90071296 91.07941844 200.32882394 68.55859375 200.3359375 C66.07040897 200.33917157 63.58222436 200.342537 61.09403992 200.34602356 C55.91172854 200.35195022 50.72943366 200.35387051 45.54711914 200.35327148 C40.35014319 200.35319079 35.15325647 200.36005356 29.95629883 200.3737793 C3.41196853 200.44258212 -23.10875915 200.35882421 -49.63671875 199.34375 C-50.62163488 199.30907309 -51.60655102 199.27439617 -52.6213131 199.23866844 C-97.19926953 197.6150224 -97.19926953 197.6150224 -110.5859375 184.640625 C-125.01917448 167.0709346 -125.94149771 141.29612218 -125.91796875 119.59375 C-125.92187597 118.05266713 -125.92621461 116.5115853 -125.93095398 114.97050476 C-125.93834204 111.76456184 -125.93818043 108.55872917 -125.93286133 105.3527832 C-125.92823466 102.11338398 -125.93514069 98.87436057 -125.95336914 95.63500977 C-126.30104298 33.27898081 -126.30104298 33.27898081 -109.80859375 15.18359375 C-98.69822155 4.72151288 -85.87878068 3.02025582 -71.2421875 2.10546875 C-70.12585938 2.02748047 -69.00953125 1.94949219 -67.859375 1.86914062 C-45.2606443 0.37653887 -22.64137519 0.00659716 0 0 Z M-94.6171875 40.16796875 C-94.6171875 46.76796875 -94.6171875 53.36796875 -94.6171875 60.16796875 C-88.0171875 60.16796875 -81.4171875 60.16796875 -74.6171875 60.16796875 C-74.6171875 93.16796875 -74.6171875 126.16796875 -74.6171875 160.16796875 C-68.3471875 160.16796875 -62.0771875 160.16796875 -55.6171875 160.16796875 C-55.6171875 127.16796875 -55.6171875 94.16796875 -55.6171875 60.16796875 C-49.0171875 60.16796875 -42.4171875 60.16796875 -35.6171875 60.16796875 C-35.6171875 53.56796875 -35.6171875 46.96796875 -35.6171875 40.16796875 C-55.0871875 40.16796875 -74.5571875 40.16796875 -94.6171875 40.16796875 Z M35.3828125 40.16796875 C35.3828125 79.76796875 35.3828125 119.36796875 35.3828125 160.16796875 C41.6528125 160.16796875 47.9228125 160.16796875 54.3828125 160.16796875 C54.7128125 156.20796875 55.0428125 152.24796875 55.3828125 148.16796875 C56.3728125 149.24046875 57.3628125 150.31296875 58.3828125 151.41796875 C63.73958855 156.69974993 68.39296122 159.34810372 76.0078125 159.66796875 C82.20392899 159.41943849 85.3561278 157.25095025 89.6328125 152.85546875 C100.20053877 136.62646054 95.88677353 103.448634 92.3828125 85.16796875 C90.88560138 79.56283163 88.62270267 75.0938992 83.5625 71.98828125 C78.04361403 69.91128115 72.18398822 69.93376652 66.78515625 72.3125 C61.86615515 75.42485629 59.25432643 78.52215203 55.3828125 83.16796875 C55.0528125 68.97796875 54.7228125 54.78796875 54.3828125 40.16796875 C48.1128125 40.16796875 41.8428125 40.16796875 35.3828125 40.16796875 Z M-34.6171875 70.16796875 C-34.68509581 80.06934804 -34.74007992 89.97057141 -34.77262402 99.87213135 C-34.78824737 104.4703439 -34.80942452 109.06838818 -34.84350586 113.66650391 C-34.87621848 118.10799808 -34.89406554 122.54933088 -34.90181923 126.99093628 C-34.90734144 128.68133075 -34.91812484 130.37171688 -34.93437767 132.06204224 C-34.95631068 134.43868764 -34.95914789 136.81467514 -34.95776367 139.19140625 C-34.9685495 139.88265091 -34.97933533 140.57389557 -34.990448 141.28608704 C-34.95905229 146.3021554 -33.99293946 150.7532265 -31.6171875 155.16796875 C-27.83913388 158.44228189 -24.6273925 160.07161865 -19.6171875 160.16796875 C-9.47954989 158.49596255 -2.43233613 152.42008765 5.3828125 146.16796875 C5.3828125 150.78796875 5.3828125 155.40796875 5.3828125 160.16796875 C11.6528125 160.16796875 17.9228125 160.16796875 24.3828125 160.16796875 C24.3828125 130.46796875 24.3828125 100.76796875 24.3828125 70.16796875 C18.1128125 70.16796875 11.8428125 70.16796875 5.3828125 70.16796875 C5.37870361 72.0502417 5.37459473 73.93251465 5.37036133 75.87182617 C5.35094693 82.09860913 5.30861403 88.32490821 5.25072193 94.55144787 C5.21646525 98.32580155 5.19134415 102.09975108 5.18725586 105.87426758 C5.18296983 109.51861579 5.15448424 113.16205251 5.10938072 116.8061161 C5.09641504 118.19468179 5.09209483 119.58335661 5.09665871 120.97197533 C5.10157006 122.92044137 5.07258646 124.86890283 5.04223633 126.81713867 C5.03557449 127.92522385 5.02891266 129.03330902 5.02204895 130.17497253 C3.95875129 135.15348381 0.35801333 137.36613696 -3.4296875 140.48046875 C-6.6171875 142.16796875 -6.6171875 142.16796875 -14.6171875 142.16796875 C-15.1121875 106.52796875 -15.1121875 106.52796875 -15.6171875 70.16796875 C-21.8871875 70.16796875 -28.1571875 70.16796875 -34.6171875 70.16796875 Z M110.3828125 80.16796875 C107.34864965 85.14360558 105.27051354 89.90944828 105.22167969 95.7878418 C105.21207214 96.72278976 105.2024646 97.65773773 105.19256592 98.62101746 C105.18831604 99.63037857 105.18406616 100.63973969 105.1796875 101.6796875 C105.17398743 102.72187943 105.16828735 103.76407135 105.16241455 104.83784485 C105.15296322 107.04610173 105.14643005 109.25437273 105.14257812 111.46264648 C105.13290031 114.82496127 105.10188913 118.18665754 105.0703125 121.54882812 C105.06377944 123.69661096 105.05853016 125.84439816 105.0546875 127.9921875 C105.0423407 128.99142746 105.0299939 129.99066742 105.01727295 131.02018738 C105.04212872 138.89417122 106.25575552 145.75220942 111.83203125 151.7890625 C118.91961296 158.09111878 127.07122899 159.76266545 136.3828125 160.16796875 C145.01817494 159.6282586 152.86238037 157.26516461 158.7578125 150.73046875 C162.63457525 146.06319293 163.6401093 141.87497298 163.5078125 135.85546875 C163.4665625 133.97859375 163.4253125 132.10171875 163.3828125 130.16796875 C157.4428125 130.16796875 151.5028125 130.16796875 145.3828125 130.16796875 C145.1146875 132.08609375 144.8465625 134.00421875 144.5703125 135.98046875 C143.78446898 141.60227238 143.78446898 141.60227238 142.08203125 144 C138.86655508 146.21017787 135.20117449 146.30194636 131.3828125 146.16796875 C128.89222587 145.02644988 127.2932069 144.07836315 125.3828125 142.16796875 C125.22566596 140.53540117 125.13195836 138.89661537 125.06640625 137.2578125 C125.00924438 135.92157837 125.00924438 135.92157837 124.95092773 134.55834961 C124.90782471 133.41889893 124.86472168 132.27944824 124.8203125 131.10546875 C124.6759375 127.49609375 124.5315625 123.88671875 124.3828125 120.16796875 C137.5828125 120.16796875 150.7828125 120.16796875 164.3828125 120.16796875 C165.78656775 98.39663316 165.78656775 98.39663316 157.3828125 79.16796875 C149.29488883 71.69706194 141.27901677 70.60835897 130.59765625 70.8515625 C122.5768586 71.27784016 115.90626956 74.38148992 110.3828125 80.16796875 Z " fill="#FFFFFF" transform="translate(215.6171875,219.83203125)"/>
<path d="M0 0 C1.40251469 -0.00417941 2.80502599 -0.00966025 4.20753109 -0.01631981 C8.03837352 -0.0307136 11.8689997 -0.02654883 15.69985366 -0.019153 C19.84038902 -0.01440851 23.98087845 -0.02694248 28.12139893 -0.03717041 C36.22410715 -0.05433881 44.32673775 -0.05520248 52.42945944 -0.04995751 C59.01760828 -0.04591086 65.60573424 -0.04736524 72.19388199 -0.05270576 C73.60208686 -0.0538284 73.60208686 -0.0538284 75.03874031 -0.05497371 C76.9461162 -0.05650524 78.85349209 -0.05804359 80.76086797 -0.05958868 C98.63524049 -0.07330668 116.5095692 -0.06788099 134.38394071 -0.05640347 C150.72262064 -0.04647222 167.0611873 -0.05941112 183.39984976 -0.08333766 C200.19222034 -0.1077426 216.9845382 -0.11733307 233.77692616 -0.11068493 C243.19824017 -0.10719576 252.6194671 -0.10940479 262.04076767 -0.12693596 C270.06100686 -0.14167539 278.08109763 -0.14227066 286.10133396 -0.12486505 C290.18997103 -0.11636692 294.27834317 -0.11417623 298.36696625 -0.1295166 C302.11632495 -0.14340943 305.8651929 -0.13854229 309.61452354 -0.11927737 C311.59944856 -0.11376841 313.58439886 -0.12775047 315.56927574 -0.14263147 C329.95515866 -0.02517904 342.0671664 4.84720128 352.7204895 14.57518005 C365.58249553 28.3647346 367.12699921 44.67961129 367.10420227 62.6068573 C367.10646783 63.92027863 367.10873338 65.23369996 367.11106759 66.58692193 C367.11715582 70.21280294 367.11705553 73.83866078 367.11587322 77.46454573 C367.11566846 81.38287679 367.12119515 85.30120057 367.12593079 89.2195282 C367.13422151 96.88887802 367.13698491 104.55822015 367.13754316 112.22757408 C367.13801907 118.46437738 367.14007752 124.70117815 367.14324379 130.93798065 C367.152046 148.63763913 367.15666383 166.33729155 367.15591332 184.03695223 C367.15585338 185.46691504 367.15585338 185.46691504 367.15579224 186.92576599 C367.15575136 187.8802444 367.15571047 188.83472281 367.15566836 189.8181248 C367.15526199 205.28317855 367.16483022 220.74820795 367.1789306 236.21325466 C367.19330926 252.10948853 367.20019997 268.00571054 367.19933683 283.90195107 C367.19900538 292.81970769 367.20172972 301.73743877 367.21251488 310.65518951 C367.22163948 318.24828891 367.22377906 325.84135118 367.21700545 333.4344537 C367.21375015 337.30441196 367.21364761 341.17429908 367.2223587 345.04425049 C367.23172728 349.24974304 367.22542192 353.45507229 367.21772766 357.66056824 C367.22287122 358.86944757 367.22801479 360.07832691 367.23331422 361.32383895 C367.16093797 379.29652468 363.76334299 394.03415885 351.165802 407.28611755 C339.91117891 417.98034448 327.23904086 420.6908486 312.30174255 420.65510559 C310.90181887 420.6588448 309.50189727 420.6634474 308.10197896 420.66883624 C304.26440261 420.68104847 300.42691355 420.68080787 296.58932221 420.67844748 C292.44669579 420.67803886 288.30409718 420.68908286 284.16148376 420.69856262 C276.04835477 420.71516432 267.93525484 420.72067181 259.82211027 420.72178738 C253.22531223 420.72273834 246.62852376 420.72685102 240.03172874 420.73318863 C221.31910922 420.75079951 202.60651262 420.76002785 183.89388476 420.75852768 C182.38118277 420.75840781 182.38118277 420.75840781 180.83792114 420.75828552 C179.82821836 420.75820376 178.81851557 420.758122 177.77821573 420.75803776 C161.41994948 420.75722511 145.06177537 420.77635779 128.70353577 420.80456226 C111.89770523 420.83330922 95.0919196 420.84710152 78.28606385 420.8453747 C68.85463869 420.84471138 59.4233101 420.85017815 49.99190712 420.8717308 C41.96062344 420.88996655 33.92948008 420.89427038 25.89818463 420.88071196 C21.80348732 420.8741941 17.70905903 420.87402205 13.61438751 420.89141846 C9.85936666 420.90720717 6.10482683 420.90422711 2.3498173 420.88685019 C0.36176021 420.88235448 -1.62631215 420.89739207 -3.61431044 420.91332948 C-18.0075676 420.8033702 -30.12070203 415.93316774 -40.7795105 406.20018005 C-51.5721729 394.62920065 -54.4887648 381.66861484 -54.41719055 366.35816956 C-54.42136997 364.95565487 -54.4268508 363.55314357 -54.43351036 362.15063846 C-54.44790415 358.31979603 -54.44373938 354.48916986 -54.43634355 350.6583159 C-54.43159907 346.51778054 -54.44413303 342.3772911 -54.45436096 338.23677063 C-54.47152937 330.13406241 -54.47239303 322.0314318 -54.46714806 313.92871012 C-54.46310141 307.34056128 -54.46455579 300.75243532 -54.46989632 294.16428757 C-54.47064474 293.22548432 -54.47139316 292.28668107 -54.47216426 291.31942924 C-54.47369579 289.41205335 -54.47523414 287.50467747 -54.47677923 285.59730159 C-54.49049723 267.72292907 -54.48507154 249.84860036 -54.47359402 231.97422884 C-54.46366278 215.63554892 -54.47660167 199.29698226 -54.50052821 182.9583198 C-54.52493315 166.16594921 -54.53452362 149.37363135 -54.52787548 132.5812434 C-54.52438631 123.15992938 -54.52659534 113.73870246 -54.54412651 104.31740189 C-54.55886594 96.2971627 -54.55946121 88.27707193 -54.5420556 80.25683559 C-54.53355747 76.16819853 -54.53136678 72.07982639 -54.54670715 67.99120331 C-54.56059998 64.24184461 -54.55573285 60.49297665 -54.53646792 56.74364601 C-54.53095896 54.75872099 -54.54494102 52.7737707 -54.55982202 50.78889382 C-54.44236959 36.4030109 -49.56998928 24.29100315 -39.8420105 13.63768005 C-28.27103109 2.84501765 -15.31044529 -0.07157425 0 0 Z M-28.26779175 32.77830505 C-33.50093763 40.52939474 -33.46016643 47.88676353 -33.41719055 56.96908569 C-33.42136757 58.34726363 -33.42684711 59.72543813 -33.43351036 61.10360628 C-33.44793542 64.87635063 -33.44372953 68.64887598 -33.43634355 72.42163217 C-33.4316069 76.4960238 -33.44412609 80.57036839 -33.45436096 84.64474487 C-33.47154432 92.62105606 -33.47238997 100.59728845 -33.46714806 108.57361334 C-33.46310441 115.05743088 -33.46455223 121.54122515 -33.46989632 128.02504158 C-33.47064474 128.94832981 -33.47139316 129.87161804 -33.47216426 130.8228847 C-33.47369576 132.69861885 -33.47523411 134.574353 -33.47677923 136.45008714 C-33.49050249 154.03440921 -33.48506771 171.61868677 -33.47359402 189.20300782 C-33.46366089 205.28518122 -33.47660399 221.36723958 -33.50052821 237.44939523 C-33.52491827 253.96935522 -33.53452737 270.48926162 -33.52787548 287.00923926 C-33.52438318 296.28125801 -33.52661615 305.55318828 -33.54412651 314.82519341 C-33.55884727 322.71784136 -33.55948554 330.61033851 -33.5420556 338.5029835 C-33.53354234 342.52845321 -33.53140389 346.55365352 -33.54670715 350.57910919 C-33.56055463 354.26733017 -33.55579081 357.95505097 -33.53646792 361.64324302 C-33.53093247 363.60264456 -33.54497895 365.56207157 -33.55982202 367.52142471 C-33.47379688 377.83326684 -31.01625315 385.09575121 -23.943573 392.6650238 C-15.04724094 400.67172266 -3.12280066 400.68348476 8.19639587 400.64837646 C9.51052277 400.65220201 10.82464966 400.65602756 12.17859858 400.65996903 C15.8064342 400.67021418 19.4341706 400.66807614 23.06201422 400.66378844 C26.98237832 400.66131484 30.90271893 400.67034326 34.82307434 400.67782593 C42.49610672 400.69055766 50.16910408 400.6923685 57.84214524 400.69002566 C64.08134366 400.68824053 70.32053147 400.68999634 76.55972862 400.69425011 C77.89320198 400.69514289 77.89320198 400.69514289 79.25361418 400.69605371 C81.0597656 400.6972655 82.86591702 400.69847963 84.67206844 400.69969609 C101.60027215 400.71056588 118.52845594 400.70841187 135.45666077 400.70231124 C150.9288713 400.69714337 166.40101884 400.70839511 181.8732169 400.72740946 C197.77510023 400.74680144 213.67695379 400.75504142 229.57884902 400.75128621 C238.50049677 400.74937613 247.42209093 400.75184283 256.34372902 400.76600075 C263.93943597 400.7779329 271.53505634 400.77929895 279.13076452 400.76721058 C283.00265445 400.76133457 286.87438616 400.76018685 290.74626541 400.77221298 C294.95217884 400.78512428 299.15771807 400.77457696 303.3636322 400.76190186 C304.57542438 400.76927614 305.78721655 400.77665043 307.03572971 400.78424817 C318.13751659 400.71406764 328.79487478 399.50854735 336.9704895 391.38768005 C346.06781184 381.214112 346.12078777 370.50836026 346.10420227 357.4647522 C346.10646783 356.15909013 346.10873338 354.85342806 346.11106759 353.50820047 C346.11717054 349.89481206 346.11705378 346.28144684 346.11587322 342.66805446 C346.11566883 338.76678734 346.12119158 334.86552759 346.12593079 330.96426392 C346.13422956 323.32505757 346.13698527 315.68585894 346.13754316 308.04664847 C346.13801868 301.83599199 346.14007518 295.62533806 346.14324379 289.41468239 C346.15204812 271.79868568 346.15666349 254.18269506 346.15591332 236.56669613 C346.15587336 235.6174426 346.1558334 234.66818907 346.15579224 233.69017029 C346.15575136 232.73975518 346.15571047 231.78934006 346.15566836 230.81012449 C346.15526191 215.40758212 346.16483165 200.00506419 346.1789306 184.60252889 C346.19329966 168.77982362 346.2002005 152.95713027 346.19933683 137.13441831 C346.19900505 128.25417473 346.20174376 119.37395679 346.21251488 110.4937191 C346.22162682 102.93305744 346.2237894 95.37243303 346.21700545 87.81176826 C346.21374381 83.95637237 346.21367071 80.10104793 346.2223587 76.24565887 C346.23169171 72.06090497 346.22543843 67.87631602 346.21772766 63.69155884 C346.22544301 61.87475853 346.22544301 61.87475853 346.23331422 60.0212552 C346.18987778 49.34556042 345.4993286 38.43995954 337.99002075 30.2197113 C327.55490879 20.35933872 316.80130513 20.23647881 303.04756165 20.25396729 C301.08906854 20.25056895 301.08906854 20.25056895 299.09100991 20.24710196 C295.47762151 20.24099901 291.86425629 20.24111578 288.25086391 20.24229634 C284.34959679 20.24250072 280.44833704 20.23697798 276.54707336 20.23223877 C268.90786702 20.22394 261.26866839 20.22118428 253.62945791 20.22062639 C247.41880144 20.22015088 241.20814751 20.21809438 234.99749184 20.21492577 C217.38149513 20.20612143 199.7655045 20.20150606 182.14950558 20.20225624 C180.72562529 20.20231617 180.72562529 20.20231617 179.27297974 20.20237732 C177.84735707 20.20243864 177.84735707 20.20243864 176.39293394 20.2025012 C160.99039157 20.20290765 145.58787364 20.1933379 130.18533834 20.17923895 C114.36263307 20.16486989 98.53993972 20.15796906 82.71722776 20.15883273 C73.83698418 20.15916451 64.95676624 20.15642579 56.07652855 20.14565468 C48.51586689 20.13654273 40.95524248 20.13438015 33.3945777 20.1411641 C29.53918182 20.14442574 25.68385738 20.14449885 21.82846832 20.13581085 C17.64371442 20.12647785 13.45912547 20.13273113 9.27436829 20.14044189 C8.06316808 20.13529833 6.85196788 20.13015477 5.60406464 20.12485534 C-8.39512711 20.18181416 -18.69728079 22.14009003 -28.26779175 32.77830505 Z " fill="#FFFFFF" transform="translate(94.02951049804688,39.61231994628906)"/>
<path d="M0 0 C8.25 0 16.5 0 25 0 C26.99700832 4.94667111 28.99191129 9.89408325 30.98144531 14.84375 C31.65924189 16.52816872 32.33827417 18.21209074 33.01855469 19.89550781 C33.99477331 22.31186236 34.96656976 24.72995399 35.9375 27.1484375 C36.24373291 27.9036972 36.54996582 28.65895691 36.86547852 29.43710327 C39 34.77225659 39 34.77225659 39 37 C39.66 37 40.32 37 41 37 C41.15057861 36.44199707 41.30115723 35.88399414 41.45629883 35.30908203 C43.6442265 27.59584145 46.6178614 20.27381924 49.6875 12.875 C50.20421013 11.6199703 50.72048907 10.36476298 51.23632812 9.109375 C52.4866639 6.07117592 53.74274499 3.03534233 55 0 C63.25 0 71.5 0 80 0 C79.19792988 4.0103506 78.32018822 6.91163377 76.73095703 10.59716797 C76.26021759 11.69535858 75.78947815 12.79354919 75.30447388 13.92501831 C74.79407562 15.10218414 74.28367737 16.27934998 73.7578125 17.4921875 C73.22791912 18.72362357 72.69845623 19.95524496 72.16940308 21.18704224 C70.77743808 24.42480436 69.37969995 27.66004239 67.98071289 30.89477539 C66.56571764 34.16924799 65.15611009 37.44603739 63.74609375 40.72265625 C61.67627404 45.53105555 59.60353796 50.33818057 57.52783203 55.14404297 C57.08665543 56.17671799 56.64547882 57.20939301 56.19093323 58.27336121 C55.49656618 59.86311291 54.7800267 61.4441614 54.01011658 62.99873352 C51.59729058 67.9327713 51.52723312 72.49110018 51.48828125 77.87109375 C51.47033005 78.793423 51.45237885 79.71575226 51.43388367 80.66603088 C51.38003264 83.58980848 51.34596615 86.5134252 51.3125 89.4375 C51.27930466 91.42905872 51.24481296 93.42059629 51.20898438 95.41210938 C51.12189818 100.27475951 51.06161462 105.13669464 51 110 C44.07 110 37.14 110 30 110 C30.13664062 107.59976563 30.27328125 105.19953125 30.4140625 102.7265625 C31.41758257 76.07965266 24.96372828 56.35286897 13.27148438 32.6484375 C10.09938112 26.20868971 7.24097706 19.64306963 4.375 13.0625 C3.9207666 12.05646729 3.4665332 11.05043457 2.99853516 10.01391602 C2.39211182 8.66317993 2.39211182 8.66317993 1.7734375 7.28515625 C1.42716309 6.52082275 1.08088867 5.75648926 0.72412109 4.96899414 C0 3 0 3 0 0 Z " fill="#FFFFFF" transform="translate(150,80)"/>
<path d="M0 0 C6.93 0 13.86 0 21 0 C21 20.46 21 40.92 21 62 C28.34776213 62.44659625 28.34776213 62.44659625 33.375 59.1875 C34.34566406 58.40439453 34.34566406 58.40439453 35.3359375 57.60546875 C37.57514484 55.44510674 38.91078326 53.7602097 39.2784729 50.62715149 C39.29179657 49.69227402 39.30512024 48.75739655 39.31884766 47.79418945 C39.33871735 46.73331619 39.35858704 45.67244293 39.37905884 44.579422 C39.39061005 43.43559555 39.40216125 42.2917691 39.4140625 41.11328125 C39.43342865 39.94113571 39.4527948 38.76899017 39.4727478 37.56132507 C39.53260197 33.8117911 39.57895283 30.06222652 39.625 26.3125 C39.66317436 23.77277295 39.70222576 21.23305893 39.7421875 18.69335938 C39.8383085 12.46234514 39.92231832 6.2312703 40 0 C46.93 0 53.86 0 61 0 C61 26.4 61 52.8 61 80 C54.07 80 47.14 80 40 80 C39.67 76.37 39.34 72.74 39 69 C38.35933594 69.54269531 37.71867187 70.08539063 37.05859375 70.64453125 C29.42044782 76.96222274 23.70905046 80.60410364 13.5859375 80.28515625 C8.73224247 79.74993006 5.99930118 78.05331746 2.6875 74.5625 C-0.18725441 70.19713219 -0.12310491 66.47665379 -0.11352539 61.30371094 C-0.11367142 60.63988403 -0.11381744 59.97605713 -0.1139679 59.29211426 C-0.11327332 57.1061675 -0.10550231 54.92030681 -0.09765625 52.734375 C-0.09579045 51.21551561 -0.09436731 49.69665562 -0.09336853 48.17779541 C-0.0895561 44.18622161 -0.0797367 40.19468438 -0.06866455 36.203125 C-0.05842303 32.1276092 -0.05386504 28.05208747 -0.04882812 23.9765625 C-0.03811327 15.98435638 -0.0205268 7.99218695 0 0 Z " fill="#FFFFFF" transform="translate(290,110)"/>
<path d="M0 0 C7.54303359 4.93085464 10.80324881 10.61537512 13.0078125 19.3125 C15.73468237 33.31659442 16.40633288 53.74573784 9.0078125 66.3125 C3.29575793 73.19862583 -4.00716315 76.82109008 -12.8359375 77.69140625 C-22.71023001 78.13049788 -30.901305 76.70042209 -38.8671875 70.5625 C-43.83286992 65.95987455 -46.83458925 59.4844636 -47.16918945 52.75 C-47.19611588 51.27093738 -47.21607855 49.79173771 -47.23046875 48.3125 C-47.2385405 47.52157959 -47.24661224 46.73065918 -47.25492859 45.91577148 C-47.26875962 44.23797792 -47.27948617 42.56015634 -47.28735352 40.88232422 C-47.29881347 39.18334587 -47.31916922 37.48440179 -47.34887695 35.78564453 C-47.74056509 13.37408091 -47.74056509 13.37408091 -39.8046875 4.375 C-29.49865356 -4.57554305 -12.33182989 -6.18739897 0 0 Z M-25.9921875 19.3125 C-26.58243384 22.31907939 -26.79266348 24.5066052 -26.71875 27.5 C-26.71974701 28.28012451 -26.72074402 29.06024902 -26.72177124 29.86401367 C-26.7171048 31.50807928 -26.69773482 33.15216113 -26.66455078 34.79589844 C-26.61732221 37.30534247 -26.62343691 39.81053632 -26.63671875 42.3203125 C-26.62556435 43.9219002 -26.611344 45.52347009 -26.59375 47.125 C-26.59557281 47.87096436 -26.59739563 48.61692871 -26.59927368 49.38549805 C-26.46643583 54.29256909 -25.49650813 56.86965868 -21.9921875 60.3125 C-19.13894313 61.73912219 -17.15764201 61.62283868 -13.9921875 61.3125 C-9.49975225 58.65787917 -8.32427051 56.24581079 -6.9921875 51.3125 C-6.68937243 48.22637342 -6.68937243 48.22637342 -6.7265625 45.03125 C-6.72398437 43.85949219 -6.72140625 42.68773437 -6.71875 41.48046875 C-6.72648437 40.27003906 -6.73421875 39.05960938 -6.7421875 37.8125 C-6.73445313 36.60207031 -6.72671875 35.39164063 -6.71875 34.14453125 C-6.72132813 32.97277344 -6.72390625 31.80101562 -6.7265625 30.59375 C-6.72881836 29.53220703 -6.73107422 28.47066406 -6.73339844 27.37695312 C-7.12670661 22.71959067 -8.00321744 19.35641284 -11.2421875 15.9375 C-17.12449834 12.46158905 -21.82878439 14.0993406 -25.9921875 19.3125 Z " fill="#FFFFFF" transform="translate(266.9921875,112.6875)"/>
<path d="M0 0 C2.8125 1.9375 2.8125 1.9375 5 5 C6.25794664 12.6336265 6.1494816 20.28013535 6.125 28 C6.13080078 29.82917969 6.13080078 29.82917969 6.13671875 31.6953125 C6.11719195 49.77712737 6.11719195 49.77712737 3 55 C-0.36711809 56.68355904 -3.28897872 56.26507295 -7 56 C-9.64 54.68 -12.28 53.36 -15 52 C-15 36.49 -15 20.98 -15 5 C-4.25806452 -0.96774194 -4.25806452 -0.96774194 0 0 Z " fill="#FFFFFF" transform="translate(285,307)"/>
<path d="M0 0 C3.12805922 1.29202446 4.53942068 2.13001685 6.125 5.125 C7.22121317 8.72684328 7.21682387 12.09282061 7.125 15.8125 C7.08375 18.184375 7.0425 20.55625 7 23 C0.07 23 -6.86 23 -14 23 C-14.12375 18.66875 -14.12375 18.66875 -14.25 14.25 C-14.28641602 13.34668945 -14.32283203 12.44337891 -14.36035156 11.51269531 C-14.44244526 5.58870816 -14.44244526 5.58870816 -12.109375 2.484375 C-8.16758788 -0.2894752 -4.72863112 -0.49918371 0 0 Z " fill="#FFFFFF" transform="translate(354,304)"/>
</svg>
