<?xml version="1.0" encoding="UTF-8"?>
<svg version="1.1" xmlns="http://www.w3.org/2000/svg" width="350" height="613">
<path d="M0 0 C115.5 0 231 0 350 0 C350 202.29 350 404.58 350 613 C234.5 613 119 613 0 613 C0 410.71 0 208.42 0 0 Z " fill="#D8D8D8" transform="translate(0,0)"/>
<path d="M0 0 C104.94 0 209.88 0 318 0 C318 62.37 318 124.74 318 189 C213.06 189 108.12 189 0 189 C0 126.63 0 64.26 0 0 Z " fill="#4542FF" transform="translate(16,20)"/>
<path d="M0 0 C0.72110962 -0.00287018 1.44221924 -0.00574036 2.18518066 -0.00869751 C3.70825995 -0.01073702 5.2313655 -0.00521497 6.75439453 0.00732422 C9.08555678 0.02338107 11.41498542 0.0074734 13.74609375 -0.01171875 C15.22656633 -0.0097363 16.70703782 -0.00589257 18.1875 0 C18.8844397 -0.00607269 19.58137939 -0.01214539 20.29943848 -0.0184021 C23.07636546 0.02194972 25.1322385 0.11622827 27.53173828 1.58349609 C28.99479529 4.08381007 28.98211206 5.9457255 28.9921875 8.8359375 C28.99798828 10.42535156 28.99798828 10.42535156 29.00390625 12.046875 C28.99230469 13.15289062 28.98070312 14.25890625 28.96875 15.3984375 C28.98035156 16.50445312 28.99195313 17.61046875 29.00390625 18.75 C29.00003906 19.80960938 28.99617188 20.86921875 28.9921875 21.9609375 C28.98880371 22.93160156 28.98541992 23.90226562 28.98193359 24.90234375 C28.59375 27.3984375 28.59375 27.3984375 27.53173828 29.21337891 C24.5618183 31.02945242 21.56543754 30.82630822 18.1875 30.796875 C17.46639038 30.79974518 16.74528076 30.80261536 16.00231934 30.80557251 C14.47924005 30.80761202 12.9561345 30.80208997 11.43310547 30.78955078 C9.10194322 30.77349393 6.77251458 30.7894016 4.44140625 30.80859375 C2.96093367 30.8066113 1.48046218 30.80276757 0 30.796875 C-0.6969397 30.80294769 -1.39387939 30.80902039 -2.11193848 30.8152771 C-4.88886546 30.77492528 -6.9447385 30.68064673 -9.34423828 29.21337891 C-10.80729529 26.71306493 -10.79461206 24.8511495 -10.8046875 21.9609375 C-10.80855469 20.90132812 -10.81242187 19.84171875 -10.81640625 18.75 C-10.80480469 17.64398438 -10.79320312 16.53796875 -10.78125 15.3984375 C-10.79285156 14.29242188 -10.80445313 13.18640625 -10.81640625 12.046875 C-10.81253906 10.98726562 -10.80867188 9.92765625 -10.8046875 8.8359375 C-10.80130371 7.86527344 -10.79791992 6.89460938 -10.79443359 5.89453125 C-10.40625 3.3984375 -10.40625 3.3984375 -9.34423828 1.58349609 C-6.3743183 -0.23257742 -3.37793754 -0.02943322 0 0 Z " fill="#F1F1F4" transform="translate(47.40625,37.6015625)"/>
<path d="M0 0 C4.29 0 8.58 0 13 0 C13 1.32 13 2.64 13 4 C16.96 4 20.92 4 25 4 C25 5.65 25 7.3 25 9 C21.04 9 17.08 9 13 9 C13 14.94 13 20.88 13 27 C8.71 27 4.42 27 0 27 C0 18.09 0 9.18 0 0 Z " fill="#D6D6D6" transform="translate(50,40)"/>
<path d="M0 0 C3.63 0 7.26 0 11 0 C11 1.98 11 3.96 11 6 C7.37 6 3.74 6 0 6 C0 4.02 0 2.04 0 0 Z " fill="#DCDCDC" transform="translate(38,50)"/>
<path d="M0 0 C1.37478516 0.01740234 1.37478516 0.01740234 2.77734375 0.03515625 C3.69644531 0.04417969 4.61554688 0.05320313 5.5625 0.0625 C6.27277344 0.07410156 6.98304687 0.08570313 7.71484375 0.09765625 C7.71484375 2.07765625 7.71484375 4.05765625 7.71484375 6.09765625 C4.08484375 6.09765625 0.45484375 6.09765625 -3.28515625 6.09765625 C-3.28515625 0.14039129 -3.28515625 0.14039129 0 0 Z " fill="#DCDCDC" transform="translate(67.28515625,49.90234375)"/>
<path d="M0 0 C1.51400391 0.01740234 1.51400391 0.01740234 3.05859375 0.03515625 C4.07050781 0.04417969 5.08242188 0.05320313 6.125 0.0625 C7.29869141 0.07990234 7.29869141 0.07990234 8.49609375 0.09765625 C8.49609375 1.74765625 8.49609375 3.39765625 8.49609375 5.09765625 C4.86609375 5.09765625 1.23609375 5.09765625 -2.50390625 5.09765625 C-2.83390625 3.77765625 -3.16390625 2.45765625 -3.50390625 1.09765625 C-2.50390625 0.09765625 -2.50390625 0.09765625 0 0 Z " fill="#D5D5D8" transform="translate(40.50390625,43.90234375)"/>
<path d="M0 0 C3.63 0 7.26 0 11 0 C11 1.65 11 3.3 11 5 C7.37 5 3.74 5 0 5 C0 3.35 0 1.7 0 0 Z " fill="#D8D8D8" transform="translate(64,57)"/>
<path d="M0 0 C3.63 0 7.26 0 11 0 C11 1.65 11 3.3 11 5 C7.37 5 3.74 5 0 5 C0 3.35 0 1.7 0 0 Z " fill="#D8D8D8" transform="translate(38,57)"/>
<path d="M0 0 C3.96 0 7.92 0 12 0 C10 4 10 4 9 5 C6.32941149 5.14115161 3.67567762 5.04247107 1 5 C0.67 3.35 0.34 1.7 0 0 Z " fill="#E1E1E7" transform="translate(64,63)"/>
<path d="M0 0 C3.96 0 7.92 0 12 0 C11.67 1.65 11.34 3.3 11 5 C3.5340751 5.36717663 3.5340751 5.36717663 1 3.625 C0 2 0 2 0 0 Z " fill="#E1E1E7" transform="translate(37,63)"/>
<path d="M0 0 C3 1 3 1 4.19921875 2.78515625 C5.57009333 6.57679472 4.86740043 10.1311187 4 14 C2.4375 17.0625 2.4375 17.0625 1 19 C0.01 18.67 -0.98 18.34 -2 18 C-1.505 17.360625 -1.01 16.72125 -0.5 16.0625 C2.03978472 10.87710619 1.54060872 5.47910037 0 0 Z " fill="#E3E3FF" transform="translate(311,44)"/>
<path d="M0 0 C0.99 0.33 1.98 0.66 3 1 C4.23076923 7.4 4.23076923 7.4 3.0625 10.4375 C2.711875 10.953125 2.36125 11.46875 2 12 C1.01 12 0.02 12 -1 12 C-0.9278125 11.38511719 -0.855625 10.77023438 -0.78125 10.13671875 C-0.64203125 8.92435547 -0.64203125 8.92435547 -0.5 7.6875 C-0.4071875 6.88699219 -0.314375 6.08648437 -0.21875 5.26171875 C0.04813463 2.88103445 0.04813463 2.88103445 0 0 Z " fill="#E4E4FF" transform="translate(307,47)"/>
<path d="M0 0 C3 1 3 1 4 3 C4.04022391 5.3329866 4.04320247 7.66706666 4 10 C0 4 0 4 0 0 Z " fill="#F3F3FF" transform="translate(311,44)"/>
</svg>
