<?xml version="1.0" encoding="UTF-8"?>
<svg version="1.1" xmlns="http://www.w3.org/2000/svg" width="512" height="512">
<path d="M0 0 C3.57555468 2.752317 6.96317247 5.83839603 9.2734375 9.75 C8.14565566 13.13334551 7.30983863 13.72700939 4.5859375 15.875 C-2.94147423 22.32321292 -7.35473431 29.87796538 -8.7265625 39.75 C-9.40821852 51.11093374 -6.25628331 61.39785497 1.26953125 70.04296875 C5.2010455 73.6372771 9.56261118 76.29644462 14.2734375 78.75 C10.57990586 95.10157236 -0.58478425 114.2343107 -14.7265625 123.75 C-21.45333224 127.02428858 -29.11843194 126.92808131 -36.16015625 124.62890625 C-37.29582031 124.17386719 -38.43148437 123.71882812 -39.6015625 123.25 C-51.33099683 118.69866739 -61.02759518 120.03337901 -72.51171875 124.5546875 C-78.90204795 126.93067867 -84.26791889 127.54871454 -90.7890625 125.375 C-106.67263432 118.01552913 -117.34924899 96.55610107 -123.1953125 80.92578125 C-129.80561586 62.25371446 -133.12799712 38.35670667 -124.7265625 19.75 C-122.68337592 15.82040601 -120.41306789 12.26886283 -117.7265625 8.75 C-116.97632812 7.76580078 -116.97632812 7.76580078 -116.2109375 6.76171875 C-110.00635279 -0.30461383 -99.22531628 -5.53891752 -89.90625 -6.55859375 C-81.45456333 -6.88826947 -74.96195519 -5.42649837 -67.12060547 -2.38452148 C-58.55027418 0.86579452 -52.4788892 0.10848237 -44.0390625 -3.1875 C-28.92507696 -8.91672407 -14.04287877 -9.08924192 0 0 Z " fill="#000000" transform="translate(128.7265625,196.25)"/>
<path d="M0 0 C84.59661937 0 84.59661937 0 100.74609375 15.52734375 C112.60393449 28.53603212 114.90301449 42.53228789 114.37890625 59.515625 C113.61694962 73.55091396 107.45919125 85.56378563 97.23046875 95.21875 C90.70661995 100.4286888 83.04900378 103.88903486 75 106 C74.34088623 106.17418457 73.68177246 106.34836914 73.00268555 106.52783203 C68.62833335 107.2156926 64.3077645 107.12212236 59.88671875 107.09765625 C59.02679321 107.09664917 58.16686768 107.09564209 57.28088379 107.09460449 C54.08307554 107.08939106 50.88528636 107.07542983 47.6875 107.0625 C40.530625 107.041875 33.37375 107.02125 26 107 C26 125.15 26 143.3 26 162 C17.42 162 8.84 162 0 162 C0 108.54 0 55.08 0 0 Z M26 22 C26 42.79 26 63.58 26 85 C31.878125 85.0825 37.75625 85.165 43.8125 85.25 C45.64401611 85.28641602 47.47553223 85.32283203 49.36254883 85.36035156 C61.11414949 85.49728967 71.34717172 84.57091853 80.27734375 76.0625 C87.19311352 67.7823947 88.76095346 58.48424762 88 48 C86.59041065 39.87694273 83.30445755 33.34543333 76.73828125 28.2421875 C65.88067544 21.18559597 54.41514383 21.73507344 41.875 21.875 C34.016875 21.936875 34.016875 21.936875 26 22 Z " fill="#000000" transform="translate(170,159)"/>
<path d="M0 0 C7.75200246 6.59042481 11.73303515 14.20114152 13.4765625 24.10546875 C14.00453385 30.78875517 13.82684892 37.51308376 13.76953125 44.2109375 C13.76392643 46.14577402 13.75966052 48.08061483 13.75666809 50.01545715 C13.74528908 55.07398518 13.71588267 60.13224914 13.68255615 65.19067383 C13.65170451 70.36601186 13.63813068 75.54139312 13.62304688 80.71679688 C13.59100544 90.84648804 13.53829526 100.97591498 13.4765625 111.10546875 C5.5565625 111.10546875 -2.3634375 111.10546875 -10.5234375 111.10546875 C-10.8534375 105.82546875 -11.1834375 100.54546875 -11.5234375 95.10546875 C-12.6371875 96.46671875 -13.7509375 97.82796875 -14.8984375 99.23046875 C-22.57501837 107.82607691 -32.22967635 112.71205392 -43.734375 113.421875 C-55.63523452 113.86629496 -66.3705552 112.53221472 -75.84765625 104.6640625 C-82.57297487 98.40904588 -86.98965371 90.48462254 -87.76171875 81.2578125 C-87.98329903 71.65988795 -86.55050218 63.64021735 -80.6484375 55.85546875 C-67.23203522 41.98330758 -46.00530342 41.73805594 -28.0234375 40.91796875 C-26.41010569 40.83627901 -24.7968236 40.75360104 -23.18359375 40.66992188 C-19.29735057 40.47043723 -15.41069197 40.28411568 -11.5234375 40.10546875 C-11.75314948 37.56050186 -12.00642159 35.02157015 -12.2734375 32.48046875 C-12.3353125 31.76761719 -12.3971875 31.05476563 -12.4609375 30.3203125 C-13.15318329 24.03241327 -15.27631552 19.94402309 -20.2734375 15.85546875 C-27.99876739 11.69567573 -34.99559195 11.53303962 -43.5234375 13.10546875 C-49.48394022 15.00065331 -52.97332392 18.03387792 -56.5234375 23.10546875 C-57.5134375 25.08546875 -58.5034375 27.06546875 -59.5234375 29.10546875 C-67.1134375 29.10546875 -74.7034375 29.10546875 -82.5234375 29.10546875 C-82.5234375 19.06690422 -79.3720354 11.47615708 -72.5234375 4.10546875 C-54.41391299 -13.49083037 -20.32063572 -14.05660494 0 0 Z M-31.2734375 58.85546875 C-33.11035156 58.94828125 -33.11035156 58.94828125 -34.984375 59.04296875 C-43.98364736 59.62108046 -52.48641601 60.71254264 -59.0859375 67.35546875 C-61.85925313 71.06112411 -63.05312247 74.4707253 -62.5234375 79.10546875 C-60.86719145 84.39197502 -58.28577506 88.15735502 -53.5234375 91.10546875 C-45.67821073 94.15516254 -37.17478475 94.41093847 -29.2109375 91.54296875 C-21.52747129 87.99483151 -16.06747867 82.76059769 -12.5234375 75.10546875 C-11.54477092 71.28738138 -11.41772182 67.72559518 -11.4609375 63.79296875 C-11.46996094 62.72433594 -11.47898437 61.65570313 -11.48828125 60.5546875 C-11.49988281 59.74644531 -11.51148438 58.93820312 -11.5234375 58.10546875 C-18.12893873 58.05837512 -24.68289723 58.44441634 -31.2734375 58.85546875 Z " fill="#000000" transform="translate(377.5234375,209.89453125)"/>
<path d="M0 0 C8.91 0 17.82 0 27 0 C29.04855069 4.77995162 30.77874852 9.18416237 32.29663086 14.10595703 C32.50522232 14.77860092 32.71381378 15.45124481 32.9287262 16.14427185 C33.61104294 18.34768777 34.28797732 20.55271683 34.96484375 22.7578125 C35.44388878 24.30860423 35.92326995 25.85929215 36.40296936 27.40988159 C37.66241828 31.48415478 38.91729415 35.55982233 40.17120361 39.63580322 C41.43622724 43.74503926 42.70561033 47.85292778 43.97460938 51.9609375 C45.6281011 57.31538096 47.28066678 62.67010664 48.92975712 68.02590752 C49.35305472 69.40035092 49.77672587 70.77467935 50.20080471 72.14888191 C51.20058853 75.39078207 52.19320015 78.63454051 53.17068481 81.88323975 C53.52887299 83.06758606 53.88706116 84.25193237 54.25610352 85.47216797 C54.56975357 86.51774872 54.88340363 87.56332947 55.20655823 88.64059448 C55.78176917 90.9300475 55.78176917 90.9300475 57 92 C57.27482208 91.11289337 57.54964417 90.22578674 57.83279419 89.3117981 C60.44848571 80.86974226 63.06604806 72.42826915 65.68560982 63.98741341 C67.03164001 59.64995823 68.37699582 55.3122965 69.72070312 50.97412109 C71.02230501 46.77197773 72.3258183 42.57043135 73.63055038 38.36925888 C74.12306962 36.78225855 74.61494878 35.1950594 75.10611343 33.60763931 C78.58916696 22.35269894 82.2451858 11.16754418 86 0 C94.58 0 103.16 0 112 0 C111.30574238 4.16554573 110.65523789 7.37309051 109.28857422 11.24707031 C108.75985718 12.7571315 108.75985718 12.7571315 108.22045898 14.29769897 C107.83575439 15.38023956 107.4510498 16.46278015 107.0546875 17.578125 C106.6527417 18.72133209 106.2507959 19.86453918 105.83666992 21.04238892 C104.74703889 24.13792926 103.65298952 27.23186089 102.55666351 30.3250351 C101.64374845 32.90303644 100.73433398 35.48226644 99.82496834 38.06152153 C96.89288248 46.37774595 93.94775811 54.68932041 91 63 C90.24868732 65.12011343 89.49738456 67.24023038 88.74609375 69.36035156 C84.78847861 80.52200497 80.80564914 91.67434421 76.78778076 102.81445312 C76.02130574 104.94089132 75.25682052 107.06803599 74.49267578 109.1953125 C73.15134593 112.9256807 71.79605738 116.65086831 70.4375 120.375 C69.88328369 121.91583252 69.88328369 121.91583252 69.31787109 123.48779297 C64.36736759 136.93196216 58.27653477 150.81934279 45.1171875 158.0390625 C34.25709945 162.96817995 23.73135274 162.23620173 12 162 C12 155.07 12 148.14 12 141 C19.125 140.6875 19.125 140.6875 21.33251953 140.61206055 C26.55932171 140.32073756 30.73610581 139.16839494 34.57421875 135.4921875 C38.98846621 129.07991224 41.54040435 123.27201688 40.47341919 115.39344788 C39.53399802 110.64405102 37.78444104 106.15815064 36.125 101.62109375 C35.52980812 99.96324104 35.52980812 99.96324104 34.92259216 98.27189636 C33.62283386 94.65757628 32.31145476 91.04759057 31 87.4375 C30.09698675 84.93239551 29.19465729 82.42705509 28.29321289 79.92138672 C25.54059675 72.27664205 22.77130853 64.63798449 20 57 C19.14561653 54.64373704 18.29128551 52.28745507 17.43701172 49.93115234 C17.02953705 48.80743729 16.62206238 47.68372223 16.20223999 46.5259552 C15.40647603 44.33111606 14.61091897 42.13620189 13.81558228 39.94120789 C11.98020562 34.87625882 10.14178048 29.81248356 8.29492188 24.75170898 C7.63276647 22.93084356 6.97065461 21.1099623 6.30859375 19.2890625 C6.01568954 18.49034225 5.72278534 17.69162201 5.42100525 16.86869812 C3.39350485 11.28051816 1.71533818 5.71779394 0 0 Z " fill="#000000" transform="translate(400,203)"/>
<path d="M0 0 C0.51276919 8.28976853 -0.11632742 14.61006504 -4 22 C-4.60134766 23.15822266 -4.60134766 23.15822266 -5.21484375 24.33984375 C-10.0258446 32.4976278 -17.82021066 38.56578145 -27 41 C-29.5546875 41.1953125 -29.5546875 41.1953125 -31.875 41.125 C-33.04675781 41.09792969 -33.04675781 41.09792969 -34.2421875 41.0703125 C-35.11230469 41.03550781 -35.11230469 41.03550781 -36 41 C-36.72663854 29.9187622 -32.97339324 20.58651554 -26 12 C-19.31796103 4.79259187 -9.91532883 -0.2754258 0 0 Z " fill="#000000" transform="translate(106,147)"/>
</svg>
