<?xml version="1.0" encoding="UTF-8"?>
<svg version="1.1" xmlns="http://www.w3.org/2000/svg" width="512" height="512">
<path d="M0 0 C4.4690575 3.04755531 8.16071317 6.77421809 11.95404196 10.60968065 C12.83631657 11.4857153 13.71859118 12.36174995 14.62760139 13.2643311 C17.05208716 15.67570546 19.46739959 18.09562392 21.87908483 20.51975942 C24.49080554 23.14058065 27.11407247 25.74980316 29.73582602 28.36058092 C34.86112502 33.46814326 39.97561196 38.58639996 45.08623615 43.70864162 C49.24192414 47.8733828 53.4015238 52.03417945 57.56391287 56.19222307 C58.1575283 56.78522557 58.75114373 57.37822807 59.36274751 57.98920034 C60.56888387 59.19405774 61.77502918 60.39890619 62.98118332 61.60374579 C74.27665758 72.88782846 85.55986491 84.18411297 96.83888009 95.48464403 C106.50585889 105.16949249 116.18327677 114.84380586 125.86840963 124.51049852 C137.12998092 135.75063798 148.38500164 146.99727103 159.62972713 158.25426507 C160.83001986 159.45583193 162.03032092 160.65739047 163.2306304 161.8589406 C163.82111996 162.45004726 164.41160951 163.04115392 165.01999269 163.6501729 C169.17091076 167.80453692 173.32643621 171.95425726 177.48378897 176.10218096 C182.55378265 181.16092757 187.61652885 186.22679776 192.67026892 191.30178389 C195.24630292 193.88829186 197.82536038 196.47157017 200.4132762 199.04619455 C203.22419529 201.84289524 206.0193192 204.65505738 208.81317282 207.46881151 C209.62542845 208.27214426 210.43768409 209.07547701 211.27455354 209.90315318 C216.38363271 215.08284596 220.16512491 220.40337229 223.6296401 226.79321337 C224.23549948 227.8747368 224.84135885 228.95626024 225.4655776 230.07055712 C229.13909332 241.81841107 229.00699476 258.80858383 223.6296401 269.98071337 C221.6843276 273.08618212 221.6843276 273.08618212 219.6296401 275.79321337 C218.99284323 276.65559618 218.35604635 277.51797899 217.6999526 278.40649462 C209.6815007 288.24439444 198.97364859 293.72090237 186.4421401 295.54321337 C183.56413895 295.73193475 180.76972872 295.81939151 177.89135885 295.80883837 C177.09044821 295.80658251 176.28953756 295.80432665 175.4643569 295.80200243 C174.85890036 295.79910204 174.25344381 295.79620165 173.6296401 295.79321337 C173.63240548 296.97348116 173.63240548 296.97348116 173.63522673 298.17759275 C173.67949223 317.36776067 173.71253862 336.55791834 173.73326445 355.74812651 C173.74355499 365.02855503 173.75757261 374.30894937 173.78051901 383.58935595 C173.80052117 391.68288917 173.81337267 399.77639763 173.81781709 407.86995488 C173.82041296 412.15111934 173.82646754 416.43221295 173.84110022 420.71335459 C173.85479226 424.75245906 173.85883955 428.79146429 173.85585546 432.83058977 C173.85640048 434.3038498 173.86030811 435.77711355 173.86805105 437.25035334 C173.96652529 456.97370916 170.74689636 473.90286268 157.1296401 488.85571337 C142.14398253 503.18234585 125.14590962 504.25691994 105.5124526 504.19165087 C103.36538739 504.19367447 101.21832285 504.19658829 99.07125998 504.20034838 C94.5913039 504.2047525 90.11152822 504.19839863 85.63159323 504.18432665 C79.89160135 504.16717375 74.15202847 504.17712669 68.41205168 504.19504404 C63.98712134 504.20588064 59.56229056 504.20243715 55.13735723 504.19466066 C53.02026332 504.19266154 50.90316033 504.19510782 48.78607702 504.20209932 C45.83280807 504.20971848 42.88022149 504.19810559 39.92700338 504.18139696 C39.05523962 504.18746965 38.18347586 504.19354235 37.28529501 504.19979906 C32.56592655 504.15033689 29.46651387 503.84084651 25.6296401 500.79321337 C21.94023632 496.59139239 20.506846 494.2999116 20.4916091 488.75389147 C20.48615576 487.68713686 20.48070242 486.62038225 20.47508383 485.52130175 C20.4740415 484.34573717 20.47299917 483.1701726 20.47192526 481.95898485 C20.46684454 480.7246924 20.46176382 479.49039995 20.45652914 478.2187047 C20.44580468 475.52970932 20.43680952 472.84076604 20.43040991 470.15176249 C20.41972797 465.89386292 20.39947999 461.63604278 20.37729025 457.37818956 C20.31538105 445.26876536 20.26143919 433.15934467 20.22827291 421.04980516 C20.20988307 414.36475619 20.1808881 407.67983924 20.14026821 400.99488741 C20.11926202 397.45946866 20.10375015 393.9242159 20.10146093 390.38873148 C20.09889926 386.43675118 20.07336166 382.48509467 20.04614401 378.5332036 C20.04915014 377.37180864 20.05215628 376.21041368 20.05525351 375.01382494 C19.95898491 365.58487796 18.42036258 356.80240413 11.6296401 349.79321337 C6.31113148 345.8611025 1.47047633 344.67652705 -5.02172709 344.63208055 C-6.15680704 344.62247301 -7.291887 344.61286547 -8.46136332 344.60296679 C-9.68430094 344.59871691 -10.90723856 344.59446703 -12.1672349 344.59008837 C-13.42997232 344.58438829 -14.69270975 344.57868822 -15.99371195 344.57281542 C-18.66682393 344.56336804 -21.33982373 344.55646998 -24.01293802 344.55297899 C-27.42005958 344.5475075 -30.82677885 344.52350065 -34.23377466 344.49500704 C-37.50323043 344.47177535 -40.77270818 344.46992379 -44.0422349 344.46508837 C-45.2570756 344.45274157 -46.47191629 344.44039476 -47.72357035 344.42767382 C-55.59632193 344.44826033 -61.23412556 345.29223446 -68.0578599 349.41821337 C-73.77793306 355.2928831 -76.49080731 362.01751296 -76.50166178 370.13119555 C-76.50566996 371.21344912 -76.50967813 372.29570269 -76.51380777 373.41075182 C-76.51327906 374.59318972 -76.51275034 375.77562761 -76.5122056 376.99389696 C-76.51568003 378.24305391 -76.51915445 379.49221087 -76.52273417 380.77922106 C-76.53008971 383.49383474 -76.53576358 386.20839951 -76.53902483 388.92301607 C-76.54494496 393.21805622 -76.56149456 397.51301396 -76.58036661 401.80801439 C-76.58670364 403.27963109 -76.59302927 404.75124783 -76.59934378 406.22286463 C-76.60250959 406.95975496 -76.6056754 407.69664528 -76.60893714 408.45586562 C-76.6509835 418.45241495 -76.68399144 428.44892522 -76.69628763 438.44555712 C-76.70467177 445.19251137 -76.72717349 451.93926076 -76.7656433 458.68611252 C-76.78538874 462.25443103 -76.7978136 465.8224434 -76.79280901 469.39082003 C-76.78729317 473.3719946 -76.81258135 477.35265211 -76.8403306 481.33374071 C-76.83372919 482.51213015 -76.82712778 483.69051958 -76.82032633 484.90461779 C-76.88999739 490.98392436 -76.98748047 495.16813999 -81.3703599 499.79321337 C-86.37746608 504.20780786 -90.49473645 504.36960341 -96.8571763 504.31079149 C-97.79462687 504.31780077 -98.73207743 504.32481005 -99.69793558 504.33203173 C-102.78956825 504.34959944 -105.88028076 504.33798729 -108.9719224 504.32446337 C-111.13178542 504.32715998 -113.29164726 504.33104381 -115.45150614 504.33606005 C-119.97909966 504.34195461 -124.50637735 504.33339829 -129.03393412 504.31469774 C-134.81048641 504.29199053 -140.58629187 504.30497959 -146.36281633 504.3289876 C-150.82580944 504.34351672 -155.28862879 504.33880568 -159.75162745 504.32847643 C-161.87968266 504.32582449 -164.00775411 504.32902438 -166.13579035 504.33839464 C-187.44420668 504.41158985 -187.44420668 504.41158985 -197.3703599 499.79321337 C-198.51891459 499.26340868 -199.66746927 498.73360399 -200.85082865 498.18774462 C-215.8251003 489.4365469 -224.40964802 477.35527134 -229.3703599 460.79321337 C-230.69026915 453.05961143 -230.5039039 445.29248216 -230.48388529 437.47290087 C-230.48360288 435.92494251 -230.4837622 434.37698402 -230.48432779 432.82902575 C-230.48461367 428.64573675 -230.47875086 424.46247666 -230.47175384 420.27919436 C-230.46548537 415.90032394 -230.46491374 411.52145281 -230.46372843 407.1425786 C-230.4606254 398.85904391 -230.45242589 390.57552248 -230.44237894 382.29199362 C-230.43118584 372.85789026 -230.4256993 363.42378626 -230.4206835 353.98967791 C-230.4102424 334.59084889 -230.3926629 315.19203219 -230.3703599 295.79321337 C-231.04945414 295.79878756 -231.72854837 295.80436174 -232.42822123 295.81010485 C-233.3230723 295.81444033 -234.21792337 295.81877581 -235.13989115 295.82324266 C-236.02523539 295.82881685 -236.91057962 295.83439104 -237.82275248 295.84013414 C-251.26613941 295.59253942 -262.52900433 290.29000463 -272.1125474 281.17211962 C-281.98041616 270.7750053 -285.00801292 259.21629658 -284.83862162 245.1594243 C-284.22187781 228.09079732 -275.12974938 217.07657278 -263.38931131 205.42448473 C-262.51973492 204.5495228 -261.65015853 203.67456087 -260.75423133 202.77308494 C-258.36840832 200.37553222 -255.97616078 197.98475754 -253.58076859 195.596789 C-250.98770607 193.00849264 -248.40333173 190.41154401 -245.81776285 187.81576586 C-240.76325029 182.74412917 -235.70066553 177.68062691 -230.63495828 172.62017419 C-226.51613742 168.50540688 -222.40008718 164.38788723 -218.28595972 160.26842737 C-217.40518853 159.38653355 -217.40518853 159.38653355 -216.50662398 158.48682368 C-215.31352919 157.29219731 -214.12043778 156.09756756 -212.92734973 154.90293447 C-201.76030678 143.72219053 -190.5837321 132.55101341 -179.40409474 121.38286469 C-169.18800497 111.176713 -158.9834098 100.95915723 -148.78425188 90.73608764 C-138.29377654 80.2212043 -127.79591186 69.71375243 -117.28990161 59.2143901 C-111.39875879 53.32673465 -105.51049241 47.43627242 -99.62986994 41.5381074 C-94.62597723 36.51947181 -89.61506587 31.50797364 -84.59510256 26.50541093 C-82.03691292 23.95571486 -79.48197308 21.40298098 -76.93571138 18.8413682 C-74.16977817 16.05896705 -71.38836826 13.29236732 -68.60537577 10.52702379 C-67.81118915 9.72323217 -67.01700254 8.91944055 -66.19874966 8.09129161 C-47.24054919 -10.62110174 -22.7108912 -13.80069499 0 0 Z M-49.16436625 35.20626879 C-50.02577652 36.06299909 -50.88718679 36.91972939 -51.7747004 37.80242121 C-54.15291416 40.17076675 -56.5242575 42.54562462 -58.89286995 44.92354941 C-61.45322367 47.49070574 -64.02221297 50.04919576 -66.59008646 52.60882616 C-71.6144153 57.61982899 -76.63061683 62.63889174 -81.64393261 67.66091023 C-85.71860822 71.74236567 -89.79620823 75.82087783 -93.87590647 79.89731264 C-94.45691773 80.4778642 -95.03792899 81.05841577 -95.63654666 81.6565598 C-96.81692203 82.83597598 -97.99730412 84.01538544 -99.17769286 85.19478823 C-110.24033092 96.24887591 -121.29376237 107.31213287 -132.3440592 118.37855567 C-141.82451401 127.87241687 -151.31281181 137.35838003 -160.80688334 146.83862352 C-171.83571631 157.85140059 -182.85966453 168.86902973 -193.87586617 179.89444315 C-195.05059662 181.07012924 -196.22533334 182.24580907 -197.40007639 183.42148256 C-197.9780525 183.9999215 -198.5560286 184.57836043 -199.15151913 185.17432781 C-203.22357602 189.24897428 -207.2991023 193.3201306 -211.37598276 197.38995028 C-216.34388444 202.34943681 -221.30640257 207.31423572 -226.2621043 212.28591405 C-228.79036216 214.82205383 -231.32095486 217.35574013 -233.85811472 219.88297701 C-236.60834305 222.62261139 -239.34685066 225.3737724 -242.08428812 228.12619066 C-242.8878739 228.92308428 -243.69145968 229.71997789 -244.51939654 230.5410198 C-249.5433843 235.61861573 -253.7956732 240.21151964 -253.8078599 247.73071337 C-253.62963427 252.88375872 -252.49094002 255.68718689 -249.3703599 259.79321337 C-243.71721368 264.26862079 -239.69279153 264.90293905 -232.6281724 264.96899462 C-231.31461771 264.99284227 -230.00106302 265.01668993 -228.64770365 265.04126024 C-226.57191203 265.07632263 -224.49670428 265.10570467 -222.42065287 265.1191411 C-220.40627782 265.13470259 -218.39216107 265.17658447 -216.3781724 265.21899462 C-215.17821634 265.23357714 -213.97826029 265.24815966 -212.74194193 265.26318407 C-207.82686391 266.03585854 -204.71350305 268.0074647 -201.72217417 271.9845252 C-200.02153448 275.51797403 -199.99400056 278.09039024 -199.99181986 282.00883532 C-199.98728973 282.724757 -199.9827596 283.44067868 -199.97809219 284.17829496 C-199.96648601 286.57184911 -199.97610788 288.96484247 -199.98559427 291.35839891 C-199.98148819 293.07688301 -199.97602709 294.79536432 -199.96931314 296.5138402 C-199.95758986 300.21283589 -199.95510331 303.91168237 -199.95966959 307.61069345 C-199.96648213 313.46537805 -199.95060489 319.31986665 -199.93127298 325.17451525 C-199.8934085 337.60990404 -199.88062404 350.04527578 -199.8703599 362.48071337 C-199.85928145 375.88915299 -199.84385051 389.29750221 -199.79964733 402.70587999 C-199.78133578 408.51955911 -199.77738308 414.33301403 -199.78458261 420.14671504 C-199.7861101 423.7735069 -199.77528465 427.40018779 -199.76120424 431.02694941 C-199.75721903 432.70142112 -199.75829664 434.37591423 -199.76497698 436.05037737 C-199.80766366 447.64635524 -199.77857562 458.2947833 -191.32739115 467.10180712 C-184.30483473 473.17120218 -176.58455666 473.92414273 -167.51708841 473.90673876 C-166.54995165 473.9069578 -166.54995165 473.9069578 -165.56327677 473.90718126 C-163.45857083 473.90649153 -161.35395639 473.89874378 -159.24926615 473.89086962 C-157.77953499 473.88900209 -156.30980321 473.88757977 -154.8400712 473.8865819 C-150.99156808 473.88278307 -147.14310334 473.87297558 -143.29461527 473.86187792 C-139.3595823 473.85160687 -135.42454306 473.84707213 -131.48950052 473.84204149 C-123.78310291 473.83135069 -116.0767368 473.81430629 -108.3703599 473.79321337 C-108.36677737 472.9453613 -108.36677737 472.9453613 -108.36312246 472.08038092 C-108.30376653 458.27273796 -108.22790213 444.46526863 -108.13464499 430.65781164 C-108.08984177 423.98038279 -108.0507586 417.30301678 -108.02392435 410.62548876 C-107.99779748 404.17386843 -107.95732878 397.72247898 -107.90717363 391.27100229 C-107.89056827 388.8172467 -107.87901478 386.36345123 -107.87274599 383.90964746 C-107.81235425 362.43148917 -106.62931417 344.40817848 -90.93676615 328.07836962 C-77.88469449 316.45666198 -63.30022925 313.15074117 -46.2062974 313.29711962 C-44.79773748 313.29696399 -43.38917714 313.29546447 -41.98061991 313.29270983 C-39.05434679 313.291339 -36.12857167 313.30366195 -33.20239115 313.32666063 C-29.48647703 313.35509485 -25.7713844 313.35227594 -22.05540895 313.33957052 C-19.15539615 313.33255644 -16.25556723 313.34046635 -13.35557795 313.35282755 C-11.33076123 313.35941794 -9.30591839 313.35524077 -7.28109598 313.35072374 C9.05724989 313.51582043 23.38160947 317.83452355 35.37573385 329.30883837 C47.25030063 342.39761561 50.91085978 357.91182436 50.94848776 375.13964891 C50.95853338 376.21414797 50.96857901 377.28864702 50.97892904 378.39570665 C51.00953925 381.90711026 51.02673415 385.41843842 51.0437026 388.92993212 C51.0624321 391.38044419 51.08200681 393.83094994 51.10238791 396.28144884 C51.15352683 402.7010427 51.19324987 409.12065742 51.23053122 415.54034472 C51.27068562 422.10320162 51.32172561 428.66597308 51.3718276 435.22876024 C51.46837076 448.08351671 51.55321446 460.93832235 51.6296401 473.79321337 C60.07952085 473.83972386 68.52934736 473.87517709 76.97932482 473.89683771 C80.90374376 473.90723805 84.82807459 473.92132805 88.75244284 473.94409227 C92.54554809 473.96595531 96.33856902 473.97781013 100.13173246 473.98296785 C101.57288135 473.9866396 103.01402607 473.99380907 104.45513868 474.00467348 C117.3944131 474.09826836 127.73843755 473.37814025 137.4421401 464.10571337 C143.60098142 454.77946794 143.05198183 444.34891998 142.99853659 433.5969243 C143.00100812 431.87121387 143.0048501 430.14550495 143.00995016 428.41980028 C143.01825156 424.72142304 143.01751207 421.02319998 143.00976515 417.32482195 C142.99813559 411.47504152 143.01038204 405.62545756 143.02638388 399.77569628 C143.0624918 385.25355232 143.06880493 370.7314138 143.06628561 356.20922899 C143.0645745 344.9063641 143.07167615 333.60366071 143.10626417 322.30084109 C143.12305322 316.48681842 143.12126893 310.67319009 143.10544145 304.85916901 C143.09964622 301.24456561 143.1103806 297.63014949 143.12568808 294.0155797 C143.12941485 292.34103278 143.12630463 290.66645443 143.11581755 288.99193621 C143.10244298 286.70384744 143.11365741 284.41712394 143.13084555 282.12908983 C143.13053162 280.21004147 143.13053162 280.21004147 143.13021135 278.25222445 C143.85416987 273.2381348 146.01985116 270.07401162 149.95434713 266.94360399 C153.26640924 265.51939915 155.83201186 265.40849603 159.4343276 265.38696337 C160.74014791 265.3650493 162.04596823 265.34313524 163.39135885 265.32055712 C164.76244048 265.30977149 166.13353633 265.3006703 167.5046401 265.29321337 C180.98363841 265.55959072 180.98363841 265.55959072 192.4421401 259.35571337 C195.62637677 255.62560755 196.92706283 252.90687039 197.0046401 247.98071337 C197.03299948 247.16989305 197.06135885 246.35907274 197.0905776 245.52368212 C195.76351083 237.66249846 189.6257737 232.36322357 184.21658468 226.99920702 C183.35985438 226.13779675 182.50312408 225.27638648 181.62043226 224.38887286 C179.25208672 222.01065911 176.87722885 219.63931577 174.49930406 217.27070332 C171.93214773 214.7103496 169.37365771 212.14136029 166.81402731 209.5734868 C161.80302448 204.54915797 156.78396173 199.53295644 151.76194324 194.51964065 C147.6804878 190.44496505 143.60197564 186.36736503 139.52554083 182.2876668 C138.94498927 181.70665554 138.3644377 181.12564427 137.76629367 180.52702661 C136.58687749 179.34665124 135.40746803 178.16626915 134.22806524 176.9858804 C123.17397756 165.92324234 112.1107206 154.86981089 101.0442978 143.81951407 C91.5504366 134.33905926 82.06447344 124.85076145 72.58422995 115.35668993 C61.57145288 104.32785696 50.55382374 93.30390874 39.52841032 82.28770709 C38.35272423 81.11297664 37.1770444 79.93823993 36.00137091 78.76349688 C35.42293197 78.18552077 34.84449304 77.60754466 34.24852566 77.01205413 C30.17387919 72.93999725 26.10272287 68.86447097 22.03290319 64.7875905 C17.07341666 59.81968883 12.10861775 54.85717069 7.13693942 49.90146896 C4.60079964 47.37321111 2.06711334 44.84261841 -0.46012354 42.30545855 C-3.19975792 39.55523021 -5.95091893 36.81672261 -8.70333719 34.07928514 C-9.50023081 33.27569937 -10.29712442 32.47211359 -11.11816633 31.64417672 C-16.19576226 26.62018897 -20.78866617 22.36790007 -28.3078599 22.35571337 C-29.49702005 22.32670946 -29.49702005 22.32670946 -30.71020365 22.29711962 C-38.53379864 23.75614541 -43.79654146 29.79323947 -49.16436625 35.20626879 Z " fill="#438EFF" transform="translate(285.3703598976135,8.206786632537842)"/>
</svg>
