<?xml version="1.0" encoding="UTF-8"?>
<svg version="1.1" xmlns="http://www.w3.org/2000/svg" width="512" height="512">
<path d="M0 0 C20.18329154 17.51658721 34.69391106 42.66140579 37.015625 69.6171875 C39.03229681 100.67953523 31.46381263 128.7681434 11.015625 152.6171875 C10.53738281 153.22820312 10.05914062 153.83921875 9.56640625 154.46875 C-4.73296818 172.41466977 -27.2633506 182.27317314 -48.984375 187.6171875 C-48.29214844 187.65158936 -47.59992188 187.68599121 -46.88671875 187.72143555 C-15.59004644 189.38368469 13.31721435 195.58630936 41.015625 210.6171875 C41.99402344 211.11863281 42.97242188 211.62007812 43.98046875 212.13671875 C87.45298835 234.77735665 119.85267506 276.54313167 135.015625 322.6171875 C139.96696343 338.45089601 143.28096 355.02240156 144.015625 371.6171875 C144.11230469 373.4734375 144.11230469 373.4734375 144.2109375 375.3671875 C144.4585886 383.68826457 144.32035244 390.71995544 138.625 397.19921875 C133.44658938 401.92792529 127.91248269 402.86645136 121.11799908 402.87445641 C120.4451764 402.87796248 119.77235372 402.88146855 119.07914248 402.88508087 C116.82633494 402.89437908 114.57378681 402.88947572 112.32096863 402.88461304 C110.68878145 402.88835009 109.05659606 402.89295184 107.4244135 402.89834368 C102.94030137 402.9105822 98.45626379 402.91031221 93.97213876 402.90795493 C89.13561437 402.90754698 84.29911395 402.9185838 79.46260071 402.92807007 C69.98741392 402.94468557 60.51225202 402.95017986 51.03705188 402.95129482 C43.33560883 402.95224501 35.63417399 402.95635383 27.93273354 402.96269608 C6.10010798 402.98030977 -15.73249791 402.98953471 -37.56513063 402.98803513 C-38.74222395 402.98795522 -39.91931727 402.9878753 -41.13208008 402.98779297 C-42.31060972 402.98771121 -43.48913937 402.98762945 -44.70338204 402.98754521 C-63.80554006 402.98673221 -82.90761924 403.00587306 -102.00975446 403.0340697 C-121.6213587 403.06279007 -141.23292449 403.07661047 -160.84455031 403.07488215 C-171.8559376 403.07421797 -182.86724225 403.0797226 -193.87861061 403.10123825 C-203.25350348 403.11943885 -212.62827623 403.12380656 -222.00317911 403.1102194 C-226.78607423 403.1036842 -231.56873883 403.10359256 -236.35161209 403.1209259 C-240.73193596 403.1366371 -245.11184615 403.13381301 -249.49215981 403.11635764 C-251.0749045 403.11328345 -252.65767991 403.11693596 -254.24038837 403.12807779 C-271.70913373 403.24288681 -271.70913373 403.24288681 -278.55414802 397.24070108 C-284.7444393 390.45847358 -284.40459114 382.44469212 -284.08935547 373.84326172 C-281.78066432 324.88827124 -261.63058427 280.86559721 -227.984375 245.6171875 C-227.18386719 244.76382812 -226.38335937 243.91046875 -225.55859375 243.03125 C-210.12347301 227.0151018 -191.09310559 214.89693225 -170.984375 205.6171875 C-169.27894531 204.81861328 -169.27894531 204.81861328 -167.5390625 204.00390625 C-142.87684579 192.93165815 -117.80393701 189.10783645 -90.984375 187.6171875 C-91.90476563 187.39804688 -92.82515625 187.17890625 -93.7734375 186.953125 C-122.80338617 179.6808568 -146.64208269 163.07786308 -162.28466797 137.41503906 C-176.29180379 113.40087567 -181.16723178 84.82340347 -175.08203125 57.5390625 C-167.24312338 28.3396922 -150.19694916 4.03634507 -123.83007812 -11.34667969 C-84.0727995 -33.66544827 -34.91385613 -29.20541005 0 0 Z " fill="#000000" transform="translate(325.984375,67.3828125)"/>
</svg>
