<?xml version="1.0" encoding="UTF-8"?>
<svg version="1.1" xmlns="http://www.w3.org/2000/svg" width="512" height="512">
<path d="M0 0 C1.60205819 1.36400135 3.15596169 2.78435493 4.6953125 4.21875 C4.20274764 8.49055143 1.76517043 10.49294678 -1.21484375 13.421875 C-1.94519081 14.1458548 -1.94519081 14.1458548 -2.69029236 14.88446045 C-4.242342 16.4197585 -5.80450886 17.94427925 -7.3671875 19.46875 C-8.42321107 20.5097222 -9.47855788 21.5513814 -10.53320312 22.59375 C-13.11590165 25.14342633 -15.70777632 27.68354196 -18.3046875 30.21875 C-21.34145328 28.72632579 -24.18555018 27.07674517 -27.0546875 25.28125 C-38.19941417 18.56163539 -49.56905116 16.50881089 -62.3046875 19.40625 C-76.03826863 23.21723095 -86.5608766 30.87825007 -93.83203125 43.2890625 C-99.76988581 55.10177051 -101.64549997 68.75965959 -98.1171875 81.65625 C-97.55459916 83.19294963 -96.94994264 84.71488924 -96.3046875 86.21875 C-95.964375 87.04632813 -95.6240625 87.87390625 -95.2734375 88.7265625 C-89.52857292 101.4196079 -79.66939631 109.4470407 -66.8671875 114.59375 C-54.31153046 118.72554068 -40.73828488 117.79140404 -28.6484375 112.47265625 C-16.66023425 106.05896751 -11.95506524 98.00728879 -7.3046875 85.21875 C-22.1546875 84.88875 -37.0046875 84.55875 -52.3046875 84.21875 C-52.3046875 73.32875 -52.3046875 62.43875 -52.3046875 51.21875 C-25.9046875 51.21875 0.4953125 51.21875 27.6953125 51.21875 C31.61038526 74.70918658 29.58842924 99.40173964 15.71875 119.5703125 C2.10664244 137.38693205 -15.42667203 148.08811454 -37.859375 151.62109375 C-62.94188188 154.54605062 -86.242157 148.35846426 -106.1171875 132.90625 C-111.58457987 128.22564831 -116.04954631 123.00800282 -120.3046875 117.21875 C-120.93246094 116.36667969 -121.56023437 115.51460937 -122.20703125 114.63671875 C-125.78819281 109.40994684 -128.37181159 104.05183305 -130.6171875 98.15625 C-130.85977295 97.51985596 -131.1023584 96.88346191 -131.35229492 96.2277832 C-138.71515754 75.76844666 -137.62078623 51.52529369 -128.51757812 31.88354492 C-125.17815274 25.03692777 -121.34792657 18.9537608 -116.3046875 13.21875 C-115.70140625 12.47367188 -115.098125 11.72859375 -114.4765625 10.9609375 C-101.5989144 -4.48177059 -81.22550661 -14.33492273 -61.35791016 -16.59594727 C-39.47698012 -18.5706947 -17.62472103 -13.62181829 0 0 Z " fill="#00A94B" transform="translate(135.3046875,171.78125)"/>
<path d="M0 0 C1.60205819 1.36400135 3.15596169 2.78435493 4.6953125 4.21875 C4.20274764 8.49055143 1.76517043 10.49294678 -1.21484375 13.421875 C-1.94519081 14.1458548 -1.94519081 14.1458548 -2.69029236 14.88446045 C-4.242342 16.4197585 -5.80450886 17.94427925 -7.3671875 19.46875 C-8.42321107 20.5097222 -9.47855788 21.5513814 -10.53320312 22.59375 C-13.11590165 25.14342633 -15.70777632 27.68354196 -18.3046875 30.21875 C-21.34145328 28.72632579 -24.18555018 27.07674517 -27.0546875 25.28125 C-38.19941417 18.56163539 -49.56905116 16.50881089 -62.3046875 19.40625 C-76.03826863 23.21723095 -86.5608766 30.87825007 -93.83203125 43.2890625 C-99.21790685 54.00366913 -101.33100411 66.45354477 -98.86450195 78.34008789 C-98.4375 80.4296875 -98.4375 80.4296875 -98.3046875 84.21875 C-100.55859375 86.80078125 -100.55859375 86.80078125 -103.8671875 89.03125 C-105.06379712 89.86663465 -106.25906148 90.70394884 -107.453125 91.54296875 C-108.08186523 91.97270996 -108.71060547 92.40245117 -109.35839844 92.84521484 C-113.32150713 95.64205999 -117.04151134 98.76323306 -120.80883789 101.81567383 C-125.08686756 105.21875 -125.08686756 105.21875 -127.3046875 105.21875 C-136.30960642 85.46487647 -139.00790617 63.00522732 -132.69921875 41.89453125 C-128.70116208 31.35623621 -123.78359207 21.72352201 -116.3046875 13.21875 C-115.70140625 12.47367188 -115.098125 11.72859375 -114.4765625 10.9609375 C-101.5989144 -4.48177059 -81.22550661 -14.33492273 -61.35791016 -16.59594727 C-39.47698012 -18.5706947 -17.62472103 -13.62181829 0 0 Z " fill="#FF4030" transform="translate(135.3046875,171.78125)"/>
<path d="M0 0 C70.04294479 0 70.04294479 0 85.0625 13.91015625 C94.24930684 23.5523436 96.49785561 34.76068166 96.27734375 47.58984375 C95.86367916 57.16998643 92.32706216 64.91861656 86 72 C85.28263672 72.88945312 85.28263672 72.88945312 84.55078125 73.796875 C76.86588102 82.54643396 65.33516602 86.83795056 54 88 C47.94063884 88.28735857 41.87607659 88.18892538 35.8125 88.125 C27.4903125 88.063125 27.4903125 88.063125 19 88 C19 107.47 19 126.94 19 147 C12.73 147 6.46 147 0 147 C0 98.49 0 49.98 0 0 Z M19 19 C19 35.5 19 52 19 69 C27.3221875 69.12375 27.3221875 69.12375 35.8125 69.25 C37.53960205 69.28641602 39.2667041 69.32283203 41.04614258 69.36035156 C51.38075159 69.4879565 60.80686772 68.98416319 68.9375 61.8125 C74.2057526 55.86038769 76.77015326 49.4537189 76.375 41.4765625 C75.24625832 34.02216433 71.57388963 29.01871924 66.390625 23.7265625 C60.34353279 19.35921812 54.3452831 18.56082973 47.125 18.70703125 C46.04605469 18.71156311 46.04605469 18.71156311 44.9453125 18.71618652 C42.29672589 18.73170559 39.64834622 18.77358749 37 18.8125 C31.06 18.874375 25.12 18.93625 19 19 Z " fill="#FFFFFF" transform="translate(220,166)"/>
<path d="M0 0 C8.83431594 6.45584626 13.42692652 14.68879314 16.0625 25.1875 C16.22823161 27.65110951 16.29822974 30.12239024 16.28955078 32.59155273 C16.28984283 33.294832 16.29013489 33.99811127 16.29043579 34.72270203 C16.28905446 37.02229623 16.27355057 39.32155691 16.2578125 41.62109375 C16.2540781 43.22534508 16.25123314 44.82959871 16.24923706 46.43385315 C16.24163422 50.63750608 16.22201484 54.84101881 16.1998291 59.0446167 C16.17929819 63.34157414 16.1702199 67.63855443 16.16015625 71.93554688 C16.13876548 80.35293581 16.10361098 88.77018426 16.0625 97.1875 C9.7925 97.1875 3.5225 97.1875 -2.9375 97.1875 C-3.2675 93.5575 -3.5975 89.9275 -3.9375 86.1875 C-5.05125 87.404375 -6.165 88.62125 -7.3125 89.875 C-14.95264927 97.54233841 -23.31611191 100.40508248 -33.9375 100.5 C-45.77674127 100.51135477 -55.30586184 97.5964967 -63.9375 89.1875 C-71.72543294 80.66517865 -73.69283382 72.34246225 -73.28125 61.03515625 C-72.50644563 52.36263003 -68.35225433 45.96963556 -61.9375 40.1875 C-49.55255099 31.47048835 -33.39359008 29.13992355 -18.62060547 31.56835938 C-7.51629934 33.89810033 -7.51629934 33.89810033 -2.9375 36.1875 C-3.75253157 28.54306592 -5.08868702 22.49475622 -10.9375 17.1875 C-18.32569878 12.23320617 -25.20541676 10.44145644 -33.9375 11.8125 C-41.91420325 13.65045006 -47.11892192 17.71253571 -51.9375 24.1875 C-56.20936525 22.65896065 -59.93076863 20.47240519 -63.75 18.0625 C-64.6462207 17.50369141 -64.6462207 17.50369141 -65.56054688 16.93359375 C-67.02176251 16.0217952 -68.47994585 15.10514024 -69.9375 14.1875 C-66.73346604 5.03538318 -59.47334738 0.50520837 -51.0625 -3.5859375 C-35.04928482 -9.87112446 -14.74115641 -9.07335205 0 0 Z M-49.9375 56.1875 C-52.77055956 60.93972894 -53.43285222 64.68403047 -52.56640625 70.046875 C-51.11608153 74.983384 -47.70115698 77.97546077 -43.4375 80.5625 C-37.17396191 83.38050012 -29.9519633 83.2248766 -23.3828125 81.52734375 C-14.62838951 78.02860377 -8.16117171 71.52607934 -3.9375 63.1875 C-2.7797494 59.71424819 -2.86883348 56.82682552 -2.9375 53.1875 C-17.55784981 45.35516974 -37.52329411 42.84222867 -49.9375 56.1875 Z " fill="#FFFFFF" transform="translate(393.9375,215.8125)"/>
<path d="M0 0 C7.26 0 14.52 0 22 0 C26.47264905 9.45449199 30.51885513 19.0086493 34.40841675 28.71353149 C36.04536915 32.79746234 37.69280875 36.87715851 39.33984375 40.95703125 C39.81832512 42.14316261 39.81832512 42.14316261 40.30647278 43.35325623 C43.77593761 51.94244638 47.35380037 60.48443473 51 69 C54.27961575 62.69829568 56.98627361 56.27443197 59.58984375 49.66796875 C60.01624649 48.59557449 60.44264923 47.52318024 60.88197327 46.41828918 C62.23715351 43.00933986 63.58777563 39.59861282 64.9375 36.1875 C66.28393508 32.78721366 67.63147023 29.38738287 68.98231506 25.98884583 C69.81978066 23.88172747 70.65477901 21.77362612 71.48680115 19.66435242 C74.12995531 13.01161854 76.99467898 6.49749671 80 0 C86.93 0 93.86 0 101 0 C100.12863558 4.35682208 98.87609353 7.95258993 97.10546875 11.96484375 C96.65718468 12.99683899 96.65718468 12.99683899 96.19984436 14.04968262 C95.20032801 16.34765542 94.19387606 18.64252401 93.1875 20.9375 C92.46990508 22.58385988 91.75279436 24.23043087 91.03613281 25.87719727 C89.49778753 29.41011679 87.95667919 32.94181313 86.41357422 36.47265625 C83.99890547 41.99944785 81.59400655 47.53045317 79.19140625 53.0625 C75.86318955 60.72505349 72.5325287 68.38653573 69.19921875 76.046875 C65.61475127 84.28483766 62.03466504 92.52469245 58.45703125 100.765625 C57.09744461 103.89636358 55.73776833 107.02706321 54.37805176 110.15774536 C53.51192608 112.15245843 52.64611382 114.14730763 51.78063965 116.14230347 C47.59259785 125.79569675 43.40134993 135.44151277 39 145 C32.07 145 25.14 145 18 145 C21.56224606 136.76694433 25.16545772 128.57438565 29 120.46484375 C29.9981034 118.33642549 30.99498818 116.20743973 31.99169922 114.07836914 C32.67271621 112.63240352 33.35939007 111.18909063 34.05126953 109.74829102 C35.07132731 107.61940234 36.06868055 105.4810818 37.0625 103.33984375 C37.37380859 102.7043309 37.68511719 102.06881805 38.00585938 101.41404724 C40.09396952 96.83998534 40.21720784 93.84559835 39 89 C38.00995288 86.40989608 36.98284383 83.9508063 35.81640625 81.4453125 C35.4891153 80.72260162 35.16182434 79.99989075 34.82461548 79.25527954 C34.11565622 77.69214752 33.40268763 76.13082895 32.68612671 74.57116699 C31.15097849 71.22910608 29.63576762 67.87813506 28.11952209 64.52746582 C27.3194752 62.7597025 26.51846406 60.99237528 25.71653748 59.22546387 C21.53021917 49.99341574 17.4386577 40.72038262 13.3666687 31.43743896 C12.21002656 28.8013402 11.05056494 26.16649478 9.89086914 23.53173828 C9.17054012 21.89103636 8.45039743 20.25025262 7.73046875 18.609375 C7.411315 17.88473053 7.09216125 17.16008606 6.76333618 16.41348267 C4.38609158 10.98108927 2.20561836 5.51404589 0 0 Z " fill="#FFFFFF" transform="translate(411,212)"/>
<path d="M0 0 C26.4 0 52.8 0 80 0 C83.97023037 23.8213822 81.72947531 48.06512035 67.87890625 68.515625 C64.81970595 72.56063828 61.49261882 76.32594643 58 80 C53.0733689 78.44867532 49.66220617 75.5498469 45.75 72.3125 C44.42094499 71.23001176 43.09151878 70.14797912 41.76171875 69.06640625 C40.79951416 68.27967529 40.79951416 68.27967529 39.81787109 67.47705078 C36.26185355 64.58772683 32.63074529 61.79439475 29 59 C29.680625 58.360625 30.36125 57.72125 31.0625 57.0625 C33.33858498 54.75408427 35.48741341 52.36599834 37.5625 49.875 C38.12066406 49.21242188 38.67882812 48.54984375 39.25390625 47.8671875 C41.85639217 43.59375425 43.29008338 38.70227071 45 34 C30.15 33.67 15.3 33.34 0 33 C0 22.11 0 11.22 0 0 Z " fill="#0085F6" transform="translate(83,223)"/>
<path d="M0 0 C0.48251221 0.36206543 0.96502441 0.72413086 1.4621582 1.09716797 C5.00808237 3.75735882 8.55518468 6.41594248 12.10546875 9.0703125 C14.14648438 10.59765625 14.14648438 10.59765625 16.1875 12.125 C16.87263672 12.63675781 17.55777344 13.14851562 18.26367188 13.67578125 C19.58638412 14.66622411 20.90298872 15.66489287 22.21240234 16.67285156 C24.16215219 18.16165078 24.16215219 18.16165078 27.05078125 19.8671875 C27.69402344 20.57101563 28.33726563 21.27484375 29 22 C28.8203125 25.71875 28.8203125 25.71875 28.40722656 27.828125 C27.74269935 31.37227012 27.85535526 34.90501175 27.875 38.5 C27.87113281 39.20769531 27.86726563 39.91539062 27.86328125 40.64453125 C27.87000115 44.32031814 28.11567917 47.62678719 28.85546875 51.23046875 C29 55 29 55 26.74609375 57.58203125 C25.65425781 58.31808594 24.56242187 59.05414063 23.4375 59.8125 C22.24089038 60.64788465 21.04562602 61.48519884 19.8515625 62.32421875 C19.22282227 62.75395996 18.59408203 63.18370117 17.94628906 63.62646484 C13.98318037 66.42330999 10.26317616 69.54448306 6.49584961 72.59692383 C2.21781994 76 2.21781994 76 0 76 C-9.58831212 54.96635087 -11.86812656 31.08923369 -4 9 C-2.79041819 5.89840339 -1.49054399 2.98108798 0 0 Z " fill="#FEBA00" transform="translate(8,201)"/>
</svg>
