<?xml version="1.0" encoding="UTF-8"?>
<svg version="1.1" xmlns="http://www.w3.org/2000/svg" width="512" height="512">
<path d="M0 0 C1.23724496 -0.00538554 2.47448993 -0.01077108 3.74922717 -0.01631981 C7.16250358 -0.02810609 10.57528857 -0.02654953 13.98854494 -0.019153 C17.67781593 -0.01440808 21.36703539 -0.02694287 25.05628967 -0.03717041 C32.27580642 -0.0543381 39.49523606 -0.05520262 46.71476792 -0.04995751 C52.58498674 -0.04591065 58.45517989 -0.04736548 64.32539749 -0.05270576 C65.58020613 -0.0538284 65.58020613 -0.0538284 66.86036444 -0.05497371 C68.5599786 -0.05650524 70.25959275 -0.05804359 71.95920689 -0.05958868 C87.88639238 -0.07330647 103.81352871 -0.06788119 119.74071307 -0.05640347 C134.29860944 -0.04647264 148.85637867 -0.05941042 163.41425543 -0.08333766 C178.37710089 -0.10774443 193.33988718 -0.1173326 208.30275214 -0.11068493 C216.69732906 -0.10719611 225.09180825 -0.10940241 233.48637009 -0.12693596 C240.63271276 -0.14167773 247.77888887 -0.1422677 254.92522834 -0.12486505 C258.5681873 -0.11636869 262.21084896 -0.11417166 265.85379219 -0.1295166 C269.8104755 -0.14597614 273.76670305 -0.13117977 277.72338867 -0.11352539 C278.86416567 -0.1231304 280.00494267 -0.1327354 281.18028867 -0.14263147 C292.62179504 -0.03786551 302.26664652 3.229758 310.48867798 11.38768005 C317.3806656 19.90840874 320.6091325 28.4559875 320.62010574 39.40934277 C320.62215838 40.10772598 320.62421101 40.8061092 320.62632585 41.52565554 C320.63199093 43.87137963 320.6305392 46.21704493 320.62911987 48.56277466 C320.63170379 50.25938144 320.63471702 51.95598762 320.63812327 53.65259296 C320.64619339 58.31944153 320.64798285 62.98627473 320.64872074 67.65312946 C320.65057127 72.68464055 320.6581186 77.71614367 320.66485596 82.74765015 C320.67843983 93.7518057 320.68446406 104.75595761 320.68886662 115.76012015 C320.69162891 122.63063684 320.69586624 129.50115212 320.70037079 136.37166786 C320.71256345 155.39264557 320.72286282 174.41362216 320.72624588 193.43460369 C320.72646545 194.6520683 320.72668501 195.86953291 320.72691123 197.12389039 C320.72712951 198.34427387 320.72734779 199.56465734 320.72757268 200.82202214 C320.72801615 203.29499861 320.72846271 205.76797507 320.72891235 208.24095154 C320.72913378 209.46763421 320.72935521 210.69431689 320.72958335 211.95817176 C320.73353153 231.83568403 320.75098618 251.71315963 320.77427188 271.59065773 C320.79798379 291.9966297 320.81044766 312.40258328 320.8116138 332.80856925 C320.81253064 344.26656167 320.81828531 355.72450632 320.83643341 367.18248558 C320.85183221 376.93907003 320.85695614 386.69559196 320.84869531 396.45218625 C320.84478806 401.42958691 320.84572213 406.40686165 320.85975266 411.38424683 C320.87248685 415.94346949 320.87129823 420.50247155 320.85916194 425.06169388 C320.85720412 426.70841612 320.86028731 428.35515395 320.86900631 430.00185426 C320.9430664 444.93835966 318.47358977 455.8942564 308.48867798 467.38768005 C305.93789673 469.3368988 305.93789673 469.3368988 303.17617798 471.07518005 C302.27254517 471.65654724 301.36891235 472.23791443 300.43789673 472.8368988 C293.1087464 476.6907699 286.35405127 476.67699788 278.21786499 476.65510559 C276.98232888 476.6596367 275.74679276 476.66416782 274.47381616 476.66883624 C271.05612155 476.67928748 267.6386378 476.68080934 264.22094226 476.67844748 C260.53028029 476.67803856 256.83964945 476.68908574 253.14900208 476.69856262 C245.92254583 476.71515733 238.69612222 476.72067148 231.46964851 476.72178738 C225.59366528 476.72273861 219.71769279 476.72685267 213.84171295 476.73318863 C197.17151572 476.75079715 180.50134422 476.76002815 163.83113763 476.75852768 C162.93292575 476.75844777 162.03471387 476.75836786 161.10928345 476.75828552 C160.2099711 476.75820376 159.31065875 476.758122 158.38409451 476.75803776 C143.81314241 476.75722505 129.24229374 476.77635991 114.67137155 476.80456226 C99.69955516 476.83331119 84.72778918 476.84710143 69.75594449 476.8453747 C61.35462402 476.84471148 52.95341196 476.85017409 44.55211639 476.8717308 C37.39841416 476.8899691 30.24486947 476.89426829 23.09115401 476.88071196 C19.44415242 476.8741955 15.79745286 476.87401675 12.15048027 476.89141846 C8.18932335 476.91012419 4.22860411 476.89756 0.26742554 476.88215637 C-0.8747157 476.8924435 -2.01685694 476.90273062 -3.19360852 476.91332948 C-14.64033477 476.81521479 -24.28555654 473.54930701 -32.51132202 465.38768005 C-39.26516596 457.0377417 -42.65811262 448.53482113 -42.60897827 437.7743988 C-42.60575562 436.52723083 -42.60253296 435.28006287 -42.59921265 433.99510193 C-42.59083374 432.70152771 -42.58245483 431.40795349 -42.57382202 430.07518005 C-42.5693103 428.7622699 -42.56479858 427.44935974 -42.56015015 426.09666443 C-42.54838151 422.86028995 -42.53193962 419.62400828 -42.51132202 416.38768005 C-43.07641479 416.39815369 -43.64150757 416.40862732 -44.22372437 416.41941833 C-46.77787855 416.46092794 -49.33196184 416.48698965 -51.88632202 416.51268005 C-52.77577515 416.52943787 -53.66522827 416.54619568 -54.58163452 416.5634613 C-55.43241577 416.56990662 -56.28319702 416.57635193 -57.15975952 416.58299255 C-57.94528198 416.59346619 -58.73080444 416.60393982 -59.54013062 416.61473083 C-61.51132202 416.38768005 -61.51132202 416.38768005 -63.51132202 414.38768005 C-63.77694702 412.51268005 -63.77694702 412.51268005 -63.76132202 410.38768005 C-63.7690564 409.33580505 -63.7690564 409.33580505 -63.77694702 408.26268005 C-63.51132202 406.38768005 -63.51132202 406.38768005 -61.51132202 404.38768005 C-58.90600586 404.12266541 -58.90600586 404.12266541 -55.56454468 404.10057068 C-54.31629913 404.08715637 -53.06805359 404.07374207 -51.78198242 404.05992126 C-50.77851713 404.05607674 -50.77851713 404.05607674 -49.75477982 404.05215454 C-47.66142664 404.04387485 -45.56851174 404.02337834 -43.47528076 403.99961853 C-39.02902613 403.95134608 -34.58272767 403.91845393 -30.13632202 403.88768005 C-24.99088302 403.85200664 -19.84565703 403.81003743 -14.70042038 403.7517395 C-12.63976965 403.73169162 -10.57928255 403.72335472 -8.51855469 403.71543884 C-7.26400482 403.70202454 -6.00945496 403.68861023 -4.71688843 403.67478943 C-3.61261505 403.66749817 -2.50834167 403.66020691 -1.37060547 403.6526947 C1.43821463 403.39235728 3.10219224 402.8414274 5.48867798 401.38768005 C5.48867798 399.40768005 5.48867798 397.42768005 5.48867798 395.38768005 C2.53951492 393.70641525 0.37974803 393.12718126 -3.00448608 393.0688324 C-3.897323 393.04877136 -4.79015991 393.02871033 -5.71005249 393.00804138 C-7.10441528 392.99100159 -7.10441528 392.99100159 -8.52694702 392.97361755 C-9.81834595 392.94715149 -9.81834595 392.94715149 -11.13583374 392.92015076 C-14.34414172 392.85720401 -17.55275942 392.81093427 -20.76132202 392.76268005 C-27.93882202 392.63893005 -35.11632202 392.51518005 -42.51132202 392.38768005 C-42.51132202 373.90768005 -42.51132202 355.42768005 -42.51132202 336.38768005 C-48.78132202 336.38768005 -55.05132202 336.38768005 -61.51132202 336.38768005 C-63.51132202 334.38768005 -63.51132202 334.38768005 -63.77694702 332.51268005 C-63.77179077 331.81143005 -63.76663452 331.11018005 -63.76132202 330.38768005 C-63.7690564 329.33580505 -63.7690564 329.33580505 -63.77694702 328.26268005 C-63.51132202 326.38768005 -63.51132202 326.38768005 -61.51132202 324.38768005 C-58.90600586 324.12266541 -58.90600586 324.12266541 -55.56454468 324.10057068 C-54.31629913 324.08715637 -53.06805359 324.07374207 -51.78198242 324.05992126 C-50.77851713 324.05607674 -50.77851713 324.05607674 -49.75477982 324.05215454 C-47.66142664 324.04387485 -45.56851174 324.02337834 -43.47528076 323.99961853 C-39.02902613 323.95134608 -34.58272767 323.91845393 -30.13632202 323.88768005 C-24.99088302 323.85200664 -19.84565703 323.81003743 -14.70042038 323.7517395 C-12.63976965 323.73169162 -10.57928255 323.72335472 -8.51855469 323.71543884 C-7.26400482 323.70202454 -6.00945496 323.68861023 -4.71688843 323.67478943 C-3.61261505 323.66749817 -2.50834167 323.66020691 -1.37060547 323.6526947 C1.43821463 323.39235728 3.10219224 322.8414274 5.48867798 321.38768005 C5.48867798 319.40768005 5.48867798 317.42768005 5.48867798 315.38768005 C2.53951492 313.70641525 0.37974803 313.12718126 -3.00448608 313.0688324 C-3.897323 313.04877136 -4.79015991 313.02871033 -5.71005249 313.00804138 C-7.10441528 312.99100159 -7.10441528 312.99100159 -8.52694702 312.97361755 C-9.81834595 312.94715149 -9.81834595 312.94715149 -11.13583374 312.92015076 C-14.34414172 312.85720401 -17.55275942 312.81093427 -20.76132202 312.76268005 C-27.93882202 312.63893005 -35.11632202 312.51518005 -42.51132202 312.38768005 C-42.51132202 293.90768005 -42.51132202 275.42768005 -42.51132202 256.38768005 C-48.78132202 256.38768005 -55.05132202 256.38768005 -61.51132202 256.38768005 C-63.51132202 254.38768005 -63.51132202 254.38768005 -63.77694702 252.51268005 C-63.76921265 251.46080505 -63.76921265 251.46080505 -63.76132202 250.38768005 C-63.76647827 249.68643005 -63.77163452 248.98518005 -63.77694702 248.26268005 C-63.51132202 246.38768005 -63.51132202 246.38768005 -61.51132202 244.38768005 C-58.90600586 244.12266541 -58.90600586 244.12266541 -55.56454468 244.10057068 C-54.31629913 244.08715637 -53.06805359 244.07374207 -51.78198242 244.05992126 C-51.11300556 244.05735825 -50.4440287 244.05479523 -49.75477982 244.05215454 C-47.66142664 244.04387485 -45.56851174 244.02337834 -43.47528076 243.99961853 C-39.02902613 243.95134608 -34.58272767 243.91845393 -30.13632202 243.88768005 C-24.99088302 243.85200664 -19.84565703 243.81003743 -14.70042038 243.7517395 C-12.63976965 243.73169162 -10.57928255 243.72335472 -8.51855469 243.71543884 C-7.26400482 243.70202454 -6.00945496 243.68861023 -4.71688843 243.67478943 C-3.61261505 243.66749817 -2.50834167 243.66020691 -1.37060547 243.6526947 C1.43821463 243.39235728 3.10219224 242.8414274 5.48867798 241.38768005 C5.48867798 239.40768005 5.48867798 237.42768005 5.48867798 235.38768005 C2.53951492 233.70641525 0.37974803 233.12718126 -3.00448608 233.0688324 C-3.897323 233.04877136 -4.79015991 233.02871033 -5.71005249 233.00804138 C-7.10441528 232.99100159 -7.10441528 232.99100159 -8.52694702 232.97361755 C-9.81834595 232.94715149 -9.81834595 232.94715149 -11.13583374 232.92015076 C-14.34414172 232.85720401 -17.55275942 232.81093427 -20.76132202 232.76268005 C-27.93882202 232.63893005 -35.11632202 232.51518005 -42.51132202 232.38768005 C-42.51132202 213.90768005 -42.51132202 195.42768005 -42.51132202 176.38768005 C-48.78132202 176.38768005 -55.05132202 176.38768005 -61.51132202 176.38768005 C-63.51132202 174.38768005 -63.51132202 174.38768005 -63.77694702 172.51268005 C-63.76921265 171.46080505 -63.76921265 171.46080505 -63.76132202 170.38768005 C-63.76647827 169.68643005 -63.77163452 168.98518005 -63.77694702 168.26268005 C-63.51132202 166.38768005 -63.51132202 166.38768005 -61.51132202 164.38768005 C-58.90600586 164.12266541 -58.90600586 164.12266541 -55.56454468 164.10057068 C-54.31629913 164.08715637 -53.06805359 164.07374207 -51.78198242 164.05992126 C-51.11300556 164.05735825 -50.4440287 164.05479523 -49.75477982 164.05215454 C-47.66142664 164.04387485 -45.56851174 164.02337834 -43.47528076 163.99961853 C-39.02902613 163.95134608 -34.58272767 163.91845393 -30.13632202 163.88768005 C-24.99088302 163.85200664 -19.84565703 163.81003743 -14.70042038 163.7517395 C-12.63976965 163.73169162 -10.57928255 163.72335472 -8.51855469 163.71543884 C-7.26400482 163.70202454 -6.00945496 163.68861023 -4.71688843 163.67478943 C-3.61261505 163.66749817 -2.50834167 163.66020691 -1.37060547 163.6526947 C1.43821463 163.39235728 3.10219224 162.8414274 5.48867798 161.38768005 C5.48867798 159.40768005 5.48867798 157.42768005 5.48867798 155.38768005 C2.53951492 153.70641525 0.37974803 153.12718126 -3.00448608 153.0688324 C-3.897323 153.04877136 -4.79015991 153.02871033 -5.71005249 153.00804138 C-7.10441528 152.99100159 -7.10441528 152.99100159 -8.52694702 152.97361755 C-9.81834595 152.94715149 -9.81834595 152.94715149 -11.13583374 152.92015076 C-14.34414172 152.85720401 -17.55275942 152.81093427 -20.76132202 152.76268005 C-27.93882202 152.63893005 -35.11632202 152.51518005 -42.51132202 152.38768005 C-42.51132202 133.90768005 -42.51132202 115.42768005 -42.51132202 96.38768005 C-48.78132202 96.38768005 -55.05132202 96.38768005 -61.51132202 96.38768005 C-63.51132202 94.38768005 -63.51132202 94.38768005 -63.77694702 92.51268005 C-63.77179077 91.81143005 -63.76663452 91.11018005 -63.76132202 90.38768005 C-63.76647827 89.68643005 -63.77163452 88.98518005 -63.77694702 88.26268005 C-63.51132202 86.38768005 -63.51132202 86.38768005 -61.51132202 84.38768005 C-58.90600586 84.12266541 -58.90600586 84.12266541 -55.56454468 84.10057068 C-54.31629913 84.08715637 -53.06805359 84.07374207 -51.78198242 84.05992126 C-51.11300556 84.05735825 -50.4440287 84.05479523 -49.75477982 84.05215454 C-47.66142664 84.04387485 -45.56851174 84.02337834 -43.47528076 83.99961853 C-39.02902613 83.95134608 -34.58272767 83.91845393 -30.13632202 83.88768005 C-24.99088302 83.85200664 -19.84565703 83.81003743 -14.70042038 83.7517395 C-12.63976965 83.73169162 -10.57928255 83.72335472 -8.51855469 83.71543884 C-7.26400482 83.70202454 -6.00945496 83.68861023 -4.71688843 83.67478943 C-3.61261505 83.66749817 -2.50834167 83.66020691 -1.37060547 83.6526947 C1.43821463 83.39235728 3.10219224 82.8414274 5.48867798 81.38768005 C5.48867798 79.40768005 5.48867798 77.42768005 5.48867798 75.38768005 C2.53951492 73.70641525 0.37974803 73.12718126 -3.00448608 73.0688324 C-3.88509705 73.04896271 -4.76570801 73.02909302 -5.67300415 73.00862122 C-6.6148053 72.99707001 -7.55660645 72.9855188 -8.52694702 72.97361755 C-9.49791321 72.9542514 -10.46887939 72.93488525 -11.4692688 72.91493225 C-14.56653088 72.85521496 -17.66383028 72.80878226 -20.76132202 72.76268005 C-22.86290061 72.72449307 -24.96446367 72.68544092 -27.06600952 72.64549255 C-32.2143207 72.54951975 -37.36270514 72.46545945 -42.51132202 72.38768005 C-42.58603561 66.87420034 -42.64018817 61.36102184 -42.67611694 55.84715271 C-42.69111067 53.97535563 -42.71151252 52.10359311 -42.73764038 50.23191833 C-42.93981454 35.3661713 -42.45086707 23.4001366 -32.19882202 11.76268005 C-21.89247184 2.65474268 -13.82169934 -0.07253428 0 0 Z M49.48867798 123.38768005 C48.94727173 123.92779724 48.40586548 124.46791443 47.84805298 125.0243988 C37.79476372 135.44922267 33.55111229 149.9762425 33.05117798 164.20018005 C34.09957008 200.77293514 62.40057604 239.15737448 84.48867798 266.38768005 C85.20926392 267.29904724 85.92984985 268.21041443 86.67227173 269.1493988 C100.64336213 286.60703583 116.63824986 303.87520514 134.48867798 317.38768005 C135.65076549 318.30094252 136.81217619 319.21506659 137.97305298 320.12986755 C166.14589506 342.07902342 204.38922974 366.36962942 241.48867798 363.38768005 C253.46911563 360.99159252 264.47599074 353.27821536 271.48867798 343.38768005 C276.70882886 334.07031772 278.13084061 323.79150502 275.42617798 313.38768005 C269.6902695 296.44798772 252.44217802 276.34244371 237.05117798 267.38768005 C230.57272502 265.56916694 223.82075894 265.43087828 217.53945923 268.0868988 C213.88406782 270.40546135 211.10257461 273.62716885 208.13320923 276.74705505 C200.82494613 284.04452308 192.97401236 289.55086271 182.61367798 290.88768005 C166.83921197 290.00625517 150.72507837 272.2421608 139.96328735 261.8110199 C138.53385997 260.43129115 137.08187687 259.07505006 135.62930298 257.7197113 C124.1940257 246.7851312 109.58162642 230.30175439 108.28555298 213.80174255 C108.26234985 212.42115662 108.26234985 212.42115662 108.23867798 211.01268005 C108.21289673 210.09744568 108.18711548 209.1822113 108.16055298 208.23924255 C108.91822263 201.65473245 112.53997335 198.1232834 117.42617798 194.07518005 C123.52413928 188.69987267 126.81140296 184.52424107 127.88320923 176.39549255 C128.64135925 161.69090851 121.39615564 149.28597994 111.87149048 138.56785583 C105.11637506 131.27592271 98.08981644 124.46709253 89.48867798 119.38768005 C88.55668579 118.81146912 87.6246936 118.23525818 86.66445923 117.6415863 C73.43537211 110.15375006 59.60583564 111.62990223 49.48867798 123.38768005 Z " fill="#000000" transform="translate(107.51132202148438,17.612319946289063)"/>
<path d="M0 0 C8.75285234 0 14.45552033 0.31462565 21.75 4.625 C28.40400684 11.64867388 29.76150038 18.45309379 29.69921875 27.90234375 C29.70637405 29.02008682 29.71352936 30.1378299 29.72090149 31.28944397 C29.72864942 33.64176644 29.72372852 35.99416132 29.70678711 38.34643555 C29.68757031 41.92440889 29.72698768 45.49848974 29.77148438 49.07617188 C29.7717748 51.37239812 29.76863323 53.66862789 29.76171875 55.96484375 C29.77700119 57.02243393 29.79228363 58.08002411 29.80802917 59.16966248 C29.68993498 66.78353443 27.70773657 71.98721075 23 78 C15.80912748 84.11989151 9.36377325 84 0 84 C0 56.28 0 28.56 0 0 Z " fill="#000000" transform="translate(439,342)"/>
<path d="M0 0 C8.75285234 0 14.45552033 0.31462565 21.75 4.625 C28.40400684 11.64867388 29.76150038 18.45309379 29.69921875 27.90234375 C29.70637405 29.02008682 29.71352936 30.1378299 29.72090149 31.28944397 C29.72864942 33.64176644 29.72372852 35.99416132 29.70678711 38.34643555 C29.68757031 41.92440889 29.72698768 45.49848974 29.77148438 49.07617188 C29.7717748 51.37239812 29.76863323 53.66862789 29.76171875 55.96484375 C29.77700119 57.02243393 29.79228363 58.08002411 29.80802917 59.16966248 C29.68993498 66.78353443 27.70773657 71.98721075 23 78 C15.80912748 84.11989151 9.36377325 84 0 84 C0 56.28 0 28.56 0 0 Z " fill="#000000" transform="translate(439,214)"/>
<path d="M0 0 C8.75285234 0 14.45552033 0.31462565 21.75 4.625 C28.40400684 11.64867388 29.76150038 18.45309379 29.69921875 27.90234375 C29.70637405 29.02008682 29.71352936 30.1378299 29.72090149 31.28944397 C29.72864942 33.64176644 29.72372852 35.99416132 29.70678711 38.34643555 C29.68757031 41.92440889 29.72698768 45.49848974 29.77148438 49.07617188 C29.7717748 51.37239812 29.76863323 53.66862789 29.76171875 55.96484375 C29.77700119 57.02243393 29.79228363 58.08002411 29.80802917 59.16966248 C29.68993498 66.78353443 27.70773657 71.98721075 23 78 C15.80912748 84.11989151 9.36377325 84 0 84 C0 56.28 0 28.56 0 0 Z " fill="#000000" transform="translate(439,86)"/>
</svg>
