<?xml version="1.0" encoding="UTF-8"?>
<svg version="1.1" xmlns="http://www.w3.org/2000/svg" width="350" height="613">
<path d="M0 0 C115.5 0 231 0 350 0 C350 202.29 350 404.58 350 613 C234.5 613 119 613 0 613 C0 410.71 0 208.42 0 0 Z " fill="#D8D8D8" transform="translate(0,0)"/>
<path d="M0 0 C5.28 0 10.56 0 16 0 C16 7.92 16 15.84 16 24 C18.64 24 21.28 24 24 24 C24 26.64 24 29.28 24 32 C26.97 32 29.94 32 33 32 C33 29.36 33 26.72 33 24 C35.64 24 38.28 24 41 24 C41 18.72 41 13.44 41 8 C43.64 8 46.28 8 49 8 C49 10.64 49 13.28 49 16 C54.61 16 60.22 16 66 16 C66 13.36 66 10.72 66 8 C68.31 8 70.62 8 73 8 C73 10.64 73 13.28 73 16 C75.97 16 78.94 16 82 16 C82 21.28 82 26.56 82 32 C79.36 32 76.72 32 74 32 C74 37.28 74 42.56 74 48 C76.64 48 79.28 48 82 48 C82 50.97 82 53.94 82 57 C79.36 57 76.72 57 74 57 C74 59.64 74 62.28 74 65 C71.03 65 68.06 65 65 65 C64.90234375 58.84765625 64.90234375 58.84765625 65 57 C66 56 66 56 69.5625 55.9375 C70.696875 55.958125 71.83125 55.97875 73 56 C73 53.69 73 51.38 73 49 C67.72 49 62.44 49 57 49 C57 43.39 57 37.78 57 32 C54.36 32 51.72 32 49 32 C49 45.53 49 59.06 49 73 C43.72 73 38.44 73 33 73 C33 75.64 33 78.28 33 81 C30.36 81 27.72 81 25 81 C25.020625 82.299375 25.04125 83.59875 25.0625 84.9375 C25.08399454 86.29165633 25.07148199 87.64756083 25 89 C24 90 24 90 20.40234375 90.09765625 C18.91403133 90.0909822 17.42573568 90.07902183 15.9375 90.0625 C15.17888672 90.05798828 14.42027344 90.05347656 13.63867188 90.04882812 C11.75908129 90.0370068 9.87953101 90.01907078 8 90 C8 92.64 8 95.28 8 98 C13.61 98 19.22 98 25 98 C25 100.64 25 103.28 25 106 C14.11 106 3.22 106 -8 106 C-8 103.36 -8 100.72 -8 98 C-5.36 98 -2.72 98 0 98 C0 95.36 0 92.72 0 90 C-2.64 90 -5.28 90 -8 90 C-8 87.03 -8 84.06 -8 81 C-10.64 81 -13.28 81 -16 81 C-16 83.97 -16 86.94 -16 90 C-24.25 90 -32.5 90 -41 90 C-41 92.64 -41 95.28 -41 98 C-38.36 98 -35.72 98 -33 98 C-33 100.64 -33 103.28 -33 106 C-40.92 106 -48.84 106 -57 106 C-57 100.39 -57 94.78 -57 89 C-54.36 89 -51.72 89 -49 89 C-49 86.36 -49 83.72 -49 81 C-43.72 81 -38.44 81 -33 81 C-33 75.72 -33 70.44 -33 65 C-30.03 65 -27.06 65 -24 65 C-24 62.36 -24 59.72 -24 57 C-18.72 57 -13.44 57 -8 57 C-8 54.36 -8 51.72 -8 49 C-5.36 49 -2.72 49 0 49 C0 51.64 0 54.28 0 57 C2.64 57 5.28 57 8 57 C8 48.75 8 40.5 8 32 C5.36 32 2.72 32 0 32 C0 21.44 0 10.88 0 0 Z " fill="#040404" transform="translate(197,134)"/>
<path d="M0 0 C5.61 0 11.22 0 17 0 C17 2.64 17 5.28 17 8 C19.64 8 22.28 8 25 8 C25 5.36 25 2.72 25 0 C30.28 0 35.56 0 41 0 C41 2.64 41 5.28 41 8 C43.64 8 46.28 8 49 8 C49 10.64 49 13.28 49 16 C51.64 16 54.28 16 57 16 C57 18.64 57 21.28 57 24 C51.72 24 46.44 24 41 24 C41 26.97 41 29.94 41 33 C46.61 33 52.22 33 58 33 C58 30.36 58 27.72 58 25 C60.31 25 62.62 25 65 25 C65 32.92 65 40.84 65 49 C73.25 49 81.5 49 90 49 C90 54.28 90 59.56 90 65 C98.25 65 106.5 65 115 65 C115 67.64 115 70.28 115 73 C106.75 73 98.5 73 90 73 C90 75.97 90 78.94 90 82 C92.64 82 95.28 82 98 82 C98 84.64 98 87.28 98 90 C92.72 90 87.44 90 82 90 C82 92.64 82 95.28 82 98 C79.36 98 76.72 98 74 98 C74 92.39 74 86.78 74 81 C71.03 81 68.06 81 65 81 C65 78.69 65 76.38 65 74 C59.72 74 54.44 74 49 74 C49 71.03 49 68.06 49 65 C54.61 65 60.22 65 66 65 C66 67.64 66 70.28 66 73 C71.28 73 76.56 73 82 73 C82 67.72 82 62.44 82 57 C68.47 57 54.94 57 41 57 C41 54.36 41 51.72 41 49 C38.36 49 35.72 49 33 49 C33 54.28 33 59.56 33 65 C35.64 65 38.28 65 41 65 C41 67.64 41 70.28 41 73 C35.72 73 30.44 73 25 73 C25 70.36 25 67.72 25 65 C22.36 65 19.72 65 17 65 C17 62.36 17 59.72 17 57 C19.64 57 22.28 57 25 57 C25 54.03 25 51.06 25 48 C22.36 48 19.72 48 17 48 C17 45.36 17 42.72 17 40 C14.36 40 11.72 40 9 40 C9 37.36 9 34.72 9 32 C6.03 32 3.06 32 0 32 C0 29.36 0 26.72 0 24 C5.28 24 10.56 24 16 24 C16 26.97 16 29.94 16 33 C18.64 33 21.28 33 24 33 C24.33 35.31 24.66 37.62 25 40 C27.64 40.33 30.28 40.66 33 41 C33 38.03 33 35.06 33 32 C30.36 32 27.72 32 25 32 C25 29.36 25 26.72 25 24 C22.36 24 19.72 24 17 24 C17 21.36 17 18.72 17 16 C11.39 16 5.78 16 0 16 C0 10.72 0 5.44 0 0 Z " fill="#020202" transform="translate(74,101)"/>
<path d="M0 0 C9.384375 -0.020625 18.76875 -0.04125 28.4375 -0.0625 C31.40419678 -0.071604 34.37089355 -0.08070801 37.42749023 -0.09008789 C39.76285761 -0.0930068 42.09822549 -0.09555542 44.43359375 -0.09765625 C45.65921021 -0.10277222 46.88482666 -0.10788818 48.14758301 -0.11315918 C49.30471802 -0.11328003 50.46185303 -0.11340088 51.65405273 -0.11352539 C52.664431 -0.115746 53.67480927 -0.11796661 54.71580505 -0.12025452 C57 0 57 0 58 1 C58.09370624 2.77991924 58.11744271 4.56356739 58.11352539 6.34594727 C58.11340454 7.50308228 58.11328369 8.66021729 58.11315918 9.85241699 C58.10804321 11.07803345 58.10292725 12.3036499 58.09765625 13.56640625 C58.09664917 14.68591675 58.09564209 15.80542725 58.09460449 16.9588623 C58.0893535 21.16008522 58.07539239 25.36129359 58.0625 29.5625 C58.0315625 43.6390625 58.0315625 43.6390625 58 58 C38.86 58 19.72 58 0 58 C0 38.86 0 19.72 0 0 Z " fill="#0B0B0B" transform="translate(74,182)"/>
<path d="M0 0 C19.14 0 38.28 0 58 0 C58 19.14 58 38.28 58 58 C48.615625 58.020625 39.23125 58.04125 29.5625 58.0625 C26.59580322 58.071604 23.62910645 58.08070801 20.57250977 58.09008789 C18.23714239 58.0930068 15.90177451 58.09555542 13.56640625 58.09765625 C11.72798157 58.1053302 11.72798157 58.1053302 9.85241699 58.11315918 C8.69528198 58.11328003 7.53814697 58.11340088 6.34594727 58.11352539 C5.335569 58.115746 4.32519073 58.11796661 3.28419495 58.12025452 C1 58 1 58 0 57 C-0.09370624 55.22008076 -0.11744271 53.43643261 -0.11352539 51.65405273 C-0.11340454 50.49691772 -0.11328369 49.33978271 -0.11315918 48.14758301 C-0.10804321 46.92196655 -0.10292725 45.6963501 -0.09765625 44.43359375 C-0.09614563 42.754328 -0.09614563 42.754328 -0.09460449 41.0411377 C-0.0893535 36.83991478 -0.07539239 32.63870641 -0.0625 28.4375 C-0.041875 19.053125 -0.02125 9.66875 0 0 Z " fill="#0B0B0B" transform="translate(221,35)"/>
<path d="M0 0 C19.14 0 38.28 0 58 0 C58.020625 9.384375 58.04125 18.76875 58.0625 28.4375 C58.071604 31.40419678 58.08070801 34.37089355 58.09008789 37.42749023 C58.0930068 39.76285761 58.09555542 42.09822549 58.09765625 44.43359375 C58.10277222 45.65921021 58.10788818 46.88482666 58.11315918 48.14758301 C58.11334045 49.88328552 58.11334045 49.88328552 58.11352539 51.65405273 C58.115746 52.664431 58.11796661 53.67480927 58.12025452 54.71580505 C58 57 58 57 57 58 C55.22008076 58.09370624 53.43643261 58.11744271 51.65405273 58.11352539 C49.91835022 58.11334412 49.91835022 58.11334412 48.14758301 58.11315918 C46.92196655 58.10804321 45.6963501 58.10292725 44.43359375 58.09765625 C42.754328 58.09614563 42.754328 58.09614563 41.0411377 58.09460449 C36.83991478 58.0893535 32.63870641 58.07539239 28.4375 58.0625 C19.053125 58.041875 9.66875 58.02125 0 58 C0 38.86 0 19.72 0 0 Z " fill="#0B0B0B" transform="translate(74,35)"/>
<path d="M0 0 C2.64 0 5.28 0 8 0 C8 2.64 8 5.28 8 8 C13.28 8 18.56 8 24 8 C24 5.36 24 2.72 24 0 C34.89 0 45.78 0 57 0 C57 2.64 57 5.28 57 8 C54.36 8 51.72 8 49 8 C49 10.97 49 13.94 49 17 C51.64 17 54.28 17 57 17 C57 19.64 57 22.28 57 25 C54.36 25 51.72 25 49 25 C49 27.64 49 30.28 49 33 C43.72 33 38.44 33 33 33 C33 35.64 33 38.28 33 41 C38.28 41 43.56 41 49 41 C49 43.64 49 46.28 49 49 C51.64 49 54.28 49 57 49 C57 54.61 57 60.22 57 66 C51.72 66 46.44 66 41 66 C41 68.64 41 71.28 41 74 C48.92 74 56.84 74 65 74 C65 76.64 65 79.28 65 82 C67.64 82 70.28 82 73 82 C73 84.64 73 87.28 73 90 C67.72 90 62.44 90 57 90 C57 87.36 57 84.72 57 82 C54.36 82 51.72 82 49 82 C49 84.64 49 87.28 49 90 C46.36 90 43.72 90 41 90 C41 87.36 41 84.72 41 82 C38.36 82 35.72 82 33 82 C33 84.64 33 87.28 33 90 C30.03 90 27.06 90 24 90 C24 92.64 24 95.28 24 98 C21.36 98 18.72 98 16 98 C16 100.97 16 103.94 16 107 C13.36 107 10.72 107 8 107 C8 101.39 8 95.78 8 90 C10.64 90 13.28 90 16 90 C16 87.36 16 84.72 16 82 C13.36 82 10.72 82 8 82 C8 76.72 8 71.44 8 66 C10.64 66 13.28 66 16 66 C16 57.75 16 49.5 16 41 C18.64 41 21.28 41 24 41 C24 38.36 24 35.72 24 33 C26.64 33 29.28 33 32 33 C32 27.39 32 21.78 32 16 C34.64 16 37.28 16 40 16 C40 13.69 40 11.38 40 9 C35.05 9 30.1 9 25 9 C25 14.28 25 19.56 25 25 C22.03 25 19.06 25 16 25 C16 22.03 16 19.06 16 16 C13.36 16 10.72 16 8 16 C8 13.69 8 11.38 8 9 C5.36 9 2.72 9 0 9 C0 6.03 0 3.06 0 0 Z " fill="#606060" transform="translate(140,35)"/>
<path d="M0 0 C13.53 0 27.06 0 41 0 C41 13.53 41 27.06 41 41 C27.47 41 13.94 41 0 41 C0 27.47 0 13.94 0 0 Z " fill="#CCCCCC" transform="translate(82,191)"/>
<path d="M0 0 C13.53 0 27.06 0 41 0 C41 13.53 41 27.06 41 41 C27.47 41 13.94 41 0 41 C0 27.47 0 13.94 0 0 Z " fill="#CCCCCC" transform="translate(230,43)"/>
<path d="M0 0 C13.53 0 27.06 0 41 0 C41 13.53 41 27.06 41 41 C27.47 41 13.94 41 0 41 C0 27.47 0 13.94 0 0 Z " fill="#CCCCCC" transform="translate(82,43)"/>
<path d="M0 0 C2.64 0 5.28 0 8 0 C8 5.61 8 11.22 8 17 C10.64 17 13.28 17 16 17 C16 19.64 16 22.28 16 25 C18.64 25 21.28 25 24 25 C24 27.64 24 30.28 24 33 C32.25 33 40.5 33 49 33 C49 35.64 49 38.28 49 41 C51.64 41 54.28 41 57 41 C57 43.64 57 46.28 57 49 C51.72 49 46.44 49 41 49 C41 46.36 41 43.72 41 41 C38.36 41 35.72 41 33 41 C33 43.64 33 46.28 33 49 C30.36 49 27.72 49 25 49 C25 46.36 25 43.72 25 41 C22.36 41 19.72 41 17 41 C17 43.64 17 46.28 17 49 C14.03 49 11.06 49 8 49 C8 51.64 8 54.28 8 57 C5.36 57 2.72 57 0 57 C0 59.97 0 62.94 0 66 C-2.64 66 -5.28 66 -8 66 C-8 60.39 -8 54.78 -8 49 C-5.36 49 -2.72 49 0 49 C0 46.36 0 43.72 0 41 C-2.64 41 -5.28 41 -8 41 C-8 35.72 -8 30.44 -8 25 C-5.36 25 -2.72 25 0 25 C0 16.75 0 8.5 0 0 Z " fill="#010101" transform="translate(156,76)"/>
<path d="M0 0 C2.64 0 5.28 0 8 0 C8 2.64 8 5.28 8 8 C13.61 8 19.22 8 25 8 C25 5.36 25 2.72 25 0 C27.31 0 29.62 0 32 0 C32 2.64 32 5.28 32 8 C34.97 8 37.94 8 41 8 C41 13.28 41 18.56 41 24 C38.36 24 35.72 24 33 24 C33 29.28 33 34.56 33 40 C35.64 40 38.28 40 41 40 C41 42.97 41 45.94 41 49 C38.36 49 35.72 49 33 49 C33 51.64 33 54.28 33 57 C30.03 57 27.06 57 24 57 C23.90234375 50.84765625 23.90234375 50.84765625 24 49 C25 48 25 48 28.5625 47.9375 C29.696875 47.958125 30.83125 47.97875 32 48 C32 45.69 32 43.38 32 41 C26.72 41 21.44 41 16 41 C16 35.39 16 29.78 16 24 C13.36 24 10.72 24 8 24 C8 21.36 8 18.72 8 16 C5.36 16 2.72 16 0 16 C0 10.72 0 5.44 0 0 Z " fill="#020202" transform="translate(238,142)"/>
<path d="M0 0 C5.61 0 11.22 0 17 0 C17 10.89 17 21.78 17 33 C14.03 33 11.06 33 8 33 C8 30.36 8 27.72 8 25 C2.72 25 -2.56 25 -8 25 C-8 27.64 -8 30.28 -8 33 C-10.64 33 -13.28 33 -16 33 C-16 30.36 -16 27.72 -16 25 C-21.28 25 -26.56 25 -32 25 C-32 22.03 -32 19.06 -32 16 C-29.36 16 -26.72 16 -24 16 C-24 13.36 -24 10.72 -24 8 C-16.08 8 -8.16 8 0 8 C0 5.36 0 2.72 0 0 Z " fill="#060606" transform="translate(262,207)"/>
<path d="M0 0 C13.2 0 26.4 0 40 0 C40 2.64 40 5.28 40 8 C34.72 8 29.44 8 24 8 C24 10.64 24 13.28 24 16 C29.61 16 35.22 16 41 16 C41 13.36 41 10.72 41 8 C43.64 8 46.28 8 49 8 C49 15.92 49 23.84 49 32 C46.36 32 43.72 32 41 32 C41 29.36 41 26.72 41 24 C32.75 24 24.5 24 16 24 C16 18.72 16 13.44 16 8 C13.36 8 10.72 8 8 8 C8 10.64 8 13.28 8 16 C5.36 16 2.72 16 0 16 C0 10.72 0 5.44 0 0 Z " fill="#020202" transform="translate(230,109)"/>
<path d="M0 0 C10.89 0 21.78 0 33 0 C33 2.64 33 5.28 33 8 C30.36 8 27.72 8 25 8 C25 10.97 25 13.94 25 17 C27.64 17 30.28 17 33 17 C33 19.64 33 22.28 33 25 C30.36 25 27.72 25 25 25 C25 27.64 25 30.28 25 33 C19.72 33 14.44 33 9 33 C9 27.72 9 22.44 9 17 C11.64 17 14.28 17 17 17 C17 14.03 17 11.06 17 8 C11.39 8 5.78 8 0 8 C0 5.36 0 2.72 0 0 Z " fill="#040404" transform="translate(164,35)"/>
<path d="M0 0 C8.25 0 16.5 0 25 0 C25 8.25 25 16.5 25 25 C16.75 25 8.5 25 0 25 C0 16.75 0 8.5 0 0 Z " fill="#CFCFCF" transform="translate(213,174)"/>
<path d="M0 0 C2.97 0 5.94 0 9 0 C9 2.64 9 5.28 9 8 C11.64 8 14.28 8 17 8 C17 10.64 17 13.28 17 16 C22.28 16 27.56 16 33 16 C33 18.64 33 21.28 33 24 C27.72 24 22.44 24 17 24 C17 32.25 17 40.5 17 49 C16.67 49 16.34 49 16 49 C16 41.08 16 33.16 16 25 C13.69 25 11.38 25 9 25 C9 27.64 9 30.28 9 33 C3.39 33 -2.22 33 -8 33 C-8 30.03 -8 27.06 -8 24 C-2.72 24 2.56 24 8 24 C8 21.36 8 18.72 8 16 C5.36 16 2.72 16 0 16 C0 10.72 0 5.44 0 0 Z " fill="#656565" transform="translate(123,101)"/>
<path d="M0 0 C7.92 0 15.84 0 24 0 C24 7.92 24 15.84 24 24 C16.08 24 8.16 24 0 24 C0 16.08 0 8.16 0 0 Z " fill="#000000" transform="translate(91,199)"/>
<path d="M0 0 C7.92 0 15.84 0 24 0 C24 7.92 24 15.84 24 24 C16.08 24 8.16 24 0 24 C0 16.08 0 8.16 0 0 Z " fill="#000000" transform="translate(238,52)"/>
<path d="M0 0 C7.92 0 15.84 0 24 0 C24 7.92 24 15.84 24 24 C16.08 24 8.16 24 0 24 C0 16.08 0 8.16 0 0 Z " fill="#000000" transform="translate(91,52)"/>
<path d="M0 0 C5.61 0 11.22 0 17 0 C17 5.28 17 10.56 17 16 C14.03 16 11.06 16 8 16 C8 18.64 8 21.28 8 24 C5.36 24 2.72 24 0 24 C0 26.97 0 29.94 0 33 C-2.64 33 -5.28 33 -8 33 C-8 27.39 -8 21.78 -8 16 C-5.36 16 -2.72 16 0 16 C0 10.72 0 5.44 0 0 Z " fill="#080808" transform="translate(156,109)"/>
<path d="M0 0 C2.97 0 5.94 0 9 0 C9 2.64 9 5.28 9 8 C11.64 8 14.28 8 17 8 C17 10.97 17 13.94 17 17 C14.36 17 11.72 17 9 17 C9 19.64 9 22.28 9 25 C6.03 25 3.06 25 0 25 C0 22.36 0 19.72 0 17 C-2.64 17 -5.28 17 -8 17 C-8 14.03 -8 11.06 -8 8 C-5.36 8 -2.72 8 0 8 C0 5.36 0 2.72 0 0 Z " fill="#131313" transform="translate(172,133)"/>
<path d="M0 0 C2.97 0 5.94 0 9 0 C9 2.31 9 4.62 9 7 C22.2 7 35.4 7 49 7 C49 4.69 49 2.38 49 0 C51.97 0 54.94 0 58 0 C58 2.64 58 5.28 58 8 C55.36 8 52.72 8 50 8 C50 13.28 50 18.56 50 24 C44.39 24 38.78 24 33 24 C33 21.36 33 18.72 33 16 C38.28 16 43.56 16 49 16 C49 13.36 49 10.72 49 8 C32.83 8 16.66 8 0 8 C0 5.36 0 2.72 0 0 Z " fill="#A2A2A2" transform="translate(221,101)"/>
<path d="M0 0 C2.64 0 5.28 0 8 0 C8 2.64 8 5.28 8 8 C10.64 8 13.28 8 16 8 C16 10.64 16 13.28 16 16 C13.36 16 10.72 16 8 16 C8 21.28 8 26.56 8 32 C5.36 32 2.72 32 0 32 C0 21.44 0 10.88 0 0 Z " fill="#020202" transform="translate(74,142)"/>
<path d="M0 0 C2.64 0 5.28 0 8 0 C8 7.92 8 15.84 8 24 C10.64 24 13.28 24 16 24 C16 26.97 16 29.94 16 33 C13.36 33 10.72 33 8 33 C8 35.64 8 38.28 8 41 C5.03 41 2.06 41 -1 41 C-1.09765625 34.84765625 -1.09765625 34.84765625 -1 33 C0 32 0 32 3.5625 31.9375 C4.696875 31.958125 5.83125 31.97875 7 32 C7 29.69 7 27.38 7 25 C1.72 25 -3.56 25 -9 25 C-9 24.67 -9 24.34 -9 24 C-3.72 24 1.56 24 7 24 C7 18.72 7 13.44 7 8 C4.69 8 2.38 8 0 8 C0 5.36 0 2.72 0 0 Z " fill="#6E6E6E" transform="translate(263,158)"/>
<path d="M0 0 C2.64 0 5.28 0 8 0 C8 8.25 8 16.5 8 25 C5.36 25 2.72 25 0 25 C0 16.75 0 8.5 0 0 Z " fill="#060606" transform="translate(205,84)"/>
<path d="M0 0 C2.64 0 5.28 0 8 0 C8 8.25 8 16.5 8 25 C5.36 25 2.72 25 0 25 C0 16.75 0 8.5 0 0 Z " fill="#070707" transform="translate(205,51)"/>
<path d="M0 0 C2.97 0 5.94 0 9 0 C9 2.64 9 5.28 9 8 C11.64 8 14.28 8 17 8 C17 10.64 17 13.28 17 16 C19.64 16 22.28 16 25 16 C25 18.97 25 21.94 25 25 C22.36 25 19.72 25 17 25 C17 27.64 17 30.28 17 33 C16.67 33 16.34 33 16 33 C16 27.72 16 22.44 16 17 C13.36 17 10.72 17 8 17 C8 14.36 8 11.72 8 9 C5.36 9 2.72 9 0 9 C0 8.67 0 8.34 0 8 C2.64 8 5.28 8 8 8 C8 5.69 8 3.38 8 1 C5.36 1 2.72 1 0 1 C0 0.67 0 0.34 0 0 Z " fill="#6D6D6D" transform="translate(74,133)"/>
<path d="M0 0 C2.64 0 5.28 0 8 0 C8 2.64 8 5.28 8 8 C10.64 8 13.28 8 16 8 C16 10.64 16 13.28 16 16 C10.72 16 5.44 16 0 16 C0 10.72 0 5.44 0 0 Z " fill="#020202" transform="translate(115,109)"/>
<path d="M0 0 C2.64 0 5.28 0 8 0 C8 5.28 8 10.56 8 16 C2.72 16 -2.56 16 -8 16 C-8 13.69 -8 11.38 -8 9 C-5.36 9 -2.72 9 0 9 C0 6.03 0 3.06 0 0 Z " fill="#020202" transform="translate(189,84)"/>
<path d="M0 0 C5.28 0 10.56 0 16 0 C16 2.64 16 5.28 16 8 C13.03 8 10.06 8 7 8 C7 10.64 7 13.28 7 16 C4.69 16 2.38 16 0 16 C0 10.72 0 5.44 0 0 Z " fill="#040404" transform="translate(173,76)"/>
<path d="M0 0 C5.28 0 10.56 0 16 0 C16 5.28 16 10.56 16 16 C13.36 16 10.72 16 8 16 C8 13.03 8 10.06 8 7 C5.36 7 2.72 7 0 7 C0 4.69 0 2.38 0 0 Z " fill="#020202" transform="translate(148,44)"/>
<path d="M0 0 C2.97 0 5.94 0 9 0 C9 2.31 9 4.62 9 7 C14.28 7 19.56 7 25 7 C25 9.97 25 12.94 25 16 C24.67 16 24.34 16 24 16 C24 13.36 24 10.72 24 8 C18.72 8 13.44 8 8 8 C8 10.64 8 13.28 8 16 C5.36 16 2.72 16 0 16 C0 13.36 0 10.72 0 8 C-5.28 8 -10.56 8 -16 8 C-16 7.67 -16 7.34 -16 7 C-10.72 7 -5.44 7 0 7 C0 4.69 0 2.38 0 0 Z " fill="#5D5D5D" transform="translate(246,224)"/>
<path d="M0 0 C5.61 0 11.22 0 17 0 C17 2.64 17 5.28 17 8 C22.28 8 27.56 8 33 8 C33 8.33 33 8.66 33 9 C27.72 9 22.44 9 17 9 C17 11.31 17 13.62 17 16 C16.67 16 16.34 16 16 16 C16 13.69 16 11.38 16 9 C10.72 9 5.44 9 0 9 C0 6.03 0 3.06 0 0 Z " fill="#060606" transform="translate(123,166)"/>
<path d="M0 0 C0.33 0 0.66 0 1 0 C1 2.64 1 5.28 1 8 C3.64 8 6.28 8 9 8 C9 10.64 9 13.28 9 16 C11.64 16 14.28 16 17 16 C17 18.97 17 21.94 17 25 C10.84765625 25.09765625 10.84765625 25.09765625 9 25 C8 24 8 24 7.9375 20.4375 C7.958125 19.303125 7.97875 18.16875 8 17 C5.36 17 2.72 17 0 17 C0 11.39 0 5.78 0 0 Z " fill="#727272" transform="translate(90,117)"/>
<path d="M0 0 C2.97 0 5.94 0 9 0 C9 5.61 9 11.22 9 17 C6.03 17 3.06 17 0 17 C0 11.39 0 5.78 0 0 Z " fill="#191919" transform="translate(221,125)"/>
<path d="M0 0 C2.64 0 5.28 0 8 0 C8 5.61 8 11.22 8 17 C5.36 17 2.72 17 0 17 C0 11.39 0 5.78 0 0 Z " fill="#0B0B0B" transform="translate(140,84)"/>
<path d="M0 0 C2.64 0 5.28 0 8 0 C8 5.28 8 10.56 8 16 C5.36 16 2.72 16 0 16 C0 10.72 0 5.44 0 0 Z " fill="#030303" transform="translate(140,199)"/>
<path d="M0 0 C2.64 0 5.28 0 8 0 C8 5.28 8 10.56 8 16 C5.36 16 2.72 16 0 16 C0 10.72 0 5.44 0 0 Z " fill="#D5D5D5" transform="translate(189,183)"/>
<path d="M0 0 C5.28 0 10.56 0 16 0 C16 2.64 16 5.28 16 8 C10.72 8 5.44 8 0 8 C0 5.36 0 2.72 0 0 Z " fill="#D5D5D5" transform="translate(254,117)"/>
<path d="M0 0 C5.28 0 10.56 0 16 0 C16 2.64 16 5.28 16 8 C10.72 8 5.44 8 0 8 C0 5.36 0 2.72 0 0 Z " fill="#D9D9D9" transform="translate(156,109)"/>
<path d="M0 0 C2.64 0 5.28 0 8 0 C8 5.28 8 10.56 8 16 C5.36 16 2.72 16 0 16 C0 10.72 0 5.44 0 0 Z " fill="#D9D9D9" transform="translate(107,109)"/>
<path d="M0 0 C2.64 0 5.28 0 8 0 C8 5.28 8 10.56 8 16 C5.36 16 2.72 16 0 16 C0 10.72 0 5.44 0 0 Z " fill="#D0D0D0" transform="translate(164,76)"/>
<path d="M0 0 C2.64 0 5.28 0 8 0 C8 2.64 8 5.28 8 8 C18.89 8 29.78 8 41 8 C41 10.64 41 13.28 41 16 C40.67 16 40.34 16 40 16 C40 13.69 40 11.38 40 9 C35.05 9 30.1 9 25 9 C25 14.28 25 19.56 25 25 C24.67 25 24.34 25 24 25 C24 19.72 24 14.44 24 9 C16.08 9 8.16 9 0 9 C0 6.03 0 3.06 0 0 Z " fill="#7F7F7F" transform="translate(140,35)"/>
<path d="M0 0 C5.28 0 10.56 0 16 0 C16 2.31 16 4.62 16 7 C10.72 7 5.44 7 0 7 C0 4.69 0 2.38 0 0 Z " fill="#D7D7D7" transform="translate(115,126)"/>
<path d="M0 0 C2.97 0 5.94 0 9 0 C9 2.97 9 5.94 9 9 C6.03 9 3.06 9 0 9 C0 6.03 0 3.06 0 0 Z " fill="#222222" transform="translate(172,231)"/>
<path d="M0 0 C2.05078125 0.03255208 4.1015625 0.06510417 6.15234375 0.09765625 C6.15234375 3.06765625 6.15234375 6.03765625 6.15234375 9.09765625 C3.18234375 9.09765625 0.21234375 9.09765625 -2.84765625 9.09765625 C-2.9453125 2.9453125 -2.9453125 2.9453125 -2.84765625 1.09765625 C-1.84765625 0.09765625 -1.84765625 0.09765625 0 0 Z " fill="#202020" transform="translate(223.84765625,181.90234375)"/>
<path d="M0 0 C2.97 0 5.94 0 9 0 C9 2.64 9 5.28 9 8 C6.03 8 3.06 8 0 8 C0 5.36 0 2.72 0 0 Z " fill="#141414" transform="translate(221,101)"/>
<path d="M0 0 C2.64 0 5.28 0 8 0 C8 2.64 8 5.28 8 8 C5.36 8 2.72 8 0 8 C0 5.36 0 2.72 0 0 Z " fill="#060606" transform="translate(246,232)"/>
<path d="M0 0 C2.64 0 5.28 0 8 0 C8 2.64 8 5.28 8 8 C5.36 8 2.72 8 0 8 C0 5.36 0 2.72 0 0 Z " fill="#D5D5D5" transform="translate(197,207)"/>
<path d="M0 0 C2.64 0 5.28 0 8 0 C8 2.64 8 5.28 8 8 C5.36 8 2.72 8 0 8 C0 5.36 0 2.72 0 0 Z " fill="#CBCBCB" transform="translate(172,207)"/>
<path d="M0 0 C2.64 0 5.28 0 8 0 C8 2.64 8 5.28 8 8 C5.36 8 2.72 8 0 8 C0 5.36 0 2.72 0 0 Z " fill="#D2D2D2" transform="translate(181,199)"/>
<path d="M0 0 C2.64 0 5.28 0 8 0 C8 2.64 8 5.28 8 8 C5.36 8 2.72 8 0 8 C0 5.36 0 2.72 0 0 Z " fill="#101010" transform="translate(262,191)"/>
<path d="M0 0 C2.64 0 5.28 0 8 0 C8 2.64 8 5.28 8 8 C5.36 8 2.72 8 0 8 C0 5.36 0 2.72 0 0 Z " fill="#0A0A0A" transform="translate(271,183)"/>
<path d="M0 0 C2.64 0 5.28 0 8 0 C8 2.64 8 5.28 8 8 C5.36 8 2.72 8 0 8 C0 5.36 0 2.72 0 0 Z " fill="#060606" transform="translate(189,183)"/>
<path d="M0 0 C2.64 0 5.28 0 8 0 C8 2.64 8 5.28 8 8 C5.36 8 2.72 8 0 8 C0 5.36 0 2.72 0 0 Z " fill="#D9D9D9" transform="translate(238,158)"/>
<path d="M0 0 C2.64 0 5.28 0 8 0 C8 2.64 8 5.28 8 8 C5.36 8 2.72 8 0 8 C0 5.36 0 2.72 0 0 Z " fill="#D2D2D2" transform="translate(91,150)"/>
<path d="M0 0 C2.64 0 5.28 0 8 0 C8 2.64 8 5.28 8 8 C5.36 8 2.72 8 0 8 C0 5.36 0 2.72 0 0 Z " fill="#CBCBCB" transform="translate(123,142)"/>
<path d="M0 0 C2.64 0 5.28 0 8 0 C8 2.64 8 5.28 8 8 C5.36 8 2.72 8 0 8 C0 5.36 0 2.72 0 0 Z " fill="#CBCBCB" transform="translate(99,134)"/>
<path d="M0 0 C2.64 0 5.28 0 8 0 C8 2.64 8 5.28 8 8 C5.36 8 2.72 8 0 8 C0 5.36 0 2.72 0 0 Z " fill="#D9D9D9" transform="translate(148,117)"/>
<path d="M0 0 C2.64 0 5.28 0 8 0 C8 2.64 8 5.28 8 8 C5.36 8 2.72 8 0 8 C0 5.36 0 2.72 0 0 Z " fill="#030303" transform="translate(140,117)"/>
<path d="M0 0 C2.64 0 5.28 0 8 0 C8 2.64 8 5.28 8 8 C5.36 8 2.72 8 0 8 C0 5.36 0 2.72 0 0 Z " fill="#D2D2D2" transform="translate(123,109)"/>
<path d="M0 0 C2.64 0 5.28 0 8 0 C8 2.64 8 5.28 8 8 C5.36 8 2.72 8 0 8 C0 5.36 0 2.72 0 0 Z " fill="#060606" transform="translate(271,101)"/>
<path d="M0 0 C2.64 0 5.28 0 8 0 C8 2.64 8 5.28 8 8 C5.36 8 2.72 8 0 8 C0 5.36 0 2.72 0 0 Z " fill="#0A0A0A" transform="translate(123,101)"/>
<path d="M0 0 C2.64 0 5.28 0 8 0 C8 2.64 8 5.28 8 8 C5.36 8 2.72 8 0 8 C0 5.36 0 2.72 0 0 Z " fill="#CBCBCB" transform="translate(181,84)"/>
<path d="M0 0 C2.64 0 5.28 0 8 0 C8 2.64 8 5.28 8 8 C5.36 8 2.72 8 0 8 C0 5.36 0 2.72 0 0 Z " fill="#060606" transform="translate(164,68)"/>
<path d="M0 0 C2.64 0 5.28 0 8 0 C8 2.64 8 5.28 8 8 C5.36 8 2.72 8 0 8 C0 5.36 0 2.72 0 0 Z " fill="#000000" transform="translate(148,68)"/>
<path d="M0 0 C2.64 0 5.28 0 8 0 C8 2.64 8 5.28 8 8 C5.36 8 2.72 8 0 8 C0 5.36 0 2.72 0 0 Z " fill="#060606" transform="translate(140,35)"/>
<path d="M0 0 C2.64 0 5.28 0 8 0 C8 2.31 8 4.62 8 7 C5.36 7 2.72 7 0 7 C0 4.69 0 2.38 0 0 Z " fill="#D5D5D5" transform="translate(246,224)"/>
<path d="M0 0 C2.31 0 4.62 0 7 0 C7 2.64 7 5.28 7 8 C4.69 8 2.38 8 0 8 C0 5.36 0 2.72 0 0 Z " fill="#D9D9D9" transform="translate(263,158)"/>
<path d="M0 0 C8.25 0 16.5 0 25 0 C25 2.64 25 5.28 25 8 C27.64 8 30.28 8 33 8 C33 8.33 33 8.66 33 9 C30.36 9 27.72 9 25 9 C25 11.64 25 14.28 25 17 C24.67 17 24.34 17 24 17 C24 14.36 24 11.72 24 9 C21.69 9 19.38 9 17 9 C17 8.67 17 8.34 17 8 C19.31 8 21.62 8 24 8 C24 5.69 24 3.38 24 1 C16.08 1 8.16 1 0 1 C0 0.67 0 0.34 0 0 Z " fill="#767676" transform="translate(246,133)"/>
<path d="M0 0 C2.31 0 4.62 0 7 0 C7 2.64 7 5.28 7 8 C4.69 8 2.38 8 0 8 C0 5.36 0 2.72 0 0 Z " fill="#D9D9D9" transform="translate(132,117)"/>
<path d="M0 0 C2.31 0 4.62 0 7 0 C7 2.64 7 5.28 7 8 C4.69 8 2.38 8 0 8 C0 5.36 0 2.72 0 0 Z " fill="#000000" transform="translate(132,109)"/>
<path d="M0 0 C2.31 0 4.62 0 7 0 C7 2.31 7 4.62 7 7 C4.69 7 2.38 7 0 7 C0 4.69 0 2.38 0 0 Z " fill="#D9D9D9" transform="translate(83,142)"/>
<path d="M0 0 C2.31 0 4.62 0 7 0 C7 2.31 7 4.62 7 7 C4.69 7 2.38 7 0 7 C0 4.69 0 2.38 0 0 Z " fill="#D9D9D9" transform="translate(91,126)"/>
<path d="M0 0 C2.31 0 4.62 0 7 0 C7 2.31 7 4.62 7 7 C4.69 7 2.38 7 0 7 C0 4.69 0 2.38 0 0 Z " fill="#D9D9D9" transform="translate(173,93)"/>
<path d="M0 0 C0.33 0 0.66 0 1 0 C1 2.64 1 5.28 1 8 C6.28 8 11.56 8 17 8 C17 8.33 17 8.66 17 9 C11.72 9 6.44 9 1 9 C1 11.31 1 13.62 1 16 C0.67 16 0.34 16 0 16 C0 13.69 0 11.38 0 9 C-5.28 9 -10.56 9 -16 9 C-16 8.67 -16 8.34 -16 8 C-10.72 8 -5.44 8 0 8 C0 5.36 0 2.72 0 0 Z " fill="#6C6C6C" transform="translate(139,166)"/>
<path d="M0 0 C0.33 0 0.66 0 1 0 C1 2.31 1 4.62 1 7 C3.31 7 5.62 7 8 7 C8 4.69 8 2.38 8 0 C8.33 0 8.66 0 9 0 C9 2.31 9 4.62 9 7 C14.28 7 19.56 7 25 7 C25 7.33 25 7.66 25 8 C19.72 8 14.44 8 9 8 C9 10.64 9 13.28 9 16 C8.67 16 8.34 16 8 16 C8 13.36 8 10.72 8 8 C5.36 8 2.72 8 0 8 C0 5.36 0 2.72 0 0 Z " fill="#696969" transform="translate(172,93)"/>
</svg>
