<?xml version="1.0" encoding="UTF-8"?>
<svg version="1.1" xmlns="http://www.w3.org/2000/svg" width="80" height="35">
<path d="M0 0 C2.4375 1.4375 2.4375 1.4375 4 4 C3.98289867 6.3685337 3.68973576 8.55033667 3.26171875 10.87890625 C2.82281873 13.18516172 2.82281873 13.18516172 4 16 C-0.34510827 15.34165026 -4.05797217 13.93382497 -8 12 C-10 9 -10 9 -9.8125 5.4375 C-8.47838541 -0.20683097 -5.29818245 -0.64875703 0 0 Z M-5 3 C-6.29633621 4.06645115 -6.29633621 4.06645115 -6.0625 6.5625 C-6.041875 7.366875 -6.02125 8.17125 -6 9 C-4.34385343 9.38218767 -2.67542976 9.71395102 -1 10 C0.29633621 8.93354885 0.29633621 8.93354885 0.0625 6.4375 C0.041875 5.633125 0.02125 4.82875 0 4 C-1.65614657 3.61781233 -3.32457024 3.28604898 -5 3 Z " fill="#000000" transform="translate(53,11)"/>
<path d="M0 0 C0.98871094 -0.01417969 1.97742188 -0.02835938 2.99609375 -0.04296875 C5.5625 0.1875 5.5625 0.1875 7.5625 2.1875 C7.828125 4.5 7.828125 4.5 7.8125 7.1875 C7.81765625 8.074375 7.8228125 8.96125 7.828125 9.875 C7.5625 12.1875 7.5625 12.1875 5.5625 14.1875 C2.99609375 14.41796875 2.99609375 14.41796875 0 14.375 C-0.99128906 14.36855469 -1.98257812 14.36210938 -3.00390625 14.35546875 C-5.4375 14.1875 -5.4375 14.1875 -6.4375 13.1875 C-6.53623816 11.18950428 -6.56721799 9.18792842 -6.5625 7.1875 C-6.56507812 6.094375 -6.56765625 5.00125 -6.5703125 3.875 C-6.33671333 -0.85194789 -4.22350983 0.02746105 0 0 Z M-3.4375 3.1875 C-3.4375 5.8275 -3.4375 8.4675 -3.4375 11.1875 C-0.7975 11.1875 1.8425 11.1875 4.5625 11.1875 C4.60491723 8.85455225 4.60342937 6.52047433 4.5625 4.1875 C3.37825674 2.77172523 3.37825674 2.77172523 0 3.125 C-1.7015625 3.1559375 -1.7015625 3.1559375 -3.4375 3.1875 Z " fill="#000000" transform="translate(23.4375,17.8125)"/>
<path d="M0 0 C1.48306641 0.02126953 1.48306641 0.02126953 2.99609375 0.04296875 C3.98738281 0.04941406 4.97867187 0.05585937 6 0.0625 C8.43359375 0.23046875 8.43359375 0.23046875 9.43359375 1.23046875 C9.53233191 3.22846447 9.56331174 5.23004033 9.55859375 7.23046875 C9.56117187 8.32359375 9.56375 9.41671875 9.56640625 10.54296875 C9.43359375 13.23046875 9.43359375 13.23046875 8.43359375 14.23046875 C6.62432094 14.35534633 4.80963268 14.40617721 2.99609375 14.41796875 C2.00738281 14.43214844 1.01867187 14.44632813 0 14.4609375 C-2.56640625 14.23046875 -2.56640625 14.23046875 -4.56640625 12.23046875 C-4.83203125 9.91796875 -4.83203125 9.91796875 -4.81640625 7.23046875 C-4.8215625 6.34359375 -4.82671875 5.45671875 -4.83203125 4.54296875 C-4.43763462 1.10939812 -3.40136177 0.30544954 0 0 Z M-1.56640625 3.23046875 C-1.60882348 5.5634165 -1.60733562 7.89749442 -1.56640625 10.23046875 C-0.38216299 11.64624352 -0.38216299 11.64624352 2.99609375 11.29296875 C4.69765625 11.26203125 4.69765625 11.26203125 6.43359375 11.23046875 C6.43359375 8.59046875 6.43359375 5.95046875 6.43359375 3.23046875 C3.79359375 3.23046875 1.15359375 3.23046875 -1.56640625 3.23046875 Z " fill="#000000" transform="translate(5.56640625,2.76953125)"/>
<path d="M0 0 C0.98871094 -0.01417969 1.97742188 -0.02835937 2.99609375 -0.04296875 C5.5625 0.1875 5.5625 0.1875 7.5625 2.1875 C7.828125 4.24609375 7.828125 4.24609375 7.8125 6.625 C7.81765625 7.40746094 7.8228125 8.18992187 7.828125 8.99609375 C7.5625 11.1875 7.5625 11.1875 5.5625 14.1875 C3.25 14.515625 3.25 14.515625 0.5625 14.4375 C-0.7678125 14.41429687 -0.7678125 14.41429687 -2.125 14.390625 C-4.4375 14.1875 -4.4375 14.1875 -6.4375 13.1875 C-6.46436553 11.20840602 -6.48383375 9.22921029 -6.5 7.25 C-6.51160156 6.14785156 -6.52320312 5.04570312 -6.53515625 3.91015625 C-6.36417452 -0.85681444 -4.24778713 0.0276189 0 0 Z M-3.4375 3.1875 C-3.4375 5.8275 -3.4375 8.4675 -3.4375 11.1875 C-1.10455225 11.22991723 1.22952567 11.22842937 3.5625 11.1875 C4.97827477 10.00325674 4.97827477 10.00325674 4.625 6.625 C4.604375 5.490625 4.58375 4.35625 4.5625 3.1875 C1.9225 3.1875 -0.7175 3.1875 -3.4375 3.1875 Z " fill="#000000" transform="translate(23.4375,2.8125)"/>
<path d="M0 0 C0.763125 0.20625 1.52625 0.4125 2.3125 0.625 C3.26274979 4.32041586 3.26274979 6.92958414 2.3125 10.625 C0 11.25 0 11.25 -2.6875 11.625 C-5.6875 9.625 -5.6875 9.625 -6.0859375 7.75 C-6.07820313 7.04875 -6.07046875 6.3475 -6.0625 5.625 C-6.07023437 4.92375 -6.07796875 4.2225 -6.0859375 3.5 C-5.34153908 -0.0030514 -3.23265019 -0.45106747 0 0 Z M-1.6875 2.625 C-1.6875 3.285 -1.6875 3.945 -1.6875 4.625 C-1.0275 4.295 -0.3675 3.965 0.3125 3.625 C-0.3475 3.295 -1.0075 2.965 -1.6875 2.625 Z " fill="#000000" transform="translate(75.6875,13.375)"/>
<path d="M0 0 C0.33 1.32 0.66 2.64 1 4 C0.01 4.495 0.01 4.495 -1 5 C-1.65772428 8.02934491 -1.65772428 8.02934491 -2 11 C-2.99 11 -3.98 11 -5 11 C-5 7.7 -5 4.4 -5 1 C-3.35 0.67 -1.7 0.34 0 0 Z " fill="#000000" transform="translate(63,13)"/>
<path d="M0 0 C1.32 0 2.64 0 4 0 C4 3.3 4 6.6 4 10 C2.68 10 1.36 10 0 10 C0 6.7 0 3.4 0 0 Z " fill="#000000" transform="translate(65,14)"/>
<path d="M0 0 C3.3 0 6.6 0 10 0 C10 0.99 10 1.98 10 3 C6.7 3 3.4 3 0 3 C0 2.01 0 1.02 0 0 Z " fill="#000000" transform="translate(4,18)"/>
<path d="M0 0 C0.99 0.33 1.98 0.66 3 1 C3 1.99 3 2.98 3 4 C1.68 4 0.36 4 -1 4 C-0.67 2.68 -0.34 1.36 0 0 Z " fill="#000000" transform="translate(66,9)"/>
<path d="M0 0 C0.99 0 1.98 0 3 0 C3 0.99 3 1.98 3 3 C2.01 3 1.02 3 0 3 C0 2.01 0 1.02 0 0 Z " fill="#000000" transform="translate(11,28)"/>
<path d="M0 0 C0.99 0 1.98 0 3 0 C3 0.99 3 1.98 3 3 C2.01 2.67 1.02 2.34 0 2 C0 1.34 0 0.68 0 0 Z " fill="#000000" transform="translate(7,24)"/>
<path d="M0 0 C0.99 0.33 1.98 0.66 3 1 C2.67 1.66 2.34 2.32 2 3 C1.34 3 0.68 3 0 3 C0 2.01 0 1.02 0 0 Z " fill="#000000" transform="translate(4,28)"/>
</svg>
